<ttFont>
    <TTGlyph name=".notdef" xMin="103" yMin="0" xMax="1437" yMax="1483">
      <contour>
        <pt x="1422" y="1432" on="1"/>
        <pt x="1054" y="55" on="1"/>
        <pt x="1046" y="23" on="0"/>
        <pt x="1013" y="0" on="0"/>
        <pt x="980" y="0" on="1"/>
        <pt x="165" y="0" on="1"/>
        <pt x="103" y="0" on="0"/>
        <pt x="124" y="70" on="1"/>
        <pt x="486" y="1430" on="1"/>
        <pt x="501" y="1483" on="0"/>
        <pt x="554" y="1483" on="1"/>
        <pt x="1383" y="1483" on="1"/>
        <pt x="1437" y="1483" on="0"/>
      </contour>
      <contour>
        <pt x="595" y="1382" on="1"/>
        <pt x="253" y="102" on="1"/>
        <pt x="943" y="102" on="1"/>
        <pt x="1285" y="1382" on="1"/>
      </contour>
    </TTGlyph>
    <TTGlyph name="A" xMin="-135" yMin="-6" xMax="837" yMax="1481">
      <contour>
        <pt x="315" y="592" on="1"/>
        <pt x="616" y="592" on="1"/>
        <pt x="665" y="1303" on="1"/>
      </contour>
      <contour>
        <pt x="244" y="444" on="1"/>
        <pt x="45" y="41" on="1"/>
        <pt x="22" y="-6" on="0"/>
        <pt x="-31" y="0" on="1"/>
        <pt x="-78" y="4" on="1"/>
        <pt x="-113" y="6" on="0"/>
        <pt x="-135" y="55" on="0"/>
        <pt x="-121" y="82" on="1"/>
        <pt x="561" y="1397" on="1"/>
        <pt x="604" y="1479" on="0"/>
        <pt x="674" y="1479" on="1"/>
        <pt x="756" y="1481" on="1"/>
        <pt x="837" y="1481" on="0"/>
        <pt x="831" y="1382" on="1"/>
        <pt x="760" y="45" on="1"/>
        <pt x="756" y="2" on="0"/>
        <pt x="698" y="0" on="1"/>
        <pt x="629" y="2" on="1"/>
        <pt x="577" y="2" on="0"/>
        <pt x="581" y="57" on="1"/>
        <pt x="608" y="444" on="1"/>
      </contour>
    </TTGlyph>
    <TTGlyph name="AE" xMin="-204" yMin="-2" xMax="1498" yMax="1483">
      <contour>
        <pt x="329" y="592" on="1"/>
        <pt x="624" y="592" on="1"/>
        <pt x="740" y="1247" on="1"/>
      </contour>
      <contour>
        <pt x="234" y="444" on="1"/>
        <pt x="-20" y="39" on="1"/>
        <pt x="-36" y="14" on="0"/>
        <pt x="-58" y="-2" on="0"/>
        <pt x="-87" y="0" on="1"/>
        <pt x="-159" y="4" on="1"/>
        <pt x="-187" y="6" on="0"/>
        <pt x="-204" y="55" on="0"/>
        <pt x="-190" y="76" on="1"/>
        <pt x="681" y="1397" on="1"/>
        <pt x="740" y="1483" on="0"/>
        <pt x="802" y="1483" on="1"/>
        <pt x="1451" y="1483" on="1"/>
        <pt x="1480" y="1483" on="0"/>
        <pt x="1498" y="1460" on="0"/>
        <pt x="1490" y="1432" on="1"/>
        <pt x="1475" y="1380" on="1"/>
        <pt x="1465" y="1341" on="0"/>
        <pt x="1424" y="1341" on="1"/>
        <pt x="912" y="1341" on="1"/>
        <pt x="832" y="874" on="1"/>
        <pt x="1244" y="874" on="1"/>
        <pt x="1260" y="874" on="0"/>
        <pt x="1279" y="848" on="0"/>
        <pt x="1273" y="827" on="1"/>
        <pt x="1258" y="776" on="1"/>
        <pt x="1246" y="733" on="0"/>
        <pt x="1197" y="733" on="1"/>
        <pt x="808" y="733" on="1"/>
        <pt x="707" y="141" on="1"/>
        <pt x="1088" y="141" on="1"/>
        <pt x="1107" y="141" on="0"/>
        <pt x="1121" y="113" on="0"/>
        <pt x="1117" y="94" on="1"/>
        <pt x="1103" y="43" on="1"/>
        <pt x="1093" y="0" on="0"/>
        <pt x="1037" y="0" on="1"/>
        <pt x="576" y="0" on="1"/>
        <pt x="523" y="0" on="0"/>
        <pt x="529" y="55" on="1"/>
        <pt x="597" y="444" on="1"/>
      </contour>
    </TTGlyph>
    <TTGlyph name="Aacute" xMin="-135" yMin="-6" xMax="1001" yMax="1846">
      <component glyphName="A" x="0" y="0" flags="0x1004"/>
      <component glyphName="acute" x="553" y="416" flags="0x1004"/>
    </TTGlyph>
    <TTGlyph name="Acircumflex" xMin="-135" yMin="-6" xMax="943" yMax="1866">
      <component glyphName="A" x="0" y="0" flags="0x1004"/>
      <component glyphName="circumflex" x="336" y="383" flags="0x1004"/>
    </TTGlyph>
    <TTGlyph name="Adieresis" xMin="-135" yMin="-6" xMax="1004" yMax="1864">
      <component glyphName="A" x="0" y="0" flags="0x1004"/>
      <component glyphName="dieresis" x="168" y="430" flags="0x1004"/>
    </TTGlyph>
    <TTGlyph name="Agrave" xMin="-135" yMin="-6" xMax="837" yMax="1846">
      <component glyphName="A" x="0" y="0" flags="0x1204"/>
      <component glyphName="grave" x="326" y="416" flags="0x1004"/>
    </TTGlyph>
    <TTGlyph name="Aring" xMin="-136" yMin="-6" xMax="986" yMax="1729">
      <contour>
        <pt x="656" y="1157" on="1"/>
        <pt x="625" y="1159" on="0"/>
        <pt x="599" y="1165" on="1"/>
        <pt x="316" y="592" on="1"/>
        <pt x="617" y="592" on="1"/>
      </contour>
      <contour>
        <pt x="476" y="1233" on="1"/>
        <pt x="408" y="1311" on="0"/>
        <pt x="441" y="1577" on="0"/>
        <pt x="609" y="1729" on="0"/>
        <pt x="849" y="1720" on="0"/>
        <pt x="986" y="1569" on="0"/>
        <pt x="943" y="1280" on="0"/>
        <pt x="820" y="1196" on="1"/>
        <pt x="761" y="45" on="1"/>
        <pt x="759" y="0" on="0"/>
        <pt x="699" y="0" on="1"/>
        <pt x="630" y="2" on="1"/>
        <pt x="578" y="2" on="0"/>
        <pt x="582" y="57" on="1"/>
        <pt x="609" y="444" on="1"/>
        <pt x="245" y="444" on="1"/>
        <pt x="46" y="41" on="1"/>
        <pt x="23" y="-6" on="0"/>
        <pt x="-30" y="0" on="1"/>
        <pt x="-77" y="4" on="1"/>
        <pt x="-110" y="8" on="0"/>
        <pt x="-136" y="49" on="0"/>
        <pt x="-120" y="82" on="1"/>
      </contour>
      <contour>
        <pt x="638" y="1587" on="1"/>
        <pt x="580" y="1542" on="0"/>
        <pt x="552" y="1399" on="0"/>
        <pt x="589" y="1292" on="0"/>
        <pt x="707" y="1268" on="0"/>
        <pt x="802" y="1348" on="0"/>
        <pt x="843" y="1483" on="0"/>
        <pt x="798" y="1597" on="0"/>
        <pt x="687" y="1624" on="0"/>
      </contour>
    </TTGlyph>
    <TTGlyph name="Atilde" xMin="-135" yMin="-6" xMax="1052" yMax="1796">
      <component glyphName="A" x="0" y="0" flags="0x1204"/>
      <component glyphName="tilde" x="154" y="500" flags="0x1004"/>
    </TTGlyph>
    <TTGlyph name="B" xMin="-29" yMin="0" xMax="909" yMax="1483">
      <contour>
        <pt x="250" y="1483" on="1"/>
        <pt x="590" y="1483" on="1"/>
        <pt x="744" y="1483" on="0"/>
        <pt x="909" y="1321" on="0"/>
        <pt x="907" y="987" on="0"/>
        <pt x="752" y="786" on="0"/>
        <pt x="674" y="754" on="1"/>
        <pt x="809" y="676" on="0"/>
        <pt x="735" y="250" on="0"/>
        <pt x="469" y="0" on="0"/>
        <pt x="234" y="0" on="1"/>
        <pt x="19" y="0" on="1"/>
        <pt x="-6" y="0" on="0"/>
        <pt x="-29" y="37" on="0"/>
        <pt x="-22" y="63" on="1"/>
        <pt x="303" y="1341" on="1"/>
        <pt x="252" y="1341" on="1"/>
        <pt x="225" y="1341" on="0"/>
        <pt x="184" y="1374" on="0"/>
        <pt x="191" y="1395" on="1"/>
        <pt x="203" y="1442" on="1"/>
        <pt x="207" y="1458" on="0"/>
        <pt x="238" y="1483" on="0"/>
      </contour>
      <contour>
        <pt x="305" y="692" on="1"/>
        <pt x="164" y="139" on="1"/>
        <pt x="293" y="145" on="1"/>
        <pt x="397" y="150" on="0"/>
        <pt x="580" y="319" on="0"/>
        <pt x="637" y="602" on="0"/>
        <pt x="572" y="655" on="1"/>
        <pt x="547" y="678" on="0"/>
        <pt x="445" y="692" on="0"/>
      </contour>
      <contour>
        <pt x="469" y="1341" on="1"/>
        <pt x="342" y="838" on="1"/>
        <pt x="508" y="834" on="1"/>
        <pt x="604" y="831" on="0"/>
        <pt x="713" y="987" on="0"/>
        <pt x="748" y="1194" on="0"/>
        <pt x="678" y="1341" on="0"/>
        <pt x="590" y="1341" on="1"/>
      </contour>
    </TTGlyph>
    <TTGlyph name="C" xMin="-9" yMin="-20" xMax="898" yMax="1499">
      <contour>
        <pt x="896" y="1124" on="1"/>
        <pt x="898" y="1110" on="0"/>
        <pt x="898" y="1098" on="1"/>
        <pt x="898" y="1069" on="0"/>
        <pt x="855" y="1057" on="1"/>
        <pt x="798" y="1040" on="1"/>
        <pt x="775" y="1036" on="0"/>
        <pt x="734" y="1069" on="0"/>
        <pt x="732" y="1096" on="1"/>
        <pt x="716" y="1253" on="0"/>
        <pt x="663" y="1319" on="1"/>
        <pt x="636" y="1329" on="0"/>
        <pt x="603" y="1329" on="1"/>
        <pt x="503" y="1333" on="0"/>
        <pt x="300" y="1042" on="0"/>
        <pt x="151" y="506" on="0"/>
        <pt x="202" y="152" on="0"/>
        <pt x="280" y="133" on="1"/>
        <pt x="433" y="147" on="0"/>
        <pt x="534" y="369" on="1"/>
        <pt x="552" y="410" on="0"/>
        <pt x="581" y="426" on="0"/>
        <pt x="616" y="412" on="1"/>
        <pt x="681" y="385" on="1"/>
        <pt x="718" y="369" on="0"/>
        <pt x="687" y="303" on="1"/>
        <pt x="593" y="129" on="0"/>
        <pt x="409" y="-16" on="0"/>
        <pt x="274" y="-16" on="1"/>
        <pt x="202" y="-20" on="0"/>
        <pt x="30" y="115" on="0"/>
        <pt x="-9" y="547" on="0"/>
        <pt x="130" y="1112" on="0"/>
        <pt x="454" y="1497" on="0"/>
        <pt x="636" y="1499" on="1"/>
        <pt x="661" y="1499" on="0"/>
        <pt x="747" y="1470" on="0"/>
        <pt x="818" y="1417" on="0"/>
        <pt x="888" y="1239" on="0"/>
      </contour>
    </TTGlyph>
    <TTGlyph name="Ccaron" xMin="-9" yMin="-20" xMax="943" yMax="1906">
      <component glyphName="C" x="0" y="0" flags="0x1004"/>
      <component glyphName="caron" x="332" y="446" flags="0x1004"/>
    </TTGlyph>
    <TTGlyph name="Ccedilla" xMin="-7" yMin="-375" xMax="900" yMax="1499">
      <component glyphName="C" x="2" y="0" flags="0x1004"/>
      <component glyphName="cedilla" x="111" y="0" flags="0x1004"/>
    </TTGlyph>
    <TTGlyph name="D" xMin="-56" yMin="-8" xMax="863" yMax="1499">
      <contour>
        <pt x="284" y="1350" on="1"/>
        <pt x="177" y="1337" on="1"/>
        <pt x="138" y="1337" on="0"/>
        <pt x="145" y="1384" on="1"/>
        <pt x="153" y="1442" on="1"/>
        <pt x="159" y="1473" on="0"/>
        <pt x="188" y="1481" on="1"/>
        <pt x="269" y="1499" on="0"/>
        <pt x="630" y="1493" on="0"/>
        <pt x="847" y="1272" on="0"/>
        <pt x="863" y="844" on="0"/>
        <pt x="708" y="330" on="0"/>
        <pt x="427" y="-6" on="0"/>
        <pt x="202" y="-8" on="1"/>
        <pt x="91" y="-8" on="0"/>
        <pt x="-56" y="14" on="0"/>
        <pt x="-34" y="102" on="1"/>
      </contour>
      <contour>
        <pt x="452" y="1354" on="1"/>
        <pt x="140" y="137" on="1"/>
        <pt x="159" y="135" on="0"/>
        <pt x="235" y="135" on="1"/>
        <pt x="364" y="135" on="0"/>
        <pt x="581" y="432" on="0"/>
        <pt x="697" y="860" on="0"/>
        <pt x="704" y="1157" on="0"/>
        <pt x="587" y="1352" on="0"/>
      </contour>
    </TTGlyph>
    <TTGlyph name="E" xMin="-27" yMin="0" xMax="969" yMax="1483">
      <contour>
        <pt x="512" y="0" on="1"/>
        <pt x="21" y="0" on="1"/>
        <pt x="-4" y="0" on="0"/>
        <pt x="-27" y="37" on="0"/>
        <pt x="-20" y="63" on="1"/>
        <pt x="305" y="1341" on="1"/>
        <pt x="223" y="1341" on="1"/>
        <pt x="193" y="1341" on="0"/>
        <pt x="178" y="1360" on="0"/>
        <pt x="186" y="1395" on="1"/>
        <pt x="199" y="1442" on="1"/>
        <pt x="207" y="1468" on="0"/>
        <pt x="225" y="1483" on="0"/>
        <pt x="254" y="1483" on="1"/>
        <pt x="922" y="1483" on="1"/>
        <pt x="950" y="1483" on="0"/>
        <pt x="969" y="1462" on="0"/>
        <pt x="961" y="1432" on="1"/>
        <pt x="946" y="1380" on="1"/>
        <pt x="936" y="1341" on="0"/>
        <pt x="895" y="1341" on="1"/>
        <pt x="471" y="1341" on="1"/>
        <pt x="352" y="874" on="1"/>
        <pt x="715" y="874" on="1"/>
        <pt x="733" y="874" on="0"/>
        <pt x="748" y="846" on="0"/>
        <pt x="744" y="827" on="1"/>
        <pt x="729" y="776" on="1"/>
        <pt x="719" y="733" on="0"/>
        <pt x="668" y="733" on="1"/>
        <pt x="318" y="733" on="1"/>
        <pt x="166" y="141" on="1"/>
        <pt x="559" y="141" on="1"/>
        <pt x="578" y="141" on="0"/>
        <pt x="592" y="113" on="0"/>
        <pt x="588" y="94" on="1"/>
        <pt x="574" y="43" on="1"/>
        <pt x="563" y="0" on="0"/>
      </contour>
    </TTGlyph>
    <TTGlyph name="Eacute" xMin="576" yMin="1613" xMax="897" yMax="1876">
      <component glyphName="acute" x="449" y="446" flags="0x1004"/>
    </TTGlyph>
    <TTGlyph name="Ecircumflex" xMin="420" yMin="1665" xMax="875" yMax="1929">
      <component glyphName="circumflex" x="268" y="446" flags="0x1004"/>
    </TTGlyph>
    <TTGlyph name="Edieresis" xMin="352" yMin="1679" xMax="891" yMax="1878">
      <component glyphName="dieresis" x="55" y="444" flags="0x1004"/>
    </TTGlyph>
    <TTGlyph name="Egrave" xMin="279" yMin="1613" xMax="605" yMax="1876">
      <component glyphName="grave" x="166" y="446" flags="0x1004"/>
    </TTGlyph>
    <TTGlyph name="Eth" xMin="86" yMin="594" xMax="844" yMax="735">
      <contour>
        <pt x="144" y="735" on="1"/>
        <pt x="799" y="735" on="1"/>
        <pt x="844" y="735" on="0"/>
        <pt x="834" y="688" on="1"/>
        <pt x="824" y="637" on="1"/>
        <pt x="813" y="594" on="0"/>
        <pt x="770" y="594" on="1"/>
        <pt x="136" y="594" on="1"/>
        <pt x="86" y="594" on="0"/>
        <pt x="99" y="641" on="1"/>
        <pt x="117" y="713" on="1"/>
        <pt x="123" y="735" on="0"/>
      </contour>
    </TTGlyph>
    <TTGlyph name="Euro" xMin="-130" yMin="-23" xMax="905" yMax="1509">
      <contour>
        <pt x="-78" y="657" on="1"/>
        <pt x="34" y="657" on="1"/>
        <pt x="42" y="711" on="0"/>
        <pt x="55" y="764" on="1"/>
        <pt x="-48" y="764" on="1"/>
        <pt x="-70" y="764" on="0"/>
        <pt x="-82" y="780" on="0"/>
        <pt x="-76" y="811" on="1"/>
        <pt x="-70" y="836" on="1"/>
        <pt x="-64" y="862" on="0"/>
        <pt x="-42" y="862" on="1"/>
        <pt x="81" y="862" on="1"/>
        <pt x="133" y="1040" on="0"/>
        <pt x="313" y="1343" on="0"/>
        <pt x="563" y="1509" on="0"/>
        <pt x="772" y="1473" on="0"/>
        <pt x="888" y="1290" on="0"/>
        <pt x="901" y="1114" on="1"/>
        <pt x="905" y="1065" on="0"/>
        <pt x="862" y="1049" on="1"/>
        <pt x="782" y="1022" on="1"/>
        <pt x="763" y="1014" on="0"/>
        <pt x="745" y="1032" on="0"/>
        <pt x="747" y="1055" on="1"/>
        <pt x="749" y="1327" on="0"/>
        <pt x="505" y="1346" on="0"/>
        <pt x="305" y="1016" on="0"/>
        <pt x="260" y="862" on="1"/>
        <pt x="821" y="862" on="1"/>
        <pt x="856" y="862" on="0"/>
        <pt x="847" y="827" on="1"/>
        <pt x="841" y="799" on="1"/>
        <pt x="835" y="764" on="0"/>
        <pt x="798" y="764" on="1"/>
        <pt x="231" y="764" on="1"/>
        <pt x="217" y="713" on="0"/>
        <pt x="206" y="657" on="1"/>
        <pt x="729" y="657" on="1"/>
        <pt x="759" y="657" on="0"/>
        <pt x="780" y="639" on="0"/>
        <pt x="772" y="612" on="1"/>
        <pt x="765" y="590" on="1"/>
        <pt x="761" y="571" on="0"/>
        <pt x="743" y="559" on="0"/>
        <pt x="722" y="559" on="1"/>
        <pt x="192" y="559" on="1"/>
        <pt x="171" y="379" on="0"/>
        <pt x="229" y="133" on="0"/>
        <pt x="389" y="133" on="0"/>
        <pt x="524" y="268" on="0"/>
        <pt x="561" y="373" on="1"/>
        <pt x="571" y="406" on="0"/>
        <pt x="597" y="416" on="0"/>
        <pt x="636" y="408" on="1"/>
        <pt x="686" y="395" on="1"/>
        <pt x="718" y="391" on="0"/>
        <pt x="712" y="362" on="1"/>
        <pt x="710" y="350" on="0"/>
        <pt x="702" y="328" on="1"/>
        <pt x="626" y="127" on="0"/>
        <pt x="397" y="-23" on="0"/>
        <pt x="124" y="25" on="0"/>
        <pt x="-3" y="326" on="0"/>
        <pt x="22" y="559" on="1"/>
        <pt x="-93" y="559" on="1"/>
        <pt x="-130" y="559" on="0"/>
        <pt x="-121" y="592" on="1"/>
        <pt x="-113" y="627" on="1"/>
        <pt x="-107" y="657" on="0"/>
      </contour>
    </TTGlyph>
    <TTGlyph name="F" xMin="-27" yMin="0" xMax="971" yMax="1483">
      <contour>
        <pt x="897" y="1341" on="1"/>
        <pt x="471" y="1341" on="1"/>
        <pt x="326" y="766" on="1"/>
        <pt x="698" y="766" on="1"/>
        <pt x="717" y="766" on="0"/>
        <pt x="731" y="737" on="0"/>
        <pt x="727" y="719" on="1"/>
        <pt x="713" y="668" on="1"/>
        <pt x="703" y="625" on="0"/>
        <pt x="651" y="625" on="1"/>
        <pt x="289" y="625" on="1"/>
        <pt x="141" y="45" on="1"/>
        <pt x="129" y="0" on="0"/>
        <pt x="80" y="0" on="1"/>
        <pt x="21" y="0" on="1"/>
        <pt x="-4" y="0" on="0"/>
        <pt x="-27" y="37" on="0"/>
        <pt x="-20" y="63" on="1"/>
        <pt x="305" y="1341" on="1"/>
        <pt x="225" y="1341" on="1"/>
        <pt x="195" y="1341" on="0"/>
        <pt x="180" y="1360" on="0"/>
        <pt x="189" y="1395" on="1"/>
        <pt x="201" y="1442" on="1"/>
        <pt x="209" y="1468" on="0"/>
        <pt x="227" y="1483" on="0"/>
        <pt x="256" y="1483" on="1"/>
        <pt x="924" y="1483" on="1"/>
        <pt x="952" y="1483" on="0"/>
        <pt x="971" y="1462" on="0"/>
        <pt x="963" y="1432" on="1"/>
        <pt x="948" y="1380" on="1"/>
        <pt x="938" y="1341" on="0"/>
      </contour>
    </TTGlyph>
    <TTGlyph name="G" xMin="7" yMin="-23" xMax="904" yMax="1513">
      <contour>
        <pt x="431" y="696" on="1"/>
        <pt x="804" y="696" on="1"/>
        <pt x="836" y="696" on="0"/>
        <pt x="822" y="651" on="1"/>
        <pt x="705" y="279" on="0"/>
        <pt x="476" y="0" on="0"/>
        <pt x="197" y="-23" on="0"/>
        <pt x="23" y="147" on="0"/>
        <pt x="7" y="608" on="0"/>
        <pt x="152" y="1137" on="0"/>
        <pt x="431" y="1466" on="0"/>
        <pt x="687" y="1513" on="0"/>
        <pt x="828" y="1415" on="0"/>
        <pt x="904" y="1188" on="0"/>
        <pt x="904" y="1073" on="0"/>
        <pt x="863" y="1057" on="1"/>
        <pt x="791" y="1036" on="1"/>
        <pt x="771" y="1032" on="0"/>
        <pt x="744" y="1055" on="0"/>
        <pt x="738" y="1182" on="0"/>
        <pt x="681" y="1315" on="0"/>
        <pt x="634" y="1327" on="1"/>
        <pt x="537" y="1352" on="0"/>
        <pt x="310" y="1055" on="0"/>
        <pt x="187" y="606" on="0"/>
        <pt x="177" y="299" on="0"/>
        <pt x="240" y="131" on="0"/>
        <pt x="384" y="141" on="0"/>
        <pt x="533" y="322" on="0"/>
        <pt x="605" y="557" on="1"/>
        <pt x="408" y="557" on="1"/>
        <pt x="369" y="557" on="0"/>
        <pt x="384" y="614" on="1"/>
        <pt x="400" y="672" on="1"/>
        <pt x="408" y="696" on="0"/>
      </contour>
    </TTGlyph>
    <TTGlyph name="H" xMin="-29" yMin="0" xMax="1149" yMax="1483">
      <contour>
        <pt x="328" y="1438" on="1"/>
        <pt x="340" y="1483" on="0"/>
        <pt x="389" y="1483" on="1"/>
        <pt x="449" y="1483" on="1"/>
        <pt x="473" y="1483" on="0"/>
        <pt x="496" y="1446" on="0"/>
        <pt x="490" y="1419" on="1"/>
        <pt x="348" y="868" on="1"/>
        <pt x="836" y="868" on="1"/>
        <pt x="981" y="1438" on="1"/>
        <pt x="993" y="1483" on="0"/>
        <pt x="1043" y="1483" on="1"/>
        <pt x="1102" y="1483" on="1"/>
        <pt x="1127" y="1483" on="0"/>
        <pt x="1149" y="1446" on="0"/>
        <pt x="1143" y="1419" on="1"/>
        <pt x="793" y="45" on="1"/>
        <pt x="780" y="0" on="0"/>
        <pt x="731" y="0" on="1"/>
        <pt x="672" y="0" on="1"/>
        <pt x="647" y="0" on="0"/>
        <pt x="625" y="37" on="0"/>
        <pt x="631" y="63" on="1"/>
        <pt x="801" y="727" on="1"/>
        <pt x="313" y="727" on="1"/>
        <pt x="139" y="45" on="1"/>
        <pt x="127" y="0" on="0"/>
        <pt x="78" y="0" on="1"/>
        <pt x="19" y="0" on="1"/>
        <pt x="-6" y="0" on="0"/>
        <pt x="-29" y="37" on="0"/>
        <pt x="-22" y="63" on="1"/>
      </contour>
    </TTGlyph>
    <TTGlyph name="I" xMin="-33" yMin="0" xMax="492" yMax="1483">
      <contour>
        <pt x="324" y="1438" on="1"/>
        <pt x="336" y="1483" on="0"/>
        <pt x="385" y="1483" on="1"/>
        <pt x="445" y="1483" on="1"/>
        <pt x="469" y="1483" on="0"/>
        <pt x="492" y="1446" on="0"/>
        <pt x="485" y="1419" on="1"/>
        <pt x="135" y="45" on="1"/>
        <pt x="123" y="0" on="0"/>
        <pt x="74" y="0" on="1"/>
        <pt x="14" y="0" on="1"/>
        <pt x="-10" y="0" on="0"/>
        <pt x="-33" y="37" on="0"/>
        <pt x="-27" y="63" on="1"/>
      </contour>
    </TTGlyph>
    <TTGlyph name="Iacute" xMin="-33" yMin="0" xMax="705" yMax="1876">
      <contour>
        <pt x="324" y="1438" on="1"/>
        <pt x="336" y="1483" on="0"/>
        <pt x="385" y="1483" on="1"/>
        <pt x="445" y="1483" on="1"/>
        <pt x="469" y="1483" on="0"/>
        <pt x="492" y="1446" on="0"/>
        <pt x="485" y="1419" on="1"/>
        <pt x="135" y="45" on="1"/>
        <pt x="123" y="0" on="0"/>
        <pt x="74" y="0" on="1"/>
        <pt x="14" y="0" on="1"/>
        <pt x="-10" y="0" on="0"/>
        <pt x="-33" y="37" on="0"/>
        <pt x="-27" y="63" on="1"/>
      </contour>
      <contour>
        <pt x="672" y="1876" on="1"/>
        <pt x="694" y="1876" on="0"/>
        <pt x="705" y="1849" on="0"/>
        <pt x="686" y="1825" on="1"/>
        <pt x="508" y="1638" on="1"/>
        <pt x="485" y="1614" on="0"/>
        <pt x="451" y="1614" on="1"/>
        <pt x="408" y="1614" on="1"/>
        <pt x="391" y="1614" on="0"/>
        <pt x="383" y="1636" on="0"/>
        <pt x="389" y="1642" on="1"/>
        <pt x="516" y="1841" on="1"/>
        <pt x="539" y="1876" on="0"/>
        <pt x="580" y="1876" on="1"/>
      </contour>
    </TTGlyph>
    <TTGlyph name="Icircumflex" xMin="-33" yMin="0" xMax="639" yMax="1866">
      <contour>
        <pt x="324" y="1438" on="1"/>
        <pt x="336" y="1483" on="0"/>
        <pt x="385" y="1483" on="1"/>
        <pt x="445" y="1483" on="1"/>
        <pt x="469" y="1483" on="0"/>
        <pt x="492" y="1446" on="0"/>
        <pt x="485" y="1419" on="1"/>
        <pt x="135" y="45" on="1"/>
        <pt x="123" y="0" on="0"/>
        <pt x="74" y="0" on="1"/>
        <pt x="14" y="0" on="1"/>
        <pt x="-10" y="0" on="0"/>
        <pt x="-33" y="37" on="0"/>
        <pt x="-27" y="63" on="1"/>
      </contour>
      <contour>
        <pt x="451" y="1755" on="1"/>
        <pt x="322" y="1624" on="1"/>
        <pt x="299" y="1602" on="0"/>
        <pt x="264" y="1602" on="1"/>
        <pt x="215" y="1602" on="1"/>
        <pt x="193" y="1602" on="0"/>
        <pt x="184" y="1632" on="0"/>
        <pt x="203" y="1649" on="1"/>
        <pt x="410" y="1835" on="1"/>
        <pt x="445" y="1866" on="0"/>
        <pt x="461" y="1864" on="1"/>
        <pt x="479" y="1862" on="1"/>
        <pt x="500" y="1860" on="0"/>
        <pt x="520" y="1825" on="1"/>
        <pt x="629" y="1636" on="1"/>
        <pt x="639" y="1622" on="0"/>
        <pt x="627" y="1602" on="0"/>
        <pt x="608" y="1602" on="1"/>
        <pt x="549" y="1602" on="1"/>
        <pt x="516" y="1602" on="0"/>
        <pt x="506" y="1624" on="1"/>
      </contour>
    </TTGlyph>
    <TTGlyph name="Idieresis" xMin="-33" yMin="0" xMax="678" yMax="1862">
      <contour>
        <pt x="295" y="1862" on="1"/>
        <pt x="313" y="1862" on="1"/>
        <pt x="348" y="1862" on="0"/>
        <pt x="406" y="1800" on="0"/>
        <pt x="406" y="1720" on="0"/>
        <pt x="346" y="1663" on="0"/>
        <pt x="301" y="1663" on="1"/>
        <pt x="285" y="1663" on="1"/>
        <pt x="250" y="1663" on="0"/>
        <pt x="195" y="1722" on="0"/>
        <pt x="195" y="1802" on="0"/>
        <pt x="252" y="1862" on="0"/>
      </contour>
      <contour>
        <pt x="567" y="1862" on="1"/>
        <pt x="586" y="1862" on="1"/>
        <pt x="621" y="1862" on="0"/>
        <pt x="678" y="1800" on="0"/>
        <pt x="678" y="1720" on="0"/>
        <pt x="619" y="1663" on="0"/>
        <pt x="574" y="1663" on="1"/>
        <pt x="557" y="1663" on="1"/>
        <pt x="522" y="1663" on="0"/>
        <pt x="467" y="1722" on="0"/>
        <pt x="467" y="1802" on="0"/>
        <pt x="524" y="1862" on="0"/>
      </contour>
      <contour>
        <pt x="324" y="1438" on="1"/>
        <pt x="336" y="1483" on="0"/>
        <pt x="385" y="1483" on="1"/>
        <pt x="445" y="1483" on="1"/>
        <pt x="469" y="1483" on="0"/>
        <pt x="492" y="1446" on="0"/>
        <pt x="485" y="1419" on="1"/>
        <pt x="135" y="45" on="1"/>
        <pt x="123" y="0" on="0"/>
        <pt x="74" y="0" on="1"/>
        <pt x="14" y="0" on="1"/>
        <pt x="-10" y="0" on="0"/>
        <pt x="-33" y="37" on="0"/>
        <pt x="-27" y="63" on="1"/>
      </contour>
    </TTGlyph>
    <TTGlyph name="Igrave" xMin="-6" yMin="0" xMax="518" yMax="1876">
      <contour>
        <pt x="350" y="1438" on="1"/>
        <pt x="363" y="1483" on="0"/>
        <pt x="412" y="1483" on="1"/>
        <pt x="471" y="1483" on="1"/>
        <pt x="496" y="1483" on="0"/>
        <pt x="518" y="1446" on="0"/>
        <pt x="512" y="1419" on="1"/>
        <pt x="162" y="45" on="1"/>
        <pt x="150" y="0" on="0"/>
        <pt x="100" y="0" on="1"/>
        <pt x="41" y="0" on="1"/>
        <pt x="17" y="0" on="0"/>
        <pt x="-6" y="37" on="0"/>
        <pt x="0" y="63" on="1"/>
      </contour>
      <contour>
        <pt x="291" y="1876" on="1"/>
        <pt x="332" y="1876" on="0"/>
        <pt x="354" y="1841" on="1"/>
        <pt x="471" y="1653" on="1"/>
        <pt x="481" y="1636" on="0"/>
        <pt x="463" y="1614" on="0"/>
        <pt x="445" y="1614" on="1"/>
        <pt x="412" y="1614" on="1"/>
        <pt x="381" y="1614" on="0"/>
        <pt x="352" y="1642" on="1"/>
        <pt x="170" y="1833" on="1"/>
        <pt x="156" y="1853" on="0"/>
        <pt x="166" y="1876" on="0"/>
        <pt x="182" y="1876" on="1"/>
      </contour>
    </TTGlyph>
    <TTGlyph name="J" xMin="-258" yMin="-281" xMax="497" yMax="1483">
      <contour>
        <pt x="389" y="1483" on="1"/>
        <pt x="450" y="1483" on="1"/>
        <pt x="475" y="1483" on="0"/>
        <pt x="497" y="1446" on="0"/>
        <pt x="491" y="1421" on="1"/>
        <pt x="149" y="76" on="1"/>
        <pt x="108" y="-82" on="0"/>
        <pt x="-72" y="-242" on="0"/>
        <pt x="-166" y="-268" on="1"/>
        <pt x="-203" y="-281" on="0"/>
        <pt x="-215" y="-256" on="1"/>
        <pt x="-240" y="-209" on="1"/>
        <pt x="-258" y="-172" on="0"/>
        <pt x="-219" y="-154" on="1"/>
        <pt x="-58" y="-80" on="0"/>
        <pt x="-13" y="98" on="1"/>
        <pt x="330" y="1438" on="1"/>
        <pt x="342" y="1483" on="0"/>
      </contour>
    </TTGlyph>
    <TTGlyph name="K" xMin="-33" yMin="0" xMax="1028" yMax="1483">
      <contour>
        <pt x="324" y="1438" on="1"/>
        <pt x="336" y="1483" on="0"/>
        <pt x="385" y="1483" on="1"/>
        <pt x="445" y="1483" on="1"/>
        <pt x="469" y="1483" on="0"/>
        <pt x="492" y="1446" on="0"/>
        <pt x="485" y="1419" on="1"/>
        <pt x="340" y="852" on="1"/>
        <pt x="832" y="1450" on="1"/>
        <pt x="858" y="1483" on="0"/>
        <pt x="899" y="1483" on="1"/>
        <pt x="985" y="1483" on="1"/>
        <pt x="1012" y="1483" on="0"/>
        <pt x="1028" y="1446" on="0"/>
        <pt x="1012" y="1425" on="1"/>
        <pt x="453" y="762" on="1"/>
        <pt x="662" y="61" on="1"/>
        <pt x="680" y="0" on="0"/>
        <pt x="627" y="0" on="1"/>
        <pt x="551" y="0" on="1"/>
        <pt x="522" y="0" on="0"/>
        <pt x="502" y="20" on="0"/>
        <pt x="494" y="51" on="1"/>
        <pt x="301" y="698" on="1"/>
        <pt x="135" y="45" on="1"/>
        <pt x="123" y="0" on="0"/>
        <pt x="74" y="0" on="1"/>
        <pt x="14" y="0" on="1"/>
        <pt x="-10" y="0" on="0"/>
        <pt x="-33" y="37" on="0"/>
        <pt x="-27" y="63" on="1"/>
      </contour>
    </TTGlyph>
    <TTGlyph name="L" xMin="-33" yMin="0" xMax="658" yMax="1483">
      <contour>
        <pt x="574" y="0" on="1"/>
        <pt x="14" y="0" on="1"/>
        <pt x="-10" y="0" on="0"/>
        <pt x="-33" y="37" on="0"/>
        <pt x="-27" y="63" on="1"/>
        <pt x="324" y="1438" on="1"/>
        <pt x="336" y="1483" on="0"/>
        <pt x="385" y="1483" on="1"/>
        <pt x="445" y="1483" on="1"/>
        <pt x="469" y="1483" on="0"/>
        <pt x="492" y="1446" on="0"/>
        <pt x="485" y="1419" on="1"/>
        <pt x="160" y="141" on="1"/>
        <pt x="623" y="141" on="1"/>
        <pt x="641" y="141" on="0"/>
        <pt x="658" y="113" on="0"/>
        <pt x="653" y="94" on="1"/>
        <pt x="639" y="43" on="1"/>
        <pt x="629" y="0" on="0"/>
      </contour>
    </TTGlyph>
    <TTGlyph name="M" xMin="-33" yMin="0" xMax="1229" yMax="1483">
      <contour>
        <pt x="324" y="1438" on="1"/>
        <pt x="336" y="1481" on="0"/>
        <pt x="383" y="1483" on="1"/>
        <pt x="449" y="1483" on="1"/>
        <pt x="492" y="1483" on="0"/>
        <pt x="498" y="1436" on="1"/>
        <pt x="535" y="1051" on="0"/>
        <pt x="543" y="715" on="0"/>
        <pt x="533" y="569" on="1"/>
        <pt x="1057" y="1444" on="1"/>
        <pt x="1079" y="1483" on="0"/>
        <pt x="1118" y="1483" on="1"/>
        <pt x="1182" y="1483" on="1"/>
        <pt x="1208" y="1483" on="0"/>
        <pt x="1229" y="1444" on="0"/>
        <pt x="1223" y="1419" on="1"/>
        <pt x="873" y="45" on="1"/>
        <pt x="860" y="0" on="0"/>
        <pt x="811" y="0" on="1"/>
        <pt x="752" y="0" on="1"/>
        <pt x="727" y="0" on="0"/>
        <pt x="705" y="37" on="0"/>
        <pt x="711" y="63" on="1"/>
        <pt x="946" y="985" on="1"/>
        <pt x="860" y="836" on="0"/>
        <pt x="623" y="465" on="0"/>
        <pt x="586" y="406" on="1"/>
        <pt x="535" y="322" on="0"/>
        <pt x="483" y="326" on="1"/>
        <pt x="442" y="328" on="1"/>
        <pt x="385" y="332" on="0"/>
        <pt x="391" y="410" on="1"/>
        <pt x="406" y="633" on="0"/>
        <pt x="381" y="1006" on="1"/>
        <pt x="135" y="45" on="1"/>
        <pt x="123" y="0" on="0"/>
        <pt x="74" y="0" on="1"/>
        <pt x="14" y="0" on="1"/>
        <pt x="-10" y="0" on="0"/>
        <pt x="-33" y="37" on="0"/>
        <pt x="-27" y="63" on="1"/>
      </contour>
    </TTGlyph>
    <TTGlyph name="N" xMin="-33" yMin="0" xMax="1116" yMax="1483">
      <contour>
        <pt x="324" y="1438" on="1"/>
        <pt x="336" y="1481" on="0"/>
        <pt x="383" y="1483" on="1"/>
        <pt x="445" y="1483" on="1"/>
        <pt x="467" y="1483" on="0"/>
        <pt x="494" y="1452" on="0"/>
        <pt x="498" y="1419" on="1"/>
        <pt x="680" y="383" on="1"/>
        <pt x="948" y="1438" on="1"/>
        <pt x="961" y="1483" on="0"/>
        <pt x="1010" y="1483" on="1"/>
        <pt x="1069" y="1483" on="1"/>
        <pt x="1094" y="1483" on="0"/>
        <pt x="1116" y="1446" on="0"/>
        <pt x="1110" y="1419" on="1"/>
        <pt x="760" y="45" on="1"/>
        <pt x="748" y="0" on="0"/>
        <pt x="698" y="0" on="1"/>
        <pt x="625" y="0" on="1"/>
        <pt x="610" y="0" on="0"/>
        <pt x="590" y="18" on="0"/>
        <pt x="584" y="63" on="1"/>
        <pt x="404" y="1096" on="1"/>
        <pt x="135" y="45" on="1"/>
        <pt x="123" y="0" on="0"/>
        <pt x="74" y="0" on="1"/>
        <pt x="14" y="0" on="1"/>
        <pt x="-10" y="0" on="0"/>
        <pt x="-33" y="37" on="0"/>
        <pt x="-27" y="63" on="1"/>
      </contour>
    </TTGlyph>
    <TTGlyph name="Ntilde" xMin="506" yMin="1571" xMax="1160" yMax="1796">
      <component glyphName="tilde" x="262" y="500" flags="0x1004"/>
    </TTGlyph>
    <TTGlyph name="O" xMin="14" yMin="-12" xMax="932" yMax="1499">
      <contour>
        <pt x="14" y="444" on="1"/>
        <pt x="14" y="631" on="0"/>
        <pt x="125" y="1001" on="0"/>
        <pt x="283" y="1294" on="0"/>
        <pt x="516" y="1499" on="0"/>
        <pt x="641" y="1499" on="1"/>
        <pt x="727" y="1499" on="0"/>
        <pt x="819" y="1442" on="1"/>
        <pt x="883" y="1403" on="0"/>
        <pt x="932" y="1235" on="0"/>
        <pt x="932" y="907" on="0"/>
        <pt x="860" y="635" on="1"/>
        <pt x="795" y="383" on="0"/>
        <pt x="668" y="197" on="1"/>
        <pt x="600" y="100" on="0"/>
        <pt x="414" y="-8" on="0"/>
        <pt x="240" y="-12" on="0"/>
        <pt x="160" y="31" on="1"/>
        <pt x="14" y="106" on="0"/>
      </contour>
      <contour>
        <pt x="242" y="788" on="1"/>
        <pt x="184" y="598" on="0"/>
        <pt x="182" y="287" on="0"/>
        <pt x="256" y="129" on="0"/>
        <pt x="315" y="129" on="1"/>
        <pt x="424" y="129" on="0"/>
        <pt x="506" y="236" on="1"/>
        <pt x="606" y="375" on="0"/>
        <pt x="698" y="674" on="1"/>
        <pt x="782" y="961" on="0"/>
        <pt x="739" y="1331" on="0"/>
        <pt x="633" y="1331" on="1"/>
        <pt x="520" y="1331" on="0"/>
        <pt x="432" y="1217" on="1"/>
        <pt x="324" y="1073" on="0"/>
      </contour>
    </TTGlyph>
    <TTGlyph name="Oacute" xMin="14" yMin="-12" xMax="989" yMax="1876">
      <component glyphName="O" x="0" y="0" flags="0x1204"/>
      <component glyphName="acute" x="541" y="446" flags="0x1004"/>
    </TTGlyph>
    <TTGlyph name="Ocircumflex" xMin="14" yMin="-12" xMax="932" yMax="1866">
      <component glyphName="O" x="0" y="0" flags="0x1004"/>
      <component glyphName="circumflex" x="301" y="383" flags="0x1004"/>
    </TTGlyph>
    <TTGlyph name="Odieresis" xMin="14" yMin="-12" xMax="945" yMax="1864">
      <component glyphName="O" x="0" y="0" flags="0x1004"/>
      <component glyphName="dieresis" x="109" y="430" flags="0x1004"/>
    </TTGlyph>
    <TTGlyph name="Ograve" xMin="14" yMin="-12" xMax="932" yMax="1876">
      <component glyphName="O" x="0" y="0" flags="0x1204"/>
      <component glyphName="grave" x="309" y="446" flags="0x1004"/>
    </TTGlyph>
    <TTGlyph name="Oslash" xMin="-110" yMin="-12" xMax="1134" yMax="1499">
      <contour>
        <pt x="22" y="444" on="1"/>
        <pt x="22" y="631" on="0"/>
        <pt x="132" y="1001" on="0"/>
        <pt x="290" y="1294" on="0"/>
        <pt x="523" y="1499" on="0"/>
        <pt x="648" y="1499" on="1"/>
        <pt x="734" y="1499" on="0"/>
        <pt x="867" y="1415" on="0"/>
        <pt x="894" y="1370" on="1"/>
        <pt x="974" y="1468" on="1"/>
        <pt x="994" y="1491" on="0"/>
        <pt x="1019" y="1499" on="0"/>
        <pt x="1050" y="1485" on="1"/>
        <pt x="1080" y="1464" on="1"/>
        <pt x="1134" y="1430" on="0"/>
        <pt x="1105" y="1395" on="1"/>
        <pt x="935" y="1188" on="1"/>
        <pt x="939" y="1137" on="0"/>
        <pt x="939" y="1071" on="1"/>
        <pt x="939" y="889" on="0"/>
        <pt x="802" y="383" on="0"/>
        <pt x="675" y="197" on="1"/>
        <pt x="607" y="100" on="0"/>
        <pt x="421" y="-8" on="0"/>
        <pt x="247" y="-12" on="0"/>
        <pt x="114" y="61" on="0"/>
        <pt x="69" y="141" on="1"/>
        <pt x="26" y="88" on="1"/>
        <pt x="-19" y="35" on="0"/>
        <pt x="-44" y="55" on="1"/>
        <pt x="-85" y="88" on="1"/>
        <pt x="-107" y="106" on="0"/>
        <pt x="-110" y="137" on="0"/>
        <pt x="-83" y="172" on="1"/>
        <pt x="28" y="307" on="1"/>
        <pt x="22" y="369" on="0"/>
      </contour>
      <contour>
        <pt x="200" y="299" on="1"/>
        <pt x="222" y="129" on="0"/>
        <pt x="329" y="129" on="1"/>
        <pt x="431" y="129" on="0"/>
        <pt x="529" y="256" on="1"/>
        <pt x="613" y="375" on="0"/>
        <pt x="757" y="817" on="0"/>
        <pt x="769" y="987" on="1"/>
      </contour>
      <contour>
        <pt x="249" y="788" on="1"/>
        <pt x="204" y="639" on="0"/>
        <pt x="192" y="510" on="1"/>
        <pt x="757" y="1204" on="1"/>
        <pt x="728" y="1331" on="0"/>
        <pt x="640" y="1331" on="1"/>
        <pt x="527" y="1331" on="0"/>
        <pt x="439" y="1217" on="1"/>
        <pt x="331" y="1073" on="0"/>
      </contour>
    </TTGlyph>
    <TTGlyph name="Otilde" xMin="14" yMin="-12" xMax="1000" yMax="1796">
      <component glyphName="O" x="0" y="0" flags="0x1204"/>
      <component glyphName="tilde" x="102" y="500" flags="0x1004"/>
    </TTGlyph>
    <TTGlyph name="P" xMin="-29" yMin="0" xMax="909" yMax="1483">
      <contour>
        <pt x="250" y="1483" on="1"/>
        <pt x="572" y="1483" on="1"/>
        <pt x="737" y="1483" on="0"/>
        <pt x="905" y="1343" on="0"/>
        <pt x="909" y="1071" on="0"/>
        <pt x="805" y="784" on="0"/>
        <pt x="617" y="649" on="0"/>
        <pt x="391" y="614" on="0"/>
        <pt x="285" y="612" on="1"/>
        <pt x="139" y="45" on="1"/>
        <pt x="127" y="0" on="0"/>
        <pt x="78" y="0" on="1"/>
        <pt x="19" y="0" on="1"/>
        <pt x="-6" y="0" on="0"/>
        <pt x="-29" y="37" on="0"/>
        <pt x="-22" y="63" on="1"/>
        <pt x="303" y="1343" on="1"/>
        <pt x="252" y="1343" on="0"/>
        <pt x="209" y="1343" on="0"/>
        <pt x="184" y="1378" on="0"/>
        <pt x="191" y="1401" on="1"/>
        <pt x="203" y="1442" on="1"/>
        <pt x="207" y="1458" on="0"/>
        <pt x="236" y="1483" on="0"/>
      </contour>
      <contour>
        <pt x="469" y="1341" on="1"/>
        <pt x="320" y="754" on="1"/>
        <pt x="434" y="760" on="1"/>
        <pt x="598" y="772" on="0"/>
        <pt x="701" y="956" on="0"/>
        <pt x="741" y="1149" on="0"/>
        <pt x="741" y="1212" on="1"/>
        <pt x="741" y="1333" on="0"/>
        <pt x="602" y="1339" on="1"/>
        <pt x="578" y="1341" on="0"/>
      </contour>
    </TTGlyph>
    <TTGlyph name="Q" xMin="3" yMin="-219" xMax="930" yMax="1499">
      <contour>
        <pt x="146" y="-100" on="1"/>
        <pt x="160" y="-53" on="1"/>
        <pt x="169" y="-12" on="0"/>
        <pt x="228" y="2" on="1"/>
        <pt x="189" y="14" on="0"/>
        <pt x="156" y="31" on="1"/>
        <pt x="25" y="113" on="0"/>
        <pt x="3" y="623" on="0"/>
        <pt x="132" y="1016" on="0"/>
        <pt x="283" y="1300" on="0"/>
        <pt x="517" y="1499" on="0"/>
        <pt x="717" y="1499" on="0"/>
        <pt x="881" y="1405" on="0"/>
        <pt x="928" y="1235" on="0"/>
        <pt x="930" y="907" on="0"/>
        <pt x="797" y="410" on="0"/>
        <pt x="691" y="238" on="1"/>
        <pt x="572" y="45" on="0"/>
        <pt x="396" y="2" on="1"/>
        <pt x="412" y="-4" on="0"/>
        <pt x="427" y="-10" on="1"/>
        <pt x="541" y="-66" on="0"/>
        <pt x="672" y="-10" on="1"/>
        <pt x="693" y="-2" on="0"/>
        <pt x="715" y="-37" on="0"/>
        <pt x="709" y="-63" on="1"/>
        <pt x="697" y="-115" on="1"/>
        <pt x="691" y="-150" on="0"/>
        <pt x="656" y="-164" on="1"/>
        <pt x="537" y="-219" on="0"/>
        <pt x="308" y="-106" on="0"/>
        <pt x="177" y="-164" on="1"/>
        <pt x="154" y="-172" on="0"/>
        <pt x="138" y="-137" on="0"/>
      </contour>
      <contour>
        <pt x="238" y="788" on="1"/>
        <pt x="183" y="598" on="0"/>
        <pt x="179" y="287" on="0"/>
        <pt x="255" y="123" on="0"/>
        <pt x="429" y="137" on="0"/>
        <pt x="601" y="369" on="0"/>
        <pt x="781" y="961" on="0"/>
        <pt x="736" y="1331" on="0"/>
        <pt x="515" y="1331" on="0"/>
        <pt x="320" y="1073" on="0"/>
      </contour>
    </TTGlyph>
    <TTGlyph name="R" xMin="-29" yMin="0" xMax="909" yMax="1483">
      <contour>
        <pt x="303" y="1341" on="1"/>
        <pt x="252" y="1341" on="0"/>
        <pt x="211" y="1341" on="0"/>
        <pt x="186" y="1376" on="0"/>
        <pt x="193" y="1399" on="1"/>
        <pt x="203" y="1442" on="1"/>
        <pt x="207" y="1458" on="0"/>
        <pt x="238" y="1483" on="0"/>
        <pt x="250" y="1483" on="1"/>
        <pt x="598" y="1483" on="1"/>
        <pt x="739" y="1483" on="0"/>
        <pt x="909" y="1341" on="0"/>
        <pt x="909" y="1067" on="0"/>
        <pt x="858" y="946" on="1"/>
        <pt x="770" y="739" on="0"/>
        <pt x="574" y="676" on="1"/>
        <pt x="668" y="70" on="1"/>
        <pt x="678" y="0" on="0"/>
        <pt x="623" y="0" on="1"/>
        <pt x="553" y="0" on="1"/>
        <pt x="526" y="0" on="0"/>
        <pt x="502" y="33" on="0"/>
        <pt x="498" y="72" on="1"/>
        <pt x="420" y="651" on="1"/>
        <pt x="293" y="649" on="1"/>
        <pt x="139" y="45" on="1"/>
        <pt x="127" y="0" on="0"/>
        <pt x="78" y="0" on="1"/>
        <pt x="19" y="0" on="1"/>
        <pt x="-6" y="0" on="0"/>
        <pt x="-29" y="37" on="0"/>
        <pt x="-22" y="63" on="1"/>
      </contour>
      <contour>
        <pt x="469" y="1339" on="1"/>
        <pt x="330" y="788" on="1"/>
        <pt x="457" y="795" on="1"/>
        <pt x="596" y="801" on="0"/>
        <pt x="741" y="1024" on="0"/>
        <pt x="741" y="1212" on="1"/>
        <pt x="741" y="1266" on="0"/>
        <pt x="672" y="1333" on="0"/>
        <pt x="567" y="1339" on="0"/>
      </contour>
    </TTGlyph>
    <TTGlyph name="S" xMin="48" yMin="-33" xMax="910" yMax="1505">
      <contour>
        <pt x="910" y="1083" on="1"/>
        <pt x="910" y="1032" on="0"/>
        <pt x="875" y="1022" on="1"/>
        <pt x="803" y="999" on="1"/>
        <pt x="787" y="993" on="0"/>
        <pt x="754" y="1016" on="0"/>
        <pt x="754" y="1042" on="1"/>
        <pt x="754" y="1313" on="0"/>
        <pt x="666" y="1354" on="1"/>
        <pt x="625" y="1374" on="0"/>
        <pt x="576" y="1352" on="1"/>
        <pt x="512" y="1319" on="0"/>
        <pt x="394" y="1110" on="0"/>
        <pt x="390" y="977" on="1"/>
        <pt x="388" y="924" on="0"/>
        <pt x="428" y="864" on="0"/>
        <pt x="486" y="846" on="1"/>
        <pt x="570" y="817" on="1"/>
        <pt x="689" y="776" on="0"/>
        <pt x="764" y="668" on="0"/>
        <pt x="762" y="563" on="1"/>
        <pt x="760" y="342" on="0"/>
        <pt x="476" y="-31" on="0"/>
        <pt x="293" y="-33" on="1"/>
        <pt x="52" y="-33" on="0"/>
        <pt x="52" y="360" on="1"/>
        <pt x="48" y="442" on="0"/>
        <pt x="82" y="453" on="1"/>
        <pt x="158" y="477" on="1"/>
        <pt x="179" y="485" on="0"/>
        <pt x="205" y="463" on="0"/>
        <pt x="205" y="438" on="1"/>
        <pt x="203" y="131" on="0"/>
        <pt x="287" y="92" on="1"/>
        <pt x="318" y="86" on="0"/>
        <pt x="367" y="106" on="1"/>
        <pt x="451" y="143" on="0"/>
        <pt x="580" y="373" on="0"/>
        <pt x="603" y="592" on="0"/>
        <pt x="553" y="662" on="0"/>
        <pt x="449" y="694" on="1"/>
        <pt x="363" y="721" on="1"/>
        <pt x="306" y="739" on="0"/>
        <pt x="222" y="834" on="0"/>
        <pt x="222" y="905" on="1"/>
        <pt x="222" y="1032" on="0"/>
        <pt x="330" y="1305" on="0"/>
        <pt x="543" y="1505" on="0"/>
        <pt x="799" y="1505" on="0"/>
        <pt x="910" y="1288" on="0"/>
      </contour>
    </TTGlyph>
    <TTGlyph name="Scaron" xMin="34" yMin="-33" xMax="955" yMax="1906">
      <component glyphName="S" x="-14" y="0" flags="0x1004"/>
      <component glyphName="caron" x="344" y="446" flags="0x1004"/>
    </TTGlyph>
    <TTGlyph name="T" xMin="128" yMin="0" xMax="1080" yMax="1483">
      <contour>
        <pt x="992" y="1335" on="1"/>
        <pt x="679" y="1335" on="1"/>
        <pt x="349" y="45" on="1"/>
        <pt x="337" y="0" on="0"/>
        <pt x="287" y="0" on="1"/>
        <pt x="228" y="0" on="1"/>
        <pt x="203" y="0" on="0"/>
        <pt x="181" y="37" on="0"/>
        <pt x="187" y="63" on="1"/>
        <pt x="511" y="1335" on="1"/>
        <pt x="187" y="1335" on="1"/>
        <pt x="128" y="1335" on="0"/>
        <pt x="142" y="1382" on="1"/>
        <pt x="156" y="1442" on="1"/>
        <pt x="163" y="1468" on="0"/>
        <pt x="187" y="1483" on="0"/>
        <pt x="218" y="1483" on="1"/>
        <pt x="1017" y="1483" on="1"/>
        <pt x="1080" y="1483" on="0"/>
        <pt x="1066" y="1425" on="1"/>
        <pt x="1055" y="1378" on="1"/>
        <pt x="1047" y="1335" on="0"/>
      </contour>
    </TTGlyph>
    <TTGlyph name="Thorn" xMin="-27" yMin="0" xMax="924" yMax="1483">
      <contour>
        <pt x="330" y="1438" on="1"/>
        <pt x="342" y="1483" on="0"/>
        <pt x="391" y="1483" on="1"/>
        <pt x="451" y="1483" on="1"/>
        <pt x="475" y="1483" on="0"/>
        <pt x="498" y="1446" on="0"/>
        <pt x="492" y="1419" on="1"/>
        <pt x="471" y="1341" on="1"/>
        <pt x="582" y="1341" on="1"/>
        <pt x="748" y="1341" on="0"/>
        <pt x="924" y="1196" on="0"/>
        <pt x="914" y="911" on="0"/>
        <pt x="821" y="662" on="0"/>
        <pt x="750" y="598" on="1"/>
        <pt x="600" y="465" on="0"/>
        <pt x="250" y="471" on="1"/>
        <pt x="141" y="45" on="1"/>
        <pt x="129" y="0" on="0"/>
        <pt x="80" y="0" on="1"/>
        <pt x="21" y="0" on="1"/>
        <pt x="-4" y="0" on="0"/>
        <pt x="-27" y="37" on="0"/>
        <pt x="-20" y="63" on="1"/>
      </contour>
      <contour>
        <pt x="445" y="618" on="1"/>
        <pt x="608" y="627" on="0"/>
        <pt x="670" y="741" on="1"/>
        <pt x="701" y="793" on="0"/>
        <pt x="752" y="985" on="0"/>
        <pt x="752" y="1071" on="1"/>
        <pt x="752" y="1192" on="0"/>
        <pt x="612" y="1198" on="1"/>
        <pt x="551" y="1200" on="0"/>
        <pt x="436" y="1202" on="1"/>
        <pt x="285" y="610" on="1"/>
      </contour>
    </TTGlyph>
    <TTGlyph name="U" xMin="-59" yMin="-14" xMax="1029" yMax="1483">
      <contour>
        <pt x="295" y="-14" on="1"/>
        <pt x="156" y="-12" on="0"/>
        <pt x="84" y="59" on="1"/>
        <pt x="-59" y="209" on="0"/>
        <pt x="35" y="571" on="1"/>
        <pt x="256" y="1438" on="1"/>
        <pt x="269" y="1483" on="0"/>
        <pt x="318" y="1483" on="1"/>
        <pt x="377" y="1483" on="1"/>
        <pt x="402" y="1483" on="0"/>
        <pt x="424" y="1446" on="0"/>
        <pt x="418" y="1419" on="1"/>
        <pt x="187" y="506" on="1"/>
        <pt x="89" y="119" on="0"/>
        <pt x="326" y="119" on="1"/>
        <pt x="424" y="119" on="0"/>
        <pt x="578" y="283" on="0"/>
        <pt x="627" y="483" on="1"/>
        <pt x="871" y="1438" on="1"/>
        <pt x="883" y="1483" on="0"/>
        <pt x="932" y="1483" on="1"/>
        <pt x="984" y="1483" on="1"/>
        <pt x="1008" y="1483" on="0"/>
        <pt x="1029" y="1446" on="0"/>
        <pt x="1022" y="1419" on="1"/>
        <pt x="783" y="469" on="1"/>
        <pt x="717" y="205" on="0"/>
        <pt x="596" y="98" on="1"/>
        <pt x="547" y="51" on="0"/>
        <pt x="396" y="-14" on="0"/>
      </contour>
    </TTGlyph>
    <TTGlyph name="Uacute" xMin="-59" yMin="-14" xMax="1029" yMax="1876">
      <component glyphName="U" x="0" y="0" flags="0x1204"/>
      <component glyphName="acute" x="508" y="446" flags="0x1004"/>
    </TTGlyph>
    <TTGlyph name="Ucircumflex" xMin="-59" yMin="-14" xMax="1029" yMax="1866">
      <component glyphName="U" x="0" y="0" flags="0x1204"/>
      <component glyphName="circumflex" x="332" y="383" flags="0x1004"/>
    </TTGlyph>
    <TTGlyph name="Udieresis" xMin="-59" yMin="-14" xMax="1029" yMax="1864">
      <component glyphName="U" x="0" y="0" flags="0x1204"/>
      <component glyphName="dieresis" x="160" y="430" flags="0x1004"/>
    </TTGlyph>
    <TTGlyph name="Ugrave" xMin="-59" yMin="-14" xMax="1029" yMax="1876">
      <component glyphName="U" x="0" y="0" flags="0x1204"/>
      <component glyphName="grave" x="301" y="446" flags="0x1004"/>
    </TTGlyph>
    <TTGlyph name="V" xMin="115" yMin="-4" xMax="1096" yMax="1487">
      <contour>
        <pt x="285" y="178" on="1"/>
        <pt x="906" y="1440" on="1"/>
        <pt x="928" y="1487" on="0"/>
        <pt x="984" y="1481" on="1"/>
        <pt x="1029" y="1477" on="1"/>
        <pt x="1096" y="1470" on="0"/>
        <pt x="1072" y="1399" on="1"/>
        <pt x="388" y="82" on="1"/>
        <pt x="351" y="4" on="0"/>
        <pt x="265" y="0" on="1"/>
        <pt x="201" y="-2" on="1"/>
        <pt x="160" y="-4" on="0"/>
        <pt x="115" y="59" on="0"/>
        <pt x="119" y="111" on="1"/>
        <pt x="191" y="1434" on="1"/>
        <pt x="197" y="1479" on="0"/>
        <pt x="253" y="1479" on="1"/>
        <pt x="322" y="1479" on="1"/>
        <pt x="375" y="1479" on="0"/>
        <pt x="369" y="1423" on="1"/>
      </contour>
    </TTGlyph>
    <TTGlyph name="W" xMin="57" yMin="0" xMax="1505" yMax="1483">
      <contour>
        <pt x="431" y="1483" on="1"/>
        <pt x="487" y="1479" on="0"/>
        <pt x="448" y="1403" on="1"/>
        <pt x="362" y="1245" on="0"/>
        <pt x="221" y="510" on="0"/>
        <pt x="270" y="260" on="1"/>
        <pt x="425" y="430" on="0"/>
        <pt x="698" y="1030" on="0"/>
        <pt x="745" y="1262" on="1"/>
        <pt x="749" y="1266" on="1"/>
        <pt x="767" y="1356" on="0"/>
        <pt x="788" y="1430" on="1"/>
        <pt x="806" y="1483" on="0"/>
        <pt x="859" y="1483" on="1"/>
        <pt x="933" y="1483" on="1"/>
        <pt x="982" y="1483" on="0"/>
        <pt x="960" y="1421" on="1"/>
        <pt x="878" y="1180" on="0"/>
        <pt x="816" y="508" on="0"/>
        <pt x="880" y="238" on="1"/>
        <pt x="1066" y="449" on="0"/>
        <pt x="1318" y="1159" on="0"/>
        <pt x="1331" y="1434" on="1"/>
        <pt x="1333" y="1462" on="0"/>
        <pt x="1345" y="1483" on="0"/>
        <pt x="1371" y="1483" on="1"/>
        <pt x="1453" y="1483" on="1"/>
        <pt x="1486" y="1483" on="0"/>
        <pt x="1505" y="1462" on="0"/>
        <pt x="1503" y="1432" on="1"/>
        <pt x="1492" y="1214" on="0"/>
        <pt x="1333" y="668" on="0"/>
        <pt x="1021" y="131" on="0"/>
        <pt x="831" y="0" on="1"/>
        <pt x="806" y="0" on="1"/>
        <pt x="769" y="0" on="0"/>
        <pt x="755" y="41" on="1"/>
        <pt x="677" y="266" on="0"/>
        <pt x="685" y="666" on="1"/>
        <pt x="612" y="489" on="0"/>
        <pt x="358" y="123" on="0"/>
        <pt x="247" y="0" on="1"/>
        <pt x="196" y="0" on="1"/>
        <pt x="159" y="0" on="0"/>
        <pt x="145" y="41" on="1"/>
        <pt x="57" y="317" on="0"/>
        <pt x="145" y="1157" on="0"/>
        <pt x="286" y="1454" on="1"/>
        <pt x="300" y="1483" on="0"/>
        <pt x="341" y="1483" on="1"/>
      </contour>
    </TTGlyph>
    <TTGlyph name="X" xMin="-123" yMin="0" xMax="955" yMax="1485">
      <contour>
        <pt x="496" y="684" on="1"/>
        <pt x="631" y="66" on="1"/>
        <pt x="637" y="39" on="0"/>
        <pt x="619" y="0" on="0"/>
        <pt x="594" y="0" on="1"/>
        <pt x="518" y="0" on="1"/>
        <pt x="467" y="0" on="0"/>
        <pt x="453" y="70" on="1"/>
        <pt x="367" y="582" on="1"/>
        <pt x="101" y="47" on="1"/>
        <pt x="80" y="0" on="0"/>
        <pt x="27" y="0" on="1"/>
        <pt x="-49" y="0" on="1"/>
        <pt x="-123" y="0" on="0"/>
        <pt x="-82" y="86" on="1"/>
        <pt x="305" y="780" on="1"/>
        <pt x="172" y="1403" on="1"/>
        <pt x="150" y="1485" on="0"/>
        <pt x="226" y="1485" on="1"/>
        <pt x="275" y="1485" on="1"/>
        <pt x="342" y="1485" on="0"/>
        <pt x="353" y="1415" on="1"/>
        <pt x="445" y="881" on="1"/>
        <pt x="736" y="1450" on="1"/>
        <pt x="752" y="1485" on="0"/>
        <pt x="803" y="1485" on="1"/>
        <pt x="869" y="1485" on="1"/>
        <pt x="955" y="1485" on="0"/>
        <pt x="908" y="1399" on="1"/>
      </contour>
    </TTGlyph>
    <TTGlyph name="Y" xMin="146" yMin="0" xMax="1000" yMax="1491">
      <contour>
        <pt x="424" y="768" on="1"/>
        <pt x="615" y="1053" on="0"/>
        <pt x="772" y="1325" on="0"/>
        <pt x="834" y="1456" on="1"/>
        <pt x="848" y="1487" on="0"/>
        <pt x="895" y="1483" on="1"/>
        <pt x="959" y="1475" on="1"/>
        <pt x="981" y="1473" on="0"/>
        <pt x="1000" y="1434" on="0"/>
        <pt x="983" y="1401" on="1"/>
        <pt x="748" y="989" on="0"/>
        <pt x="453" y="596" on="1"/>
        <pt x="313" y="45" on="1"/>
        <pt x="301" y="0" on="0"/>
        <pt x="252" y="0" on="1"/>
        <pt x="193" y="0" on="1"/>
        <pt x="168" y="0" on="0"/>
        <pt x="146" y="37" on="0"/>
        <pt x="152" y="63" on="1"/>
        <pt x="295" y="629" on="1"/>
        <pt x="295" y="764" on="0"/>
        <pt x="232" y="1262" on="0"/>
        <pt x="199" y="1391" on="1"/>
        <pt x="186" y="1427" on="0"/>
        <pt x="213" y="1479" on="0"/>
        <pt x="244" y="1481" on="1"/>
        <pt x="301" y="1489" on="1"/>
        <pt x="330" y="1491" on="0"/>
        <pt x="354" y="1473" on="0"/>
        <pt x="361" y="1440" on="1"/>
        <pt x="424" y="1059" on="0"/>
      </contour>
    </TTGlyph>
    <TTGlyph name="Yacute" xMin="146" yMin="0" xMax="1000" yMax="1876">
      <component glyphName="Y" x="0" y="0" flags="0x1204"/>
      <component glyphName="acute" x="406" y="446" flags="0x1004"/>
    </TTGlyph>
    <TTGlyph name="Ydieresis" xMin="146" yMin="0" xMax="1000" yMax="1864">
      <component glyphName="Y" x="0" y="0" flags="0x1204"/>
      <component glyphName="dieresis" x="53" y="430" flags="0x1004"/>
    </TTGlyph>
    <TTGlyph name="Z" xMin="-71" yMin="0" xMax="1025" yMax="1485">
      <contour>
        <pt x="310" y="1483" on="1"/>
        <pt x="977" y="1483" on="1"/>
        <pt x="1025" y="1483" on="0"/>
        <pt x="1016" y="1440" on="1"/>
        <pt x="1004" y="1380" on="1"/>
        <pt x="996" y="1333" on="0"/>
        <pt x="947" y="1335" on="1"/>
        <pt x="939" y="1335" on="1"/>
        <pt x="154" y="147" on="1"/>
        <pt x="642" y="147" on="1"/>
        <pt x="701" y="147" on="0"/>
        <pt x="689" y="92" on="1"/>
        <pt x="678" y="45" on="1"/>
        <pt x="666" y="0" on="0"/>
        <pt x="611" y="0" on="1"/>
        <pt x="9" y="0" on="1"/>
        <pt x="-42" y="0" on="0"/>
        <pt x="-71" y="55" on="0"/>
        <pt x="-55" y="94" on="1"/>
        <pt x="760" y="1335" on="1"/>
        <pt x="304" y="1335" on="1"/>
        <pt x="246" y="1335" on="0"/>
        <pt x="259" y="1389" on="1"/>
        <pt x="277" y="1454" on="1"/>
        <pt x="283" y="1485" on="0"/>
      </contour>
    </TTGlyph>
    <TTGlyph name="Zcaron" xMin="-65" yMin="0" xMax="1031" yMax="1906">
      <component glyphName="Z" x="6" y="0" flags="0x1004"/>
      <component glyphName="caron" x="293" y="446" flags="0x1004"/>
    </TTGlyph>
    <TTGlyph name="a" xMin="-4" yMin="-12" xMax="766" yMax="1049">
      <contour>
        <pt x="597" y="999" on="1"/>
        <pt x="605" y="1047" on="0"/>
        <pt x="644" y="1047" on="1"/>
        <pt x="691" y="1049" on="1"/>
        <pt x="766" y="1047" on="0"/>
        <pt x="746" y="975" on="1"/>
        <pt x="500" y="156" on="1"/>
        <pt x="564" y="203" on="0"/>
        <pt x="627" y="291" on="1"/>
        <pt x="650" y="324" on="0"/>
        <pt x="678" y="305" on="1"/>
        <pt x="728" y="272" on="1"/>
        <pt x="760" y="250" on="0"/>
        <pt x="738" y="221" on="1"/>
        <pt x="654" y="123" on="0"/>
        <pt x="513" y="14" on="0"/>
        <pt x="416" y="-8" on="1"/>
        <pt x="388" y="-12" on="0"/>
        <pt x="379" y="14" on="1"/>
        <pt x="341" y="127" on="1"/>
        <pt x="283" y="51" on="0"/>
        <pt x="201" y="-6" on="0"/>
        <pt x="179" y="-6" on="1"/>
        <pt x="175" y="-6" on="1"/>
        <pt x="158" y="-6" on="0"/>
        <pt x="91" y="41" on="0"/>
        <pt x="25" y="117" on="0"/>
        <pt x="-4" y="207" on="0"/>
        <pt x="29" y="444" on="0"/>
        <pt x="183" y="870" on="0"/>
        <pt x="345" y="1038" on="0"/>
        <pt x="467" y="1036" on="1"/>
        <pt x="535" y="1036" on="0"/>
      </contour>
      <contour>
        <pt x="566" y="885" on="1"/>
        <pt x="457" y="946" on="0"/>
        <pt x="320" y="829" on="0"/>
        <pt x="189" y="469" on="0"/>
        <pt x="150" y="264" on="0"/>
        <pt x="156" y="190" on="0"/>
        <pt x="222" y="156" on="0"/>
        <pt x="375" y="324" on="0"/>
        <pt x="490" y="616" on="0"/>
      </contour>
    </TTGlyph>
    <TTGlyph name="a.sans" xMin="-19" yMin="-6" xMax="757" yMax="1049">
      <contour>
        <pt x="585" y="999" on="1"/>
        <pt x="599" y="1044" on="0"/>
        <pt x="642" y="1047" on="1"/>
        <pt x="689" y="1049" on="1"/>
        <pt x="757" y="1049" on="0"/>
        <pt x="735" y="975" on="1"/>
        <pt x="460" y="57" on="1"/>
        <pt x="444" y="0" on="0"/>
        <pt x="415" y="0" on="1"/>
        <pt x="358" y="0" on="1"/>
        <pt x="339" y="0" on="0"/>
        <pt x="319" y="33" on="0"/>
        <pt x="323" y="53" on="1"/>
        <pt x="345" y="150" on="1"/>
        <pt x="294" y="78" on="0"/>
        <pt x="196" y="-6" on="0"/>
        <pt x="147" y="-6" on="0"/>
        <pt x="120" y="10" on="1"/>
        <pt x="-19" y="113" on="0"/>
        <pt x="20" y="463" on="0"/>
        <pt x="182" y="889" on="0"/>
        <pt x="341" y="1036" on="0"/>
        <pt x="532" y="1036" on="0"/>
      </contour>
      <contour>
        <pt x="554" y="885" on="1"/>
        <pt x="454" y="940" on="0"/>
        <pt x="315" y="846" on="0"/>
        <pt x="180" y="471" on="0"/>
        <pt x="145" y="270" on="0"/>
        <pt x="167" y="174" on="0"/>
        <pt x="233" y="174" on="0"/>
        <pt x="370" y="340" on="0"/>
        <pt x="479" y="616" on="0"/>
      </contour>
    </TTGlyph>
    <TTGlyph name="aacute" xMin="-4" yMin="-12" xMax="804" yMax="1420">
      <component glyphName="a" x="0" y="0" flags="0x1204"/>
      <component glyphName="acute" x="356" y="-10" flags="0x1004"/>
    </TTGlyph>
    <TTGlyph name="acircumflex" xMin="-4" yMin="-12" xMax="766" yMax="1399">
      <component glyphName="a" x="0" y="0" flags="0x1004"/>
      <component glyphName="circumflex" x="127" y="-84" flags="0x1004"/>
    </TTGlyph>
    <TTGlyph name="acute" xMin="127" yMin="1167" xMax="448" yMax="1430">
      <contour>
        <pt x="415" y="1430" on="1"/>
        <pt x="438" y="1430" on="0"/>
        <pt x="448" y="1403" on="0"/>
        <pt x="430" y="1378" on="1"/>
        <pt x="251" y="1192" on="1"/>
        <pt x="229" y="1167" on="0"/>
        <pt x="194" y="1167" on="1"/>
        <pt x="151" y="1167" on="1"/>
        <pt x="135" y="1167" on="0"/>
        <pt x="127" y="1190" on="0"/>
        <pt x="133" y="1196" on="1"/>
        <pt x="260" y="1395" on="1"/>
        <pt x="282" y="1430" on="0"/>
        <pt x="323" y="1430" on="1"/>
      </contour>
    </TTGlyph>
    <TTGlyph name="adieresis" xMin="-4" yMin="-12" xMax="789" yMax="1389">
      <component glyphName="a" x="0" y="0" flags="0x1204"/>
      <component glyphName="dieresis" x="-47" y="-45" flags="0x1004"/>
    </TTGlyph>
    <TTGlyph name="ae" xMin="-39" yMin="-51" xMax="1040" yMax="1057">
      <contour>
        <pt x="438" y="586" on="1"/>
        <pt x="334" y="551" on="0"/>
        <pt x="131" y="344" on="0"/>
        <pt x="121" y="113" on="0"/>
        <pt x="287" y="115" on="0"/>
        <pt x="391" y="375" on="0"/>
      </contour>
      <contour>
        <pt x="533" y="279" on="1"/>
        <pt x="518" y="203" on="0"/>
        <pt x="559" y="125" on="0"/>
        <pt x="596" y="117" on="1"/>
        <pt x="672" y="145" on="0"/>
        <pt x="782" y="270" on="1"/>
        <pt x="801" y="289" on="0"/>
        <pt x="823" y="274" on="1"/>
        <pt x="862" y="250" on="1"/>
        <pt x="893" y="229" on="0"/>
        <pt x="881" y="205" on="1"/>
        <pt x="842" y="131" on="0"/>
        <pt x="617" y="-51" on="0"/>
        <pt x="428" y="31" on="0"/>
        <pt x="402" y="115" on="1"/>
        <pt x="342" y="25" on="0"/>
        <pt x="172" y="-47" on="0"/>
        <pt x="-31" y="68" on="0"/>
        <pt x="-39" y="352" on="0"/>
        <pt x="264" y="662" on="0"/>
        <pt x="465" y="713" on="1"/>
        <pt x="467" y="721" on="0"/>
        <pt x="469" y="731" on="1"/>
        <pt x="496" y="856" on="0"/>
        <pt x="428" y="909" on="1"/>
        <pt x="402" y="903" on="0"/>
        <pt x="270" y="776" on="0"/>
        <pt x="246" y="739" on="1"/>
        <pt x="229" y="719" on="0"/>
        <pt x="205" y="735" on="1"/>
        <pt x="158" y="764" on="1"/>
        <pt x="127" y="784" on="0"/>
        <pt x="139" y="809" on="1"/>
        <pt x="174" y="879" on="0"/>
        <pt x="393" y="1057" on="0"/>
        <pt x="492" y="1040" on="0"/>
        <pt x="584" y="948" on="0"/>
        <pt x="602" y="891" on="1"/>
        <pt x="672" y="991" on="0"/>
        <pt x="877" y="1049" on="0"/>
        <pt x="1030" y="979" on="0"/>
        <pt x="1040" y="729" on="0"/>
        <pt x="948" y="551" on="0"/>
        <pt x="729" y="352" on="0"/>
      </contour>
      <contour>
        <pt x="557" y="412" on="1"/>
        <pt x="655" y="453" on="0"/>
        <pt x="795" y="563" on="0"/>
        <pt x="887" y="725" on="0"/>
        <pt x="887" y="891" on="0"/>
        <pt x="789" y="891" on="0"/>
        <pt x="682" y="797" on="0"/>
        <pt x="590" y="569" on="0"/>
      </contour>
    </TTGlyph>
    <TTGlyph name="agrave" xMin="-4" yMin="-12" xMax="766" yMax="1420">
      <component glyphName="a" x="0" y="0" flags="0x1204"/>
      <component glyphName="grave" x="225" y="-10" flags="0x1004"/>
    </TTGlyph>
    <TTGlyph name="ampersand" xMin="-6" yMin="-127" xMax="1213" yMax="1389">
      <contour>
        <pt x="398" y="602" on="1"/>
        <pt x="310" y="557" on="0"/>
        <pt x="185" y="403" on="0"/>
        <pt x="170" y="233" on="0"/>
        <pt x="269" y="117" on="0"/>
        <pt x="486" y="123" on="0"/>
        <pt x="607" y="225" on="1"/>
        <pt x="461" y="451" on="0"/>
      </contour>
      <contour>
        <pt x="1004" y="721" on="1"/>
        <pt x="916" y="414" on="0"/>
        <pt x="793" y="231" on="1"/>
        <pt x="891" y="94" on="0"/>
        <pt x="992" y="-27" on="1"/>
        <pt x="1039" y="-86" on="0"/>
        <pt x="902" y="-127" on="0"/>
        <pt x="844" y="-90" on="1"/>
        <pt x="768" y="-8" on="0"/>
        <pt x="684" y="109" on="1"/>
        <pt x="510" y="-51" on="0"/>
        <pt x="287" y="-20" on="1"/>
        <pt x="140" y="2" on="0"/>
        <pt x="-6" y="190" on="0"/>
        <pt x="15" y="336" on="1"/>
        <pt x="37" y="485" on="0"/>
        <pt x="226" y="659" on="0"/>
        <pt x="349" y="723" on="1"/>
        <pt x="304" y="844" on="0"/>
        <pt x="304" y="1047" on="0"/>
        <pt x="402" y="1255" on="0"/>
        <pt x="607" y="1389" on="0"/>
        <pt x="756" y="1374" on="1"/>
        <pt x="791" y="1370" on="0"/>
        <pt x="785" y="1333" on="1"/>
        <pt x="775" y="1284" on="1"/>
        <pt x="762" y="1255" on="0"/>
        <pt x="719" y="1255" on="1"/>
        <pt x="633" y="1264" on="0"/>
        <pt x="543" y="1196" on="1"/>
        <pt x="496" y="1161" on="0"/>
        <pt x="441" y="1016" on="0"/>
        <pt x="465" y="793" on="0"/>
        <pt x="568" y="586" on="1"/>
        <pt x="611" y="498" on="0"/>
        <pt x="707" y="354" on="1"/>
        <pt x="822" y="537" on="0"/>
        <pt x="863" y="721" on="1"/>
        <pt x="781" y="721" on="1"/>
        <pt x="746" y="721" on="0"/>
        <pt x="746" y="750" on="0"/>
        <pt x="756" y="778" on="1"/>
        <pt x="770" y="823" on="1"/>
        <pt x="775" y="848" on="0"/>
        <pt x="801" y="848" on="1"/>
        <pt x="1178" y="848" on="1"/>
        <pt x="1213" y="848" on="0"/>
        <pt x="1196" y="803" on="1"/>
        <pt x="1188" y="778" on="1"/>
        <pt x="1174" y="721" on="0"/>
        <pt x="1145" y="721" on="1"/>
      </contour>
    </TTGlyph>
    <TTGlyph name="aogonek" xMin="-19" yMin="-354" xMax="757" yMax="1049">
      <component glyphName="a.sans" x="0" y="0" flags="0x1204"/>
      <component glyphName="ogonek" x="117" y="6" flags="0x1004"/>
    </TTGlyph>
    <TTGlyph name="aring" xMin="-4" yMin="-12" xMax="838" yMax="1689">
      <component glyphName="a" x="0" y="0" flags="0x1004"/>
      <component glyphName="ring" x="-211" y="-33" flags="0x1004"/>
    </TTGlyph>
    <TTGlyph name="asciicircum" xMin="-6" yMin="498" xMax="791" yMax="1303">
      <contour>
        <pt x="635" y="1303" on="1"/>
        <pt x="658" y="1303" on="1"/>
        <pt x="686" y="1303" on="0"/>
        <pt x="729" y="1262" on="0"/>
        <pt x="731" y="1223" on="1"/>
        <pt x="791" y="532" on="1"/>
        <pt x="791" y="498" on="0"/>
        <pt x="731" y="498" on="1"/>
        <pt x="688" y="498" on="1"/>
        <pt x="635" y="498" on="0"/>
        <pt x="635" y="535" on="1"/>
        <pt x="596" y="1153" on="1"/>
        <pt x="168" y="526" on="1"/>
        <pt x="152" y="498" on="0"/>
        <pt x="125" y="498" on="1"/>
        <pt x="31" y="498" on="1"/>
        <pt x="6" y="498" on="0"/>
        <pt x="-6" y="520" on="0"/>
        <pt x="4" y="535" on="1"/>
        <pt x="475" y="1212" on="1"/>
        <pt x="535" y="1303" on="0"/>
      </contour>
    </TTGlyph>
    <TTGlyph name="asciitilde" xMin="95" yMin="662" xMax="845" yMax="907">
      <contour>
        <pt x="105" y="793" on="1"/>
        <pt x="118" y="827" on="1"/>
        <pt x="124" y="856" on="0"/>
        <pt x="151" y="868" on="1"/>
        <pt x="206" y="899" on="0"/>
        <pt x="392" y="907" on="0"/>
        <pt x="617" y="821" on="0"/>
        <pt x="790" y="877" on="1"/>
        <pt x="816" y="885" on="0"/>
        <pt x="845" y="848" on="0"/>
        <pt x="837" y="817" on="1"/>
        <pt x="826" y="776" on="1"/>
        <pt x="820" y="741" on="0"/>
        <pt x="765" y="719" on="1"/>
        <pt x="620" y="662" on="0"/>
        <pt x="314" y="788" on="0"/>
        <pt x="144" y="723" on="1"/>
        <pt x="116" y="713" on="0"/>
        <pt x="95" y="752" on="0"/>
      </contour>
    </TTGlyph>
    <TTGlyph name="asterisk" xMin="102" yMin="770" xMax="772" yMax="1479">
      <contour>
        <pt x="344" y="1108" on="1"/>
        <pt x="145" y="1141" on="1"/>
        <pt x="122" y="1143" on="0"/>
        <pt x="102" y="1186" on="0"/>
        <pt x="110" y="1212" on="1"/>
        <pt x="120" y="1241" on="1"/>
        <pt x="124" y="1262" on="0"/>
        <pt x="163" y="1288" on="0"/>
        <pt x="182" y="1280" on="1"/>
        <pt x="385" y="1198" on="1"/>
        <pt x="413" y="1427" on="1"/>
        <pt x="421" y="1479" on="0"/>
        <pt x="489" y="1479" on="1"/>
        <pt x="516" y="1479" on="1"/>
        <pt x="542" y="1479" on="0"/>
        <pt x="577" y="1444" on="0"/>
        <pt x="567" y="1411" on="1"/>
        <pt x="489" y="1194" on="1"/>
        <pt x="702" y="1266" on="1"/>
        <pt x="772" y="1288" on="0"/>
        <pt x="772" y="1227" on="1"/>
        <pt x="772" y="1196" on="1"/>
        <pt x="772" y="1149" on="0"/>
        <pt x="720" y="1139" on="1"/>
        <pt x="483" y="1102" on="1"/>
        <pt x="612" y="889" on="1"/>
        <pt x="639" y="842" on="0"/>
        <pt x="593" y="815" on="1"/>
        <pt x="563" y="799" on="1"/>
        <pt x="512" y="770" on="0"/>
        <pt x="489" y="823" on="1"/>
        <pt x="407" y="1034" on="1"/>
        <pt x="241" y="836" on="1"/>
        <pt x="196" y="784" on="0"/>
        <pt x="159" y="827" on="1"/>
        <pt x="141" y="848" on="1"/>
        <pt x="106" y="889" on="0"/>
        <pt x="147" y="928" on="1"/>
      </contour>
    </TTGlyph>
    <TTGlyph name="at" xMin="65" yMin="-344" xMax="1691" yMax="1413">
      <contour>
        <pt x="1097" y="965" on="1"/>
        <pt x="1101" y="979" on="1"/>
        <pt x="1112" y="1032" on="0"/>
        <pt x="1153" y="1032" on="1"/>
        <pt x="1204" y="1034" on="1"/>
        <pt x="1275" y="1034" on="0"/>
        <pt x="1259" y="969" on="1"/>
        <pt x="1093" y="346" on="1"/>
        <pt x="1077" y="262" on="0"/>
        <pt x="1122" y="162" on="0"/>
        <pt x="1255" y="162" on="0"/>
        <pt x="1441" y="383" on="0"/>
        <pt x="1564" y="879" on="0"/>
        <pt x="1277" y="1294" on="0"/>
        <pt x="978" y="1296" on="1"/>
        <pt x="725" y="1290" on="0"/>
        <pt x="356" y="942" on="0"/>
        <pt x="217" y="494" on="0"/>
        <pt x="256" y="283" on="1"/>
        <pt x="294" y="70" on="0"/>
        <pt x="442" y="-78" on="1"/>
        <pt x="610" y="-236" on="0"/>
        <pt x="874" y="-225" on="1"/>
        <pt x="897" y="-223" on="0"/>
        <pt x="915" y="-250" on="0"/>
        <pt x="903" y="-270" on="1"/>
        <pt x="886" y="-301" on="1"/>
        <pt x="870" y="-332" on="0"/>
        <pt x="823" y="-334" on="1"/>
        <pt x="657" y="-344" on="0"/>
        <pt x="368" y="-225" on="0"/>
        <pt x="135" y="82" on="0"/>
        <pt x="65" y="563" on="0"/>
        <pt x="243" y="1044" on="0"/>
        <pt x="669" y="1405" on="0"/>
        <pt x="1226" y="1413" on="0"/>
        <pt x="1572" y="1171" on="0"/>
        <pt x="1691" y="782" on="0"/>
        <pt x="1577" y="311" on="0"/>
        <pt x="1294" y="14" on="0"/>
        <pt x="1015" y="14" on="0"/>
        <pt x="954" y="127" on="1"/>
        <pt x="919" y="82" on="0"/>
        <pt x="815" y="20" on="0"/>
        <pt x="702" y="20" on="0"/>
        <pt x="596" y="84" on="0"/>
        <pt x="569" y="143" on="1"/>
        <pt x="503" y="289" on="0"/>
        <pt x="567" y="629" on="0"/>
        <pt x="718" y="913" on="0"/>
        <pt x="796" y="973" on="1"/>
        <pt x="862" y="1024" on="0"/>
        <pt x="1003" y="1024" on="0"/>
      </contour>
      <contour>
        <pt x="1069" y="842" on="1"/>
        <pt x="1036" y="864" on="0"/>
        <pt x="993" y="874" on="1"/>
        <pt x="856" y="918" on="0"/>
        <pt x="747" y="655" on="1"/>
        <pt x="669" y="467" on="0"/>
        <pt x="673" y="350" on="1"/>
        <pt x="679" y="174" on="0"/>
        <pt x="774" y="174" on="1"/>
        <pt x="835" y="174" on="0"/>
        <pt x="876" y="240" on="1"/>
        <pt x="952" y="360" on="0"/>
      </contour>
    </TTGlyph>
    <TTGlyph name="atilde" xMin="-4" yMin="-12" xMax="845" yMax="1366">
      <component glyphName="a" x="0" y="0" flags="0x1004"/>
      <component glyphName="tilde" x="-53" y="70" flags="0x1004"/>
    </TTGlyph>
    <TTGlyph name="b" xMin="-29" yMin="-8" xMax="735" yMax="1554">
      <contour>
        <pt x="166" y="143" on="1"/>
        <pt x="264" y="84" on="0"/>
        <pt x="407" y="186" on="0"/>
        <pt x="542" y="555" on="0"/>
        <pt x="581" y="764" on="0"/>
        <pt x="575" y="838" on="0"/>
        <pt x="508" y="872" on="0"/>
        <pt x="352" y="696" on="0"/>
        <pt x="239" y="406" on="0"/>
        <pt x="172" y="162" on="1"/>
      </contour>
      <contour>
        <pt x="264" y="-8" on="1"/>
        <pt x="196" y="-8" on="0"/>
        <pt x="133" y="31" on="1"/>
        <pt x="116" y="0" on="0"/>
        <pt x="78" y="0" on="1"/>
        <pt x="43" y="0" on="1"/>
        <pt x="-29" y="0" on="0"/>
        <pt x="-17" y="66" on="1"/>
        <pt x="358" y="1509" on="1"/>
        <pt x="370" y="1554" on="0"/>
        <pt x="420" y="1554" on="1"/>
        <pt x="467" y="1554" on="1"/>
        <pt x="524" y="1554" on="0"/>
        <pt x="512" y="1507" on="1"/>
        <pt x="334" y="809" on="1"/>
        <pt x="364" y="860" on="1"/>
        <pt x="407" y="932" on="0"/>
        <pt x="518" y="1034" on="0"/>
        <pt x="553" y="1034" on="1"/>
        <pt x="557" y="1034" on="1"/>
        <pt x="573" y="1034" on="0"/>
        <pt x="643" y="987" on="0"/>
        <pt x="710" y="903" on="0"/>
        <pt x="735" y="811" on="0"/>
        <pt x="698" y="567" on="0"/>
        <pt x="542" y="141" on="0"/>
        <pt x="383" y="-8" on="0"/>
      </contour>
    </TTGlyph>
    <TTGlyph name="backslash" xMin="171" yMin="0" xMax="455" yMax="1556">
      <contour>
        <pt x="304" y="41" on="1"/>
        <pt x="177" y="1493" on="1"/>
        <pt x="171" y="1556" on="0"/>
        <pt x="228" y="1556" on="1"/>
        <pt x="275" y="1556" on="1"/>
        <pt x="324" y="1556" on="0"/>
        <pt x="328" y="1511" on="1"/>
        <pt x="453" y="45" on="1"/>
        <pt x="455" y="25" on="0"/>
        <pt x="429" y="0" on="0"/>
        <pt x="408" y="0" on="1"/>
        <pt x="351" y="0" on="1"/>
        <pt x="308" y="0" on="0"/>
      </contour>
    </TTGlyph>
    <TTGlyph name="bar" xMin="-150" yMin="-410" xMax="489" yMax="1554">
      <contour>
        <pt x="477" y="1507" on="1"/>
        <pt x="-2" y="-365" on="1"/>
        <pt x="-14" y="-410" on="0"/>
        <pt x="-64" y="-410" on="1"/>
        <pt x="-90" y="-410" on="1"/>
        <pt x="-123" y="-410" on="0"/>
        <pt x="-150" y="-373" on="0"/>
        <pt x="-143" y="-344" on="1"/>
        <pt x="332" y="1509" on="1"/>
        <pt x="344" y="1554" on="0"/>
        <pt x="393" y="1554" on="1"/>
        <pt x="432" y="1554" on="1"/>
        <pt x="489" y="1554" on="0"/>
      </contour>
    </TTGlyph>
    <TTGlyph name="braceleft" xMin="-45" yMin="-338" xMax="887" yMax="1774">
      <contour>
        <pt x="308" y="-332" on="1"/>
        <pt x="218" y="-336" on="1"/>
        <pt x="115" y="-338" on="0"/>
        <pt x="-16" y="-213" on="0"/>
        <pt x="-28" y="-115" on="1"/>
        <pt x="-45" y="-8" on="0"/>
        <pt x="130" y="309" on="0"/>
        <pt x="168" y="393" on="1"/>
        <pt x="250" y="580" on="0"/>
        <pt x="93" y="641" on="1"/>
        <pt x="46" y="659" on="1"/>
        <pt x="-4" y="680" on="0"/>
        <pt x="11" y="739" on="1"/>
        <pt x="25" y="799" on="1"/>
        <pt x="35" y="840" on="0"/>
        <pt x="97" y="852" on="1"/>
        <pt x="179" y="868" on="1"/>
        <pt x="275" y="889" on="0"/>
        <pt x="351" y="981" on="0"/>
        <pt x="347" y="1137" on="0"/>
        <pt x="336" y="1253" on="1"/>
        <pt x="308" y="1483" on="0"/>
        <pt x="445" y="1769" on="0"/>
        <pt x="683" y="1774" on="1"/>
        <pt x="826" y="1774" on="1"/>
        <pt x="887" y="1774" on="0"/>
        <pt x="873" y="1708" on="1"/>
        <pt x="865" y="1669" on="1"/>
        <pt x="861" y="1647" on="0"/>
        <pt x="820" y="1616" on="0"/>
        <pt x="797" y="1616" on="1"/>
        <pt x="656" y="1616" on="1"/>
        <pt x="533" y="1616" on="0"/>
        <pt x="470" y="1466" on="0"/>
        <pt x="482" y="1264" on="1"/>
        <pt x="496" y="1120" on="0"/>
        <pt x="500" y="934" on="0"/>
        <pt x="388" y="791" on="0"/>
        <pt x="220" y="739" on="1"/>
        <pt x="298" y="702" on="0"/>
        <pt x="363" y="553" on="0"/>
        <pt x="336" y="414" on="0"/>
        <pt x="269" y="268" on="0"/>
        <pt x="177" y="94" on="0"/>
        <pt x="117" y="-49" on="0"/>
        <pt x="156" y="-174" on="0"/>
        <pt x="236" y="-174" on="1"/>
        <pt x="351" y="-174" on="1"/>
        <pt x="412" y="-174" on="0"/>
        <pt x="398" y="-236" on="1"/>
        <pt x="390" y="-274" on="1"/>
        <pt x="386" y="-297" on="0"/>
        <pt x="343" y="-332" on="0"/>
        <pt x="320" y="-332" on="1"/>
      </contour>
    </TTGlyph>
    <TTGlyph name="braceright" xMin="-255" yMin="-336" xMax="677" yMax="1776">
      <contour>
        <pt x="324" y="1769" on="1"/>
        <pt x="414" y="1774" on="1"/>
        <pt x="517" y="1776" on="0"/>
        <pt x="648" y="1651" on="0"/>
        <pt x="677" y="1427" on="0"/>
        <pt x="552" y="1214" on="1"/>
        <pt x="502" y="1128" on="0"/>
        <pt x="466" y="1047" on="1"/>
        <pt x="380" y="858" on="0"/>
        <pt x="539" y="797" on="1"/>
        <pt x="586" y="778" on="1"/>
        <pt x="636" y="758" on="0"/>
        <pt x="621" y="698" on="1"/>
        <pt x="607" y="639" on="1"/>
        <pt x="597" y="598" on="0"/>
        <pt x="535" y="586" on="1"/>
        <pt x="359" y="557" on="0"/>
        <pt x="281" y="457" on="0"/>
        <pt x="285" y="301" on="0"/>
        <pt x="296" y="184" on="1"/>
        <pt x="324" y="-45" on="0"/>
        <pt x="257" y="-188" on="1"/>
        <pt x="187" y="-332" on="0"/>
        <pt x="-51" y="-336" on="1"/>
        <pt x="-194" y="-336" on="1"/>
        <pt x="-255" y="-336" on="0"/>
        <pt x="-241" y="-270" on="1"/>
        <pt x="-233" y="-231" on="1"/>
        <pt x="-229" y="-209" on="0"/>
        <pt x="-188" y="-178" on="0"/>
        <pt x="-165" y="-178" on="1"/>
        <pt x="-24" y="-178" on="1"/>
        <pt x="99" y="-178" on="0"/>
        <pt x="165" y="-27" on="0"/>
        <pt x="138" y="319" on="0"/>
        <pt x="136" y="373" on="1"/>
        <pt x="132" y="504" on="0"/>
        <pt x="179" y="563" on="1"/>
        <pt x="238" y="641" on="0"/>
        <pt x="363" y="682" on="1"/>
        <pt x="398" y="692" on="0"/>
        <pt x="412" y="698" on="1"/>
        <pt x="334" y="735" on="0"/>
        <pt x="267" y="885" on="0"/>
        <pt x="298" y="1024" on="0"/>
        <pt x="363" y="1169" on="0"/>
        <pt x="457" y="1343" on="0"/>
        <pt x="513" y="1485" on="0"/>
        <pt x="480" y="1612" on="0"/>
        <pt x="396" y="1612" on="1"/>
        <pt x="281" y="1612" on="1"/>
        <pt x="220" y="1612" on="0"/>
        <pt x="234" y="1673" on="1"/>
        <pt x="242" y="1712" on="1"/>
        <pt x="246" y="1735" on="0"/>
        <pt x="287" y="1772" on="0"/>
      </contour>
    </TTGlyph>
    <TTGlyph name="bracketleft" xMin="-160" yMin="-336" xMax="817" yMax="1765">
      <contour>
        <pt x="499" y="1622" on="1"/>
        <pt x="28" y="-193" on="1"/>
        <pt x="219" y="-193" on="1"/>
        <pt x="280" y="-193" on="0"/>
        <pt x="266" y="-258" on="1"/>
        <pt x="262" y="-279" on="1"/>
        <pt x="257" y="-301" on="0"/>
        <pt x="214" y="-336" on="0"/>
        <pt x="192" y="-336" on="1"/>
        <pt x="-76" y="-336" on="1"/>
        <pt x="-160" y="-336" on="0"/>
        <pt x="-136" y="-244" on="1"/>
        <pt x="368" y="1702" on="1"/>
        <pt x="386" y="1765" on="0"/>
        <pt x="452" y="1765" on="1"/>
        <pt x="755" y="1765" on="1"/>
        <pt x="817" y="1765" on="0"/>
        <pt x="802" y="1700" on="1"/>
        <pt x="798" y="1679" on="1"/>
        <pt x="794" y="1657" on="0"/>
        <pt x="751" y="1622" on="0"/>
        <pt x="729" y="1622" on="1"/>
      </contour>
    </TTGlyph>
    <TTGlyph name="bracketright" xMin="-286" yMin="-336" xMax="687" yMax="1765">
      <contour>
        <pt x="31" y="-193" on="1"/>
        <pt x="494" y="1620" on="1"/>
        <pt x="306" y="1620" on="1"/>
        <pt x="244" y="1620" on="0"/>
        <pt x="259" y="1686" on="1"/>
        <pt x="263" y="1708" on="1"/>
        <pt x="267" y="1731" on="0"/>
        <pt x="310" y="1765" on="0"/>
        <pt x="332" y="1765" on="1"/>
        <pt x="603" y="1765" on="1"/>
        <pt x="687" y="1765" on="0"/>
        <pt x="662" y="1673" on="1"/>
        <pt x="165" y="-272" on="1"/>
        <pt x="146" y="-336" on="0"/>
        <pt x="81" y="-336" on="1"/>
        <pt x="-225" y="-336" on="1"/>
        <pt x="-286" y="-336" on="0"/>
        <pt x="-272" y="-270" on="1"/>
        <pt x="-268" y="-250" on="1"/>
        <pt x="-264" y="-227" on="0"/>
        <pt x="-221" y="-193" on="0"/>
        <pt x="-198" y="-193" on="1"/>
      </contour>
    </TTGlyph>
    <TTGlyph name="breve" xMin="94" yMin="1174" xMax="840" yMax="1479">
      <contour>
        <pt x="94" y="1479" on="1"/>
        <pt x="215" y="1479" on="1"/>
        <pt x="223" y="1391" on="0"/>
        <pt x="373" y="1272" on="0"/>
        <pt x="573" y="1272" on="0"/>
        <pt x="711" y="1386" on="0"/>
        <pt x="721" y="1479" on="1"/>
        <pt x="840" y="1479" on="1"/>
        <pt x="823" y="1341" on="0"/>
        <pt x="621" y="1174" on="0"/>
        <pt x="315" y="1174" on="0"/>
        <pt x="117" y="1339" on="0"/>
      </contour>
    </TTGlyph>
    <TTGlyph name="brokenbar" xMin="-164" yMin="-412" xMax="488" yMax="1561">
      <contour>
        <pt x="197" y="412" on="1"/>
        <pt x="-6" y="-367" on="1"/>
        <pt x="-18" y="-412" on="0"/>
        <pt x="-67" y="-412" on="1"/>
        <pt x="-106" y="-412" on="1"/>
        <pt x="-164" y="-412" on="0"/>
        <pt x="-151" y="-365" on="1"/>
        <pt x="51" y="414" on="1"/>
        <pt x="64" y="459" on="0"/>
        <pt x="113" y="459" on="1"/>
        <pt x="152" y="459" on="1"/>
        <pt x="209" y="459" on="0"/>
      </contour>
      <contour>
        <pt x="475" y="1513" on="1"/>
        <pt x="273" y="735" on="1"/>
        <pt x="260" y="690" on="0"/>
        <pt x="211" y="690" on="1"/>
        <pt x="172" y="690" on="1"/>
        <pt x="115" y="690" on="0"/>
        <pt x="127" y="737" on="1"/>
        <pt x="330" y="1516" on="1"/>
        <pt x="342" y="1561" on="0"/>
        <pt x="391" y="1561" on="1"/>
        <pt x="430" y="1561" on="1"/>
        <pt x="488" y="1561" on="0"/>
      </contour>
    </TTGlyph>
    <TTGlyph name="bullet" xMin="344" yMin="305" xMax="831" yMax="791">
      <contour>
        <pt x="344" y="549" on="1"/>
        <pt x="344" y="649" on="0"/>
        <pt x="487" y="791" on="0"/>
        <pt x="688" y="791" on="0"/>
        <pt x="831" y="649" on="0"/>
        <pt x="831" y="430" on="0"/>
        <pt x="694" y="305" on="0"/>
        <pt x="487" y="305" on="0"/>
        <pt x="344" y="449" on="0"/>
      </contour>
    </TTGlyph>
    <TTGlyph name="c" xMin="-73" yMin="-27" xMax="662" yMax="1055">
      <contour>
        <pt x="629" y="926" on="1"/>
        <pt x="662" y="891" on="0"/>
        <pt x="637" y="862" on="1"/>
        <pt x="603" y="823" on="1"/>
        <pt x="568" y="784" on="0"/>
        <pt x="541" y="813" on="1"/>
        <pt x="519" y="838" on="1"/>
        <pt x="445" y="913" on="0"/>
        <pt x="402" y="903" on="1"/>
        <pt x="328" y="889" on="0"/>
        <pt x="164" y="602" on="0"/>
        <pt x="93" y="297" on="0"/>
        <pt x="111" y="195" on="1"/>
        <pt x="115" y="170" on="0"/>
        <pt x="183" y="129" on="0"/>
        <pt x="201" y="133" on="1"/>
        <pt x="263" y="166" on="0"/>
        <pt x="338" y="256" on="1"/>
        <pt x="361" y="287" on="0"/>
        <pt x="404" y="260" on="1"/>
        <pt x="435" y="240" on="1"/>
        <pt x="500" y="201" on="0"/>
        <pt x="324" y="59" on="1"/>
        <pt x="250" y="-4" on="0"/>
        <pt x="168" y="-27" on="0"/>
        <pt x="3" y="57" on="0"/>
        <pt x="-16" y="98" on="1"/>
        <pt x="-73" y="223" on="0"/>
        <pt x="37" y="684" on="0"/>
        <pt x="197" y="928" on="0"/>
        <pt x="351" y="1055" on="0"/>
        <pt x="529" y="1038" on="0"/>
      </contour>
    </TTGlyph>
    <TTGlyph name="caron" xMin="156" yMin="1196" xMax="611" yMax="1460">
      <contour>
        <pt x="344" y="1307" on="1"/>
        <pt x="473" y="1438" on="1"/>
        <pt x="496" y="1460" on="0"/>
        <pt x="531" y="1460" on="1"/>
        <pt x="580" y="1460" on="1"/>
        <pt x="602" y="1460" on="0"/>
        <pt x="611" y="1430" on="0"/>
        <pt x="592" y="1413" on="1"/>
        <pt x="385" y="1227" on="1"/>
        <pt x="350" y="1196" on="0"/>
        <pt x="334" y="1198" on="1"/>
        <pt x="316" y="1200" on="1"/>
        <pt x="295" y="1202" on="0"/>
        <pt x="275" y="1237" on="1"/>
        <pt x="166" y="1425" on="1"/>
        <pt x="156" y="1440" on="0"/>
        <pt x="168" y="1460" on="0"/>
        <pt x="187" y="1460" on="1"/>
        <pt x="246" y="1460" on="1"/>
        <pt x="279" y="1460" on="0"/>
        <pt x="289" y="1438" on="1"/>
      </contour>
    </TTGlyph>
    <TTGlyph name="ccaron" xMin="-73" yMin="-27" xMax="771" yMax="1386">
      <component glyphName="c" x="0" y="0" flags="0x1004"/>
      <component glyphName="caron" x="160" y="-74" flags="0x1004"/>
    </TTGlyph>
    <TTGlyph name="ccedilla" xMin="-68" yMin="-357" xMax="668" yMax="1055">
      <component glyphName="c" x="6" y="0" flags="0x1004"/>
      <component glyphName="cedilla" x="-174" y="18" flags="0x1004"/>
    </TTGlyph>
    <TTGlyph name="cedilla" xMin="106" yMin="-375" xMax="464" yMax="-72">
      <contour>
        <pt x="370" y="-80" on="1"/>
        <pt x="430" y="-96" on="1"/>
        <pt x="464" y="-106" on="0"/>
        <pt x="452" y="-158" on="1"/>
        <pt x="403" y="-365" on="0"/>
        <pt x="157" y="-375" on="1"/>
        <pt x="126" y="-375" on="0"/>
        <pt x="120" y="-348" on="1"/>
        <pt x="114" y="-324" on="1"/>
        <pt x="106" y="-285" on="0"/>
        <pt x="141" y="-283" on="1"/>
        <pt x="223" y="-276" on="0"/>
        <pt x="319" y="-184" on="0"/>
        <pt x="319" y="-113" on="1"/>
        <pt x="319" y="-86" on="0"/>
        <pt x="358" y="-72" on="0"/>
      </contour>
    </TTGlyph>
    <TTGlyph name="cent" xMin="-36" yMin="-195" xMax="667" yMax="1311">
      <contour>
        <pt x="139" y="-195" on="1"/>
        <pt x="73" y="-195" on="0"/>
        <pt x="87" y="-131" on="1"/>
        <pt x="139" y="53" on="1"/>
        <pt x="53" y="90" on="0"/>
        <pt x="-36" y="322" on="0"/>
        <pt x="32" y="694" on="0"/>
        <pt x="259" y="1014" on="0"/>
        <pt x="390" y="1044" on="1"/>
        <pt x="450" y="1268" on="1"/>
        <pt x="462" y="1311" on="0"/>
        <pt x="509" y="1311" on="1"/>
        <pt x="554" y="1311" on="1"/>
        <pt x="610" y="1311" on="0"/>
        <pt x="597" y="1266" on="1"/>
        <pt x="538" y="1040" on="1"/>
        <pt x="630" y="1008" on="0"/>
        <pt x="667" y="764" on="0"/>
        <pt x="612" y="612" on="1"/>
        <pt x="601" y="584" on="0"/>
        <pt x="554" y="592" on="1"/>
        <pt x="505" y="604" on="1"/>
        <pt x="450" y="614" on="0"/>
        <pt x="468" y="664" on="1"/>
        <pt x="511" y="809" on="0"/>
        <pt x="501" y="956" on="0"/>
        <pt x="407" y="956" on="0"/>
        <pt x="229" y="741" on="0"/>
        <pt x="124" y="393" on="0"/>
        <pt x="161" y="154" on="0"/>
        <pt x="270" y="154" on="0"/>
        <pt x="382" y="297" on="0"/>
        <pt x="421" y="387" on="1"/>
        <pt x="436" y="414" on="0"/>
        <pt x="464" y="406" on="1"/>
        <pt x="532" y="377" on="1"/>
        <pt x="579" y="356" on="0"/>
        <pt x="556" y="307" on="1"/>
        <pt x="450" y="80" on="0"/>
        <pt x="286" y="47" on="1"/>
        <pt x="233" y="-152" on="1"/>
        <pt x="220" y="-195" on="0"/>
        <pt x="173" y="-195" on="1"/>
      </contour>
    </TTGlyph>
    <TTGlyph name="circumflex" xMin="152" yMin="1219" xMax="607" yMax="1483">
      <contour>
        <pt x="419" y="1372" on="1"/>
        <pt x="290" y="1241" on="1"/>
        <pt x="267" y="1219" on="0"/>
        <pt x="232" y="1219" on="1"/>
        <pt x="183" y="1219" on="1"/>
        <pt x="160" y="1219" on="0"/>
        <pt x="152" y="1249" on="0"/>
        <pt x="171" y="1266" on="1"/>
        <pt x="378" y="1452" on="1"/>
        <pt x="412" y="1483" on="0"/>
        <pt x="429" y="1481" on="1"/>
        <pt x="447" y="1479" on="1"/>
        <pt x="468" y="1477" on="0"/>
        <pt x="488" y="1442" on="1"/>
        <pt x="597" y="1253" on="1"/>
        <pt x="607" y="1239" on="0"/>
        <pt x="595" y="1219" on="0"/>
        <pt x="576" y="1219" on="1"/>
        <pt x="517" y="1219" on="1"/>
        <pt x="484" y="1219" on="0"/>
        <pt x="474" y="1241" on="1"/>
      </contour>
    </TTGlyph>
    <TTGlyph name="colon" xMin="51" yMin="-39" xMax="494" yMax="1073">
      <contour>
        <pt x="369" y="1073" on="1"/>
        <pt x="391" y="1073" on="1"/>
        <pt x="430" y="1073" on="0"/>
        <pt x="494" y="1004" on="0"/>
        <pt x="494" y="907" on="0"/>
        <pt x="428" y="842" on="0"/>
        <pt x="377" y="842" on="1"/>
        <pt x="356" y="842" on="1"/>
        <pt x="315" y="842" on="0"/>
        <pt x="256" y="909" on="0"/>
        <pt x="256" y="1006" on="0"/>
        <pt x="319" y="1073" on="0"/>
      </contour>
      <contour>
        <pt x="164" y="193" on="1"/>
        <pt x="186" y="193" on="1"/>
        <pt x="225" y="193" on="0"/>
        <pt x="289" y="123" on="0"/>
        <pt x="289" y="27" on="0"/>
        <pt x="223" y="-39" on="0"/>
        <pt x="172" y="-39" on="1"/>
        <pt x="152" y="-39" on="1"/>
        <pt x="111" y="-39" on="0"/>
        <pt x="51" y="29" on="0"/>
        <pt x="51" y="125" on="0"/>
        <pt x="115" y="193" on="0"/>
      </contour>
    </TTGlyph>
    <TTGlyph name="comma" xMin="-52" yMin="-336" xMax="224" yMax="262">
      <contour>
        <pt x="224" y="213" on="1"/>
        <pt x="224" y="2" on="0"/>
        <pt x="77" y="-248" on="1"/>
        <pt x="26" y="-336" on="0"/>
        <pt x="-26" y="-336" on="1"/>
        <pt x="-50" y="-336" on="0"/>
        <pt x="-52" y="-283" on="0"/>
        <pt x="11" y="-131" on="0"/>
        <pt x="42" y="57" on="0"/>
        <pt x="50" y="190" on="1"/>
        <pt x="50" y="225" on="0"/>
        <pt x="93" y="236" on="1"/>
        <pt x="175" y="254" on="1"/>
        <pt x="224" y="262" on="0"/>
      </contour>
    </TTGlyph>
    <TTGlyph name="copyright" xMin="64" yMin="-16" xMax="1506" yMax="1495">
      <contour>
        <pt x="122" y="868" on="1"/>
        <pt x="195" y="1135" on="0"/>
        <pt x="613" y="1495" on="0"/>
        <pt x="863" y="1495" on="1"/>
        <pt x="1158" y="1495" on="0"/>
        <pt x="1328" y="1290" on="1"/>
        <pt x="1404" y="1200" on="0"/>
        <pt x="1441" y="1075" on="1"/>
        <pt x="1506" y="838" on="0"/>
        <pt x="1437" y="590" on="1"/>
        <pt x="1357" y="301" on="0"/>
        <pt x="963" y="-16" on="0"/>
        <pt x="417" y="-16" on="0"/>
        <pt x="234" y="166" on="1"/>
        <pt x="124" y="279" on="0"/>
        <pt x="64" y="670" on="0"/>
      </contour>
      <contour>
        <pt x="259" y="819" on="1"/>
        <pt x="181" y="516" on="0"/>
        <pt x="431" y="96" on="0"/>
        <pt x="703" y="96" on="1"/>
        <pt x="925" y="96" on="0"/>
        <pt x="1238" y="412" on="0"/>
        <pt x="1299" y="655" on="1"/>
        <pt x="1338" y="791" on="0"/>
        <pt x="1305" y="1051" on="0"/>
        <pt x="1205" y="1257" on="0"/>
        <pt x="1002" y="1384" on="0"/>
        <pt x="869" y="1384" on="1"/>
        <pt x="650" y="1384" on="0"/>
        <pt x="322" y="1063" on="0"/>
      </contour>
      <contour>
        <pt x="679" y="348" on="1"/>
        <pt x="730" y="358" on="0"/>
        <pt x="847" y="522" on="0"/>
        <pt x="873" y="600" on="1"/>
        <pt x="882" y="627" on="0"/>
        <pt x="906" y="616" on="1"/>
        <pt x="982" y="586" on="1"/>
        <pt x="1013" y="571" on="0"/>
        <pt x="1000" y="543" on="1"/>
        <pt x="943" y="408" on="0"/>
        <pt x="771" y="246" on="0"/>
        <pt x="595" y="246" on="0"/>
        <pt x="480" y="340" on="0"/>
        <pt x="421" y="571" on="0"/>
        <pt x="513" y="967" on="0"/>
        <pt x="777" y="1235" on="0"/>
        <pt x="941" y="1221" on="1"/>
        <pt x="1064" y="1206" on="0"/>
        <pt x="1125" y="1022" on="0"/>
        <pt x="1045" y="825" on="1"/>
        <pt x="1033" y="799" on="0"/>
        <pt x="1002" y="803" on="1"/>
        <pt x="939" y="815" on="1"/>
        <pt x="898" y="821" on="0"/>
        <pt x="910" y="858" on="1"/>
        <pt x="1006" y="1106" on="0"/>
        <pt x="908" y="1122" on="1"/>
        <pt x="859" y="1130" on="0"/>
        <pt x="734" y="1036" on="0"/>
        <pt x="640" y="870" on="0"/>
        <pt x="568" y="610" on="0"/>
        <pt x="601" y="358" on="0"/>
      </contour>
    </TTGlyph>
    <TTGlyph name="currency" xMin="82" yMin="-63" xMax="1067" yMax="1225">
      <contour>
        <pt x="229" y="399" on="1"/>
        <pt x="237" y="623" on="0"/>
        <pt x="367" y="825" on="1"/>
        <pt x="289" y="1077" on="1"/>
        <pt x="266" y="1147" on="0"/>
        <pt x="297" y="1167" on="1"/>
        <pt x="367" y="1206" on="1"/>
        <pt x="393" y="1225" on="0"/>
        <pt x="440" y="1192" on="0"/>
        <pt x="450" y="1153" on="1"/>
        <pt x="504" y="971" on="1"/>
        <pt x="598" y="1032" on="0"/>
        <pt x="762" y="1030" on="0"/>
        <pt x="803" y="1006" on="1"/>
        <pt x="907" y="1165" on="1"/>
        <pt x="940" y="1214" on="0"/>
        <pt x="977" y="1192" on="1"/>
        <pt x="1028" y="1161" on="1"/>
        <pt x="1063" y="1141" on="0"/>
        <pt x="1067" y="1104" on="0"/>
        <pt x="1044" y="1075" on="1"/>
        <pt x="901" y="893" on="1"/>
        <pt x="917" y="840" on="0"/>
        <pt x="913" y="756" on="1"/>
        <pt x="905" y="518" on="0"/>
        <pt x="745" y="293" on="1"/>
        <pt x="815" y="78" on="1"/>
        <pt x="825" y="49" on="0"/>
        <pt x="807" y="18" on="0"/>
        <pt x="772" y="0" on="1"/>
        <pt x="737" y="-20" on="1"/>
        <pt x="655" y="-63" on="0"/>
        <pt x="635" y="25" on="1"/>
        <pt x="600" y="168" on="1"/>
        <pt x="526" y="135" on="0"/>
        <pt x="387" y="137" on="0"/>
        <pt x="344" y="162" on="1"/>
        <pt x="254" y="14" on="1"/>
        <pt x="231" y="-18" on="0"/>
        <pt x="194" y="-18" on="0"/>
        <pt x="184" y="-10" on="1"/>
        <pt x="123" y="31" on="1"/>
        <pt x="92" y="49" on="0"/>
        <pt x="82" y="82" on="0"/>
        <pt x="104" y="115" on="1"/>
        <pt x="235" y="305" on="1"/>
        <pt x="227" y="346" on="0"/>
      </contour>
      <contour>
        <pt x="592" y="330" on="1"/>
        <pt x="737" y="512" on="0"/>
        <pt x="745" y="737" on="1"/>
        <pt x="747" y="838" on="0"/>
        <pt x="717" y="905" on="0"/>
        <pt x="620" y="907" on="0"/>
        <pt x="543" y="834" on="0"/>
        <pt x="504" y="770" on="1"/>
        <pt x="412" y="618" on="0"/>
        <pt x="401" y="416" on="1"/>
        <pt x="397" y="262" on="0"/>
        <pt x="469" y="258" on="1"/>
        <pt x="530" y="256" on="0"/>
      </contour>
    </TTGlyph>
    <TTGlyph name="d" xMin="8" yMin="-14" xMax="913" yMax="1554">
      <contour>
        <pt x="571" y="885" on="1"/>
        <pt x="469" y="942" on="0"/>
        <pt x="332" y="844" on="0"/>
        <pt x="207" y="506" on="0"/>
        <pt x="150" y="250" on="0"/>
        <pt x="191" y="152" on="0"/>
        <pt x="238" y="180" on="1"/>
        <pt x="334" y="242" on="0"/>
        <pt x="487" y="575" on="0"/>
      </contour>
      <contour>
        <pt x="899" y="1507" on="1"/>
        <pt x="510" y="156" on="1"/>
        <pt x="569" y="203" on="0"/>
        <pt x="633" y="291" on="1"/>
        <pt x="655" y="324" on="0"/>
        <pt x="684" y="305" on="1"/>
        <pt x="733" y="272" on="1"/>
        <pt x="766" y="250" on="0"/>
        <pt x="743" y="221" on="1"/>
        <pt x="659" y="123" on="0"/>
        <pt x="518" y="14" on="0"/>
        <pt x="422" y="-8" on="1"/>
        <pt x="393" y="-14" on="0"/>
        <pt x="385" y="14" on="1"/>
        <pt x="346" y="127" on="1"/>
        <pt x="305" y="70" on="0"/>
        <pt x="213" y="-6" on="0"/>
        <pt x="184" y="-6" on="1"/>
        <pt x="180" y="-6" on="1"/>
        <pt x="141" y="-6" on="0"/>
        <pt x="12" y="129" on="0"/>
        <pt x="10" y="207" on="1"/>
        <pt x="8" y="367" on="0"/>
        <pt x="193" y="879" on="0"/>
        <pt x="354" y="1038" on="0"/>
        <pt x="473" y="1036" on="1"/>
        <pt x="541" y="1036" on="0"/>
        <pt x="602" y="999" on="1"/>
        <pt x="739" y="1509" on="1"/>
        <pt x="752" y="1554" on="0"/>
        <pt x="801" y="1554" on="1"/>
        <pt x="854" y="1554" on="1"/>
        <pt x="913" y="1554" on="0"/>
      </contour>
    </TTGlyph>
    <TTGlyph name="degree" xMin="258" yMin="1094" xMax="827" yMax="1649">
      <contour>
        <pt x="827" y="1413" on="1"/>
        <pt x="827" y="1270" on="0"/>
        <pt x="621" y="1094" on="0"/>
        <pt x="389" y="1094" on="0"/>
        <pt x="258" y="1229" on="0"/>
        <pt x="258" y="1331" on="1"/>
        <pt x="258" y="1470" on="0"/>
        <pt x="467" y="1649" on="0"/>
        <pt x="698" y="1649" on="0"/>
        <pt x="827" y="1516" on="0"/>
      </contour>
      <contour>
        <pt x="426" y="1489" on="1"/>
        <pt x="360" y="1425" on="0"/>
        <pt x="360" y="1278" on="0"/>
        <pt x="446" y="1190" on="0"/>
        <pt x="590" y="1190" on="0"/>
        <pt x="725" y="1313" on="0"/>
        <pt x="725" y="1468" on="0"/>
        <pt x="643" y="1552" on="0"/>
        <pt x="489" y="1552" on="0"/>
      </contour>
    </TTGlyph>
    <TTGlyph name="dieresis" xMin="297" yMin="1235" xMax="836" yMax="1434">
      <contour>
        <pt x="397" y="1434" on="1"/>
        <pt x="416" y="1434" on="1"/>
        <pt x="451" y="1434" on="0"/>
        <pt x="508" y="1372" on="0"/>
        <pt x="508" y="1292" on="0"/>
        <pt x="449" y="1235" on="0"/>
        <pt x="403" y="1235" on="1"/>
        <pt x="387" y="1235" on="1"/>
        <pt x="352" y="1235" on="0"/>
        <pt x="297" y="1294" on="0"/>
        <pt x="297" y="1374" on="0"/>
        <pt x="354" y="1434" on="0"/>
      </contour>
      <contour>
        <pt x="725" y="1434" on="1"/>
        <pt x="743" y="1434" on="1"/>
        <pt x="778" y="1434" on="0"/>
        <pt x="836" y="1372" on="0"/>
        <pt x="836" y="1292" on="0"/>
        <pt x="776" y="1235" on="0"/>
        <pt x="731" y="1235" on="1"/>
        <pt x="715" y="1235" on="1"/>
        <pt x="680" y="1235" on="0"/>
        <pt x="625" y="1294" on="0"/>
        <pt x="625" y="1374" on="0"/>
        <pt x="682" y="1434" on="0"/>
      </contour>
    </TTGlyph>
    <TTGlyph name="divide" xMin="-4" yMin="102" xMax="998" yMax="1223">
      <component glyphName="endash" x="-90" y="45" flags="0x1004"/>
      <component glyphName="period" x="414" y="1030" flags="0x1004"/>
      <component glyphName="period" x="207" y="141" flags="0x1004"/>
    </TTGlyph>
    <TTGlyph name="dollar" xMin="3" yMin="-82" xMax="740" yMax="1563">
      <contour>
        <pt x="579" y="983" on="1"/>
        <pt x="589" y="1126" on="1"/>
        <pt x="589" y="1233" on="0"/>
        <pt x="542" y="1288" on="0"/>
        <pt x="509" y="1286" on="1"/>
        <pt x="431" y="1272" on="0"/>
        <pt x="333" y="1059" on="0"/>
        <pt x="306" y="879" on="0"/>
        <pt x="376" y="823" on="0"/>
        <pt x="470" y="805" on="1"/>
        <pt x="628" y="770" on="0"/>
        <pt x="593" y="397" on="0"/>
        <pt x="413" y="96" on="0"/>
        <pt x="271" y="61" on="1"/>
        <pt x="245" y="-39" on="1"/>
        <pt x="233" y="-82" on="0"/>
        <pt x="185" y="-82" on="1"/>
        <pt x="151" y="-82" on="1"/>
        <pt x="85" y="-82" on="0"/>
        <pt x="99" y="-18" on="1"/>
        <pt x="124" y="70" on="1"/>
        <pt x="3" y="129" on="0"/>
        <pt x="15" y="440" on="1"/>
        <pt x="18" y="492" on="0"/>
        <pt x="58" y="524" on="1"/>
        <pt x="99" y="549" on="1"/>
        <pt x="130" y="563" on="0"/>
        <pt x="175" y="543" on="0"/>
        <pt x="159" y="401" on="0"/>
        <pt x="181" y="174" on="0"/>
        <pt x="243" y="174" on="1"/>
        <pt x="304" y="176" on="0"/>
        <pt x="413" y="336" on="0"/>
        <pt x="452" y="520" on="0"/>
        <pt x="454" y="569" on="1"/>
        <pt x="456" y="668" on="0"/>
        <pt x="292" y="698" on="1"/>
        <pt x="153" y="725" on="0"/>
        <pt x="155" y="856" on="1"/>
        <pt x="161" y="1036" on="0"/>
        <pt x="333" y="1356" on="0"/>
        <pt x="462" y="1401" on="1"/>
        <pt x="493" y="1520" on="1"/>
        <pt x="505" y="1563" on="0"/>
        <pt x="552" y="1563" on="1"/>
        <pt x="597" y="1563" on="1"/>
        <pt x="652" y="1563" on="0"/>
        <pt x="640" y="1518" on="1"/>
        <pt x="611" y="1409" on="1"/>
        <pt x="695" y="1384" on="0"/>
        <pt x="740" y="1198" on="0"/>
        <pt x="728" y="1022" on="1"/>
        <pt x="724" y="977" on="0"/>
        <pt x="683" y="961" on="1"/>
        <pt x="624" y="940" on="1"/>
        <pt x="599" y="936" on="0"/>
        <pt x="577" y="952" on="0"/>
      </contour>
    </TTGlyph>
    <TTGlyph name="dotaccent" xMin="297" yMin="1235" xMax="508" yMax="1434">
      <contour>
        <pt x="397" y="1434" on="1"/>
        <pt x="416" y="1434" on="1"/>
        <pt x="451" y="1434" on="0"/>
        <pt x="508" y="1372" on="0"/>
        <pt x="508" y="1292" on="0"/>
        <pt x="449" y="1235" on="0"/>
        <pt x="403" y="1235" on="1"/>
        <pt x="387" y="1235" on="1"/>
        <pt x="352" y="1235" on="0"/>
        <pt x="297" y="1294" on="0"/>
        <pt x="297" y="1374" on="0"/>
        <pt x="354" y="1434" on="0"/>
      </contour>
    </TTGlyph>
    <TTGlyph name="dotlessi" xMin="-49" yMin="0" xMax="383" yMax="1040">
      <contour>
        <pt x="377" y="997" on="1"/>
        <pt x="129" y="45" on="1"/>
        <pt x="117" y="0" on="0"/>
        <pt x="68" y="0" on="1"/>
        <pt x="8" y="0" on="1"/>
        <pt x="-49" y="0" on="0"/>
        <pt x="-37" y="47" on="1"/>
        <pt x="213" y="999" on="1"/>
        <pt x="223" y="1040" on="0"/>
        <pt x="270" y="1040" on="1"/>
        <pt x="338" y="1040" on="1"/>
        <pt x="365" y="1040" on="0"/>
        <pt x="383" y="1022" on="0"/>
      </contour>
    </TTGlyph>
    <TTGlyph name="e" xMin="-44" yMin="-35" xMax="624" yMax="1049">
      <contour>
        <pt x="128" y="283" on="1"/>
        <pt x="100" y="133" on="0"/>
        <pt x="184" y="117" on="1"/>
        <pt x="259" y="145" on="0"/>
        <pt x="370" y="270" on="1"/>
        <pt x="389" y="287" on="0"/>
        <pt x="411" y="274" on="1"/>
        <pt x="450" y="250" on="1"/>
        <pt x="477" y="229" on="0"/>
        <pt x="468" y="205" on="1"/>
        <pt x="429" y="131" on="0"/>
        <pt x="219" y="-35" on="0"/>
        <pt x="155" y="-23" on="1"/>
        <pt x="10" y="14" on="0"/>
        <pt x="-15" y="129" on="1"/>
        <pt x="-44" y="283" on="0"/>
        <pt x="116" y="821" on="0"/>
        <pt x="259" y="958" on="1"/>
        <pt x="309" y="1004" on="0"/>
        <pt x="458" y="1049" on="0"/>
        <pt x="624" y="979" on="0"/>
        <pt x="622" y="649" on="0"/>
        <pt x="335" y="356" on="0"/>
      </contour>
      <contour>
        <pt x="153" y="416" on="1"/>
        <pt x="249" y="457" on="0"/>
        <pt x="386" y="567" on="0"/>
        <pt x="475" y="725" on="0"/>
        <pt x="475" y="891" on="0"/>
        <pt x="427" y="891" on="1"/>
        <pt x="333" y="891" on="0"/>
        <pt x="192" y="584" on="0"/>
      </contour>
    </TTGlyph>
    <TTGlyph name="eacute" xMin="-44" yMin="-35" xMax="778" yMax="1420">
      <component glyphName="acute" x="330" y="-10" flags="0x1004"/>
      <component glyphName="e" x="0" y="0" flags="0x1004"/>
    </TTGlyph>
    <TTGlyph name="ecircumflex" xMin="-44" yMin="-35" xMax="716" yMax="1399">
      <component glyphName="circumflex" x="109" y="-84" flags="0x1004"/>
      <component glyphName="e" x="0" y="0" flags="0x1004"/>
    </TTGlyph>
    <TTGlyph name="edieresis" xMin="-44" yMin="-35" xMax="801" yMax="1389">
      <component glyphName="dieresis" x="-35" y="-45" flags="0x1004"/>
      <component glyphName="e" x="0" y="0" flags="0x1004"/>
    </TTGlyph>
    <TTGlyph name="egrave" xMin="-44" yMin="-35" xMax="624" yMax="1420">
      <component glyphName="e" x="0" y="0" flags="0x1204"/>
      <component glyphName="grave" x="123" y="-10" flags="0x1004"/>
    </TTGlyph>
    <TTGlyph name="eight" xMin="31" yMin="-27" xMax="854" yMax="1423">
      <contour>
        <pt x="319" y="721" on="1"/>
        <pt x="254" y="768" on="0"/>
        <pt x="178" y="913" on="0"/>
        <pt x="178" y="997" on="1"/>
        <pt x="178" y="1153" on="0"/>
        <pt x="403" y="1423" on="0"/>
        <pt x="578" y="1423" on="1"/>
        <pt x="705" y="1423" on="0"/>
        <pt x="854" y="1260" on="0"/>
        <pt x="854" y="1126" on="1"/>
        <pt x="854" y="1036" on="0"/>
        <pt x="807" y="950" on="1"/>
        <pt x="725" y="805" on="0"/>
        <pt x="584" y="725" on="1"/>
        <pt x="649" y="668" on="0"/>
        <pt x="721" y="504" on="0"/>
        <pt x="721" y="418" on="1"/>
        <pt x="721" y="256" on="0"/>
        <pt x="487" y="-27" on="0"/>
        <pt x="309" y="-27" on="1"/>
        <pt x="31" y="-27" on="0"/>
        <pt x="31" y="270" on="1"/>
        <pt x="31" y="504" on="0"/>
      </contour>
      <contour>
        <pt x="434" y="657" on="1"/>
        <pt x="299" y="582" on="0"/>
        <pt x="223" y="434" on="1"/>
        <pt x="184" y="360" on="0"/>
        <pt x="184" y="215" on="0"/>
        <pt x="254" y="106" on="0"/>
        <pt x="420" y="106" on="0"/>
        <pt x="555" y="291" on="0"/>
        <pt x="555" y="391" on="1"/>
        <pt x="555" y="584" on="0"/>
      </contour>
      <contour>
        <pt x="479" y="799" on="1"/>
        <pt x="559" y="840" on="0"/>
        <pt x="623" y="924" on="1"/>
        <pt x="686" y="1010" on="0"/>
        <pt x="690" y="1090" on="1"/>
        <pt x="702" y="1280" on="0"/>
        <pt x="561" y="1292" on="1"/>
        <pt x="473" y="1298" on="0"/>
        <pt x="338" y="1147" on="0"/>
        <pt x="338" y="961" on="0"/>
        <pt x="397" y="856" on="0"/>
      </contour>
    </TTGlyph>
    <TTGlyph name="ellipsis" xMin="61" yMin="-39" xMax="1180" yMax="193">
      <contour>
        <pt x="178" y="193" on="1"/>
        <pt x="201" y="193" on="1"/>
        <pt x="240" y="193" on="0"/>
        <pt x="307" y="121" on="0"/>
        <pt x="307" y="29" on="0"/>
        <pt x="238" y="-39" on="0"/>
        <pt x="186" y="-39" on="1"/>
        <pt x="166" y="-39" on="1"/>
        <pt x="125" y="-39" on="0"/>
        <pt x="61" y="31" on="0"/>
        <pt x="61" y="125" on="0"/>
        <pt x="129" y="193" on="0"/>
      </contour>
      <contour>
        <pt x="614" y="193" on="1"/>
        <pt x="637" y="193" on="1"/>
        <pt x="676" y="193" on="0"/>
        <pt x="743" y="121" on="0"/>
        <pt x="743" y="29" on="0"/>
        <pt x="674" y="-39" on="0"/>
        <pt x="623" y="-39" on="1"/>
        <pt x="602" y="-39" on="1"/>
        <pt x="561" y="-39" on="0"/>
        <pt x="498" y="31" on="0"/>
        <pt x="498" y="125" on="0"/>
        <pt x="565" y="193" on="0"/>
      </contour>
      <contour>
        <pt x="1051" y="193" on="1"/>
        <pt x="1073" y="193" on="1"/>
        <pt x="1112" y="193" on="0"/>
        <pt x="1180" y="121" on="0"/>
        <pt x="1180" y="29" on="0"/>
        <pt x="1110" y="-39" on="0"/>
        <pt x="1059" y="-39" on="1"/>
        <pt x="1038" y="-39" on="1"/>
        <pt x="997" y="-39" on="0"/>
        <pt x="934" y="31" on="0"/>
        <pt x="934" y="125" on="0"/>
        <pt x="1001" y="193" on="0"/>
      </contour>
    </TTGlyph>
    <TTGlyph name="emdash" xMin="86" yMin="594" xMax="1676" yMax="735">
      <contour>
        <pt x="144" y="735" on="1"/>
        <pt x="1637" y="735" on="1"/>
        <pt x="1655" y="735" on="0"/>
        <pt x="1676" y="709" on="0"/>
        <pt x="1672" y="688" on="1"/>
        <pt x="1661" y="639" on="1"/>
        <pt x="1653" y="594" on="0"/>
        <pt x="1608" y="594" on="1"/>
        <pt x="136" y="594" on="1"/>
        <pt x="86" y="594" on="0"/>
        <pt x="99" y="641" on="1"/>
        <pt x="117" y="713" on="1"/>
        <pt x="123" y="735" on="0"/>
      </contour>
    </TTGlyph>
    <TTGlyph name="endash" xMin="86" yMin="594" xMax="1088" yMax="735">
      <contour>
        <pt x="144" y="735" on="1"/>
        <pt x="1045" y="735" on="1"/>
        <pt x="1088" y="735" on="0"/>
        <pt x="1080" y="688" on="1"/>
        <pt x="1069" y="637" on="1"/>
        <pt x="1059" y="594" on="0"/>
        <pt x="1016" y="594" on="1"/>
        <pt x="136" y="594" on="1"/>
        <pt x="86" y="594" on="0"/>
        <pt x="99" y="641" on="1"/>
        <pt x="117" y="713" on="1"/>
        <pt x="123" y="735" on="0"/>
      </contour>
    </TTGlyph>
    <TTGlyph name="equal" xMin="53" yMin="436" xMax="901" yMax="907">
      <contour>
        <pt x="833" y="766" on="1"/>
        <pt x="186" y="766" on="1"/>
        <pt x="139" y="766" on="0"/>
        <pt x="149" y="813" on="1"/>
        <pt x="168" y="885" on="1"/>
        <pt x="172" y="901" on="0"/>
        <pt x="188" y="907" on="0"/>
        <pt x="219" y="907" on="1"/>
        <pt x="862" y="907" on="1"/>
        <pt x="880" y="907" on="0"/>
        <pt x="901" y="883" on="0"/>
        <pt x="897" y="860" on="1"/>
        <pt x="887" y="809" on="1"/>
        <pt x="876" y="766" on="0"/>
      </contour>
      <contour>
        <pt x="747" y="436" on="1"/>
        <pt x="100" y="436" on="1"/>
        <pt x="53" y="436" on="0"/>
        <pt x="63" y="483" on="1"/>
        <pt x="82" y="555" on="1"/>
        <pt x="86" y="571" on="0"/>
        <pt x="102" y="578" on="0"/>
        <pt x="133" y="578" on="1"/>
        <pt x="776" y="578" on="1"/>
        <pt x="794" y="578" on="0"/>
        <pt x="815" y="553" on="0"/>
        <pt x="811" y="530" on="1"/>
        <pt x="801" y="479" on="1"/>
        <pt x="790" y="436" on="0"/>
      </contour>
    </TTGlyph>
    <TTGlyph name="eth" xMin="-10" yMin="-23" xMax="811" yMax="1556">
      <contour>
        <pt x="498" y="705" on="1"/>
        <pt x="504" y="807" on="0"/>
        <pt x="471" y="913" on="0"/>
        <pt x="334" y="901" on="0"/>
        <pt x="170" y="543" on="0"/>
        <pt x="158" y="129" on="0"/>
        <pt x="297" y="121" on="0"/>
        <pt x="465" y="432" on="0"/>
      </contour>
      <contour>
        <pt x="494" y="1051" on="1"/>
        <pt x="477" y="1153" on="0"/>
        <pt x="451" y="1241" on="1"/>
        <pt x="273" y="1204" on="1"/>
        <pt x="236" y="1196" on="0"/>
        <pt x="226" y="1227" on="1"/>
        <pt x="201" y="1284" on="1"/>
        <pt x="189" y="1315" on="0"/>
        <pt x="215" y="1323" on="1"/>
        <pt x="410" y="1362" on="1"/>
        <pt x="387" y="1419" on="0"/>
        <pt x="351" y="1507" on="1"/>
        <pt x="342" y="1528" on="0"/>
        <pt x="363" y="1556" on="0"/>
        <pt x="387" y="1556" on="1"/>
        <pt x="482" y="1556" on="1"/>
        <pt x="525" y="1556" on="0"/>
        <pt x="541" y="1505" on="1"/>
        <pt x="543" y="1499" on="0"/>
        <pt x="566" y="1425" on="0"/>
        <pt x="576" y="1397" on="1"/>
        <pt x="736" y="1430" on="1"/>
        <pt x="764" y="1434" on="0"/>
        <pt x="776" y="1411" on="1"/>
        <pt x="803" y="1360" on="1"/>
        <pt x="811" y="1343" on="0"/>
        <pt x="799" y="1315" on="0"/>
        <pt x="785" y="1311" on="1"/>
        <pt x="607" y="1274" on="1"/>
        <pt x="627" y="1194" on="0"/>
        <pt x="668" y="854" on="0"/>
        <pt x="652" y="684" on="1"/>
        <pt x="629" y="414" on="0"/>
        <pt x="383" y="-23" on="0"/>
        <pt x="195" y="-16" on="1"/>
        <pt x="129" y="-14" on="0"/>
        <pt x="74" y="41" on="1"/>
        <pt x="-10" y="125" on="0"/>
        <pt x="13" y="571" on="0"/>
        <pt x="183" y="922" on="0"/>
        <pt x="355" y="1063" on="0"/>
        <pt x="459" y="1057" on="1"/>
        <pt x="477" y="1055" on="0"/>
      </contour>
    </TTGlyph>
    <TTGlyph name="exclam" xMin="-61" yMin="-39" xMax="565" yMax="1501">
      <contour>
        <pt x="78" y="365" on="1"/>
        <pt x="324" y="1456" on="1"/>
        <pt x="332" y="1501" on="0"/>
        <pt x="385" y="1501" on="1"/>
        <pt x="506" y="1501" on="1"/>
        <pt x="565" y="1501" on="0"/>
        <pt x="551" y="1454" on="1"/>
        <pt x="182" y="362" on="1"/>
        <pt x="168" y="317" on="0"/>
        <pt x="127" y="317" on="1"/>
        <pt x="115" y="317" on="1"/>
        <pt x="68" y="317" on="0"/>
      </contour>
      <contour>
        <pt x="51" y="193" on="1"/>
        <pt x="74" y="193" on="1"/>
        <pt x="113" y="193" on="0"/>
        <pt x="176" y="123" on="0"/>
        <pt x="176" y="27" on="0"/>
        <pt x="111" y="-39" on="0"/>
        <pt x="59" y="-39" on="1"/>
        <pt x="39" y="-39" on="1"/>
        <pt x="-2" y="-39" on="0"/>
        <pt x="-61" y="29" on="0"/>
        <pt x="-61" y="125" on="0"/>
        <pt x="2" y="193" on="0"/>
      </contour>
    </TTGlyph>
    <TTGlyph name="exclamdown" xMin="25" yMin="-23" xMax="654" yMax="1507">
      <contour>
        <pt x="525" y="1507" on="1"/>
        <pt x="548" y="1507" on="1"/>
        <pt x="589" y="1507" on="0"/>
        <pt x="654" y="1438" on="0"/>
        <pt x="654" y="1350" on="0"/>
        <pt x="584" y="1288" on="0"/>
        <pt x="533" y="1288" on="1"/>
        <pt x="515" y="1288" on="1"/>
        <pt x="472" y="1288" on="0"/>
        <pt x="408" y="1352" on="0"/>
        <pt x="408" y="1444" on="0"/>
        <pt x="474" y="1507" on="0"/>
      </contour>
      <contour>
        <pt x="513" y="1114" on="1"/>
        <pt x="267" y="23" on="1"/>
        <pt x="259" y="-23" on="0"/>
        <pt x="206" y="-23" on="1"/>
        <pt x="85" y="-23" on="1"/>
        <pt x="25" y="-23" on="0"/>
        <pt x="40" y="25" on="1"/>
        <pt x="408" y="1116" on="1"/>
        <pt x="423" y="1161" on="0"/>
        <pt x="464" y="1161" on="1"/>
        <pt x="476" y="1161" on="1"/>
        <pt x="523" y="1161" on="0"/>
      </contour>
    </TTGlyph>
    <TTGlyph name="f" xMin="58" yMin="0" xMax="933" yMax="1575">
      <contour>
        <pt x="161" y="0" on="1"/>
        <pt x="108" y="0" on="1"/>
        <pt x="83" y="0" on="0"/>
        <pt x="58" y="27" on="0"/>
        <pt x="62" y="47" on="1"/>
        <pt x="286" y="897" on="1"/>
        <pt x="171" y="897" on="1"/>
        <pt x="130" y="897" on="0"/>
        <pt x="144" y="946" on="1"/>
        <pt x="159" y="1001" on="1"/>
        <pt x="167" y="1040" on="0"/>
        <pt x="204" y="1040" on="1"/>
        <pt x="325" y="1040" on="1"/>
        <pt x="349" y="1135" on="1"/>
        <pt x="402" y="1335" on="0"/>
        <pt x="564" y="1536" on="0"/>
        <pt x="634" y="1556" on="1"/>
        <pt x="697" y="1575" on="0"/>
        <pt x="742" y="1565" on="1"/>
        <pt x="867" y="1532" on="1"/>
        <pt x="933" y="1516" on="0"/>
        <pt x="900" y="1456" on="1"/>
        <pt x="873" y="1407" on="1"/>
        <pt x="859" y="1378" on="0"/>
        <pt x="802" y="1397" on="1"/>
        <pt x="671" y="1442" on="1"/>
        <pt x="566" y="1356" on="0"/>
        <pt x="507" y="1135" on="1"/>
        <pt x="482" y="1040" on="1"/>
        <pt x="630" y="1040" on="1"/>
        <pt x="673" y="1040" on="0"/>
        <pt x="660" y="995" on="1"/>
        <pt x="646" y="942" on="1"/>
        <pt x="632" y="897" on="0"/>
        <pt x="591" y="897" on="1"/>
        <pt x="443" y="897" on="1"/>
        <pt x="220" y="45" on="1"/>
        <pt x="208" y="0" on="0"/>
      </contour>
    </TTGlyph>
    <TTGlyph name="five" xMin="34" yMin="-33" xMax="956" yMax="1393">
      <contour>
        <pt x="339" y="872" on="1"/>
        <pt x="425" y="930" on="0"/>
        <pt x="542" y="930" on="1"/>
        <pt x="818" y="930" on="0"/>
        <pt x="728" y="516" on="1"/>
        <pt x="677" y="285" on="0"/>
        <pt x="394" y="-20" on="0"/>
        <pt x="261" y="-23" on="1"/>
        <pt x="149" y="-33" on="0"/>
        <pt x="34" y="102" on="0"/>
        <pt x="40" y="297" on="0"/>
        <pt x="91" y="383" on="1"/>
        <pt x="110" y="414" on="0"/>
        <pt x="147" y="401" on="1"/>
        <pt x="190" y="387" on="1"/>
        <pt x="239" y="371" on="0"/>
        <pt x="220" y="334" on="1"/>
        <pt x="179" y="238" on="0"/>
        <pt x="216" y="113" on="0"/>
        <pt x="323" y="100" on="0"/>
        <pt x="489" y="309" on="0"/>
        <pt x="587" y="586" on="0"/>
        <pt x="585" y="784" on="0"/>
        <pt x="534" y="793" on="1"/>
        <pt x="450" y="797" on="0"/>
        <pt x="349" y="719" on="0"/>
        <pt x="294" y="633" on="1"/>
        <pt x="272" y="600" on="0"/>
        <pt x="235" y="612" on="1"/>
        <pt x="167" y="643" on="1"/>
        <pt x="147" y="651" on="0"/>
        <pt x="136" y="674" on="0"/>
        <pt x="142" y="702" on="1"/>
        <pt x="325" y="1350" on="1"/>
        <pt x="337" y="1393" on="0"/>
        <pt x="386" y="1393" on="1"/>
        <pt x="896" y="1393" on="1"/>
        <pt x="956" y="1393" on="0"/>
        <pt x="941" y="1341" on="1"/>
        <pt x="929" y="1286" on="1"/>
        <pt x="923" y="1260" on="0"/>
        <pt x="908" y="1245" on="0"/>
        <pt x="888" y="1245" on="1"/>
        <pt x="448" y="1253" on="1"/>
      </contour>
    </TTGlyph>
    <TTGlyph name="four" xMin="-49" yMin="0" xMax="803" yMax="1393">
      <contour>
        <pt x="717" y="330" on="1"/>
        <pt x="637" y="330" on="1"/>
        <pt x="565" y="45" on="1"/>
        <pt x="553" y="0" on="0"/>
        <pt x="504" y="0" on="1"/>
        <pt x="444" y="0" on="1"/>
        <pt x="420" y="0" on="0"/>
        <pt x="397" y="37" on="0"/>
        <pt x="403" y="63" on="1"/>
        <pt x="471" y="330" on="1"/>
        <pt x="43" y="330" on="1"/>
        <pt x="-21" y="330" on="0"/>
        <pt x="-49" y="434" on="0"/>
        <pt x="-10" y="485" on="1"/>
        <pt x="583" y="1366" on="1"/>
        <pt x="604" y="1393" on="0"/>
        <pt x="645" y="1393" on="1"/>
        <pt x="721" y="1393" on="1"/>
        <pt x="755" y="1393" on="0"/>
        <pt x="766" y="1346" on="0"/>
        <pt x="745" y="1317" on="1"/>
        <pt x="164" y="469" on="1"/>
        <pt x="506" y="471" on="1"/>
        <pt x="577" y="756" on="1"/>
        <pt x="590" y="801" on="0"/>
        <pt x="639" y="801" on="1"/>
        <pt x="698" y="801" on="1"/>
        <pt x="723" y="801" on="0"/>
        <pt x="745" y="764" on="0"/>
        <pt x="739" y="737" on="1"/>
        <pt x="672" y="471" on="1"/>
        <pt x="747" y="471" on="1"/>
        <pt x="780" y="471" on="0"/>
        <pt x="803" y="451" on="0"/>
        <pt x="794" y="426" on="1"/>
        <pt x="774" y="362" on="1"/>
        <pt x="764" y="330" on="0"/>
      </contour>
    </TTGlyph>
    <TTGlyph name="fourinferior" xMin="-31" yMin="2" xMax="587" yMax="908">
      <component glyphName="foursuperior" x="-45" y="-653" flags="0x1004"/>
    </TTGlyph>
    <TTGlyph name="foursuperior" xMin="14" yMin="655" xMax="632" yMax="1561">
      <contour>
        <pt x="557" y="852" on="1"/>
        <pt x="493" y="852" on="1"/>
        <pt x="444" y="684" on="1"/>
        <pt x="434" y="655" on="0"/>
        <pt x="397" y="655" on="1"/>
        <pt x="342" y="655" on="1"/>
        <pt x="323" y="655" on="0"/>
        <pt x="307" y="680" on="0"/>
        <pt x="311" y="696" on="1"/>
        <pt x="356" y="852" on="1"/>
        <pt x="122" y="852" on="1"/>
        <pt x="51" y="852" on="0"/>
        <pt x="14" y="942" on="0"/>
        <pt x="55" y="987" on="1"/>
        <pt x="479" y="1532" on="1"/>
        <pt x="505" y="1561" on="0"/>
        <pt x="534" y="1561" on="1"/>
        <pt x="587" y="1561" on="1"/>
        <pt x="608" y="1561" on="0"/>
        <pt x="626" y="1524" on="0"/>
        <pt x="612" y="1505" on="1"/>
        <pt x="182" y="967" on="1"/>
        <pt x="391" y="967" on="1"/>
        <pt x="446" y="1159" on="1"/>
        <pt x="456" y="1188" on="0"/>
        <pt x="493" y="1188" on="1"/>
        <pt x="548" y="1188" on="1"/>
        <pt x="567" y="1188" on="0"/>
        <pt x="583" y="1163" on="0"/>
        <pt x="579" y="1147" on="1"/>
        <pt x="526" y="967" on="1"/>
        <pt x="591" y="967" on="1"/>
        <pt x="614" y="969" on="0"/>
        <pt x="632" y="948" on="0"/>
        <pt x="626" y="928" on="1"/>
        <pt x="610" y="889" on="1"/>
        <pt x="593" y="852" on="0"/>
      </contour>
    </TTGlyph>
    <TTGlyph name="fraction" xMin="-165" yMin="-55" xMax="1576" yMax="1565">
      <contour>
        <pt x="-46" y="-55" on="1"/>
        <pt x="-128" y="-53" on="1"/>
        <pt x="-152" y="-53" on="0"/>
        <pt x="-165" y="-12" on="0"/>
        <pt x="-140" y="14" on="1"/>
        <pt x="1357" y="1518" on="1"/>
        <pt x="1404" y="1565" on="0"/>
        <pt x="1455" y="1565" on="1"/>
        <pt x="1535" y="1565" on="1"/>
        <pt x="1564" y="1565" on="0"/>
        <pt x="1576" y="1524" on="0"/>
        <pt x="1552" y="1497" on="1"/>
        <pt x="40" y="-18" on="1"/>
        <pt x="3" y="-55" on="0"/>
      </contour>
    </TTGlyph>
    <TTGlyph name="g" xMin="-181" yMin="-391" xMax="736" yMax="1042">
      <contour>
        <pt x="441" y="1036" on="1"/>
        <pt x="509" y="1036" on="0"/>
        <pt x="572" y="997" on="1"/>
        <pt x="584" y="1038" on="0"/>
        <pt x="615" y="1038" on="1"/>
        <pt x="685" y="1040" on="1"/>
        <pt x="736" y="1042" on="0"/>
        <pt x="726" y="987" on="1"/>
        <pt x="679" y="799" on="0"/>
        <pt x="425" y="-102" on="1"/>
        <pt x="372" y="-293" on="0"/>
        <pt x="263" y="-352" on="1"/>
        <pt x="206" y="-387" on="0"/>
        <pt x="142" y="-391" on="0"/>
        <pt x="77" y="-354" on="1"/>
        <pt x="-132" y="-236" on="1"/>
        <pt x="-181" y="-211" on="0"/>
        <pt x="-149" y="-162" on="1"/>
        <pt x="-118" y="-119" on="1"/>
        <pt x="-85" y="-82" on="0"/>
        <pt x="-50" y="-102" on="1"/>
        <pt x="177" y="-242" on="1"/>
        <pt x="224" y="-262" on="0"/>
        <pt x="245" y="-186" on="1"/>
        <pt x="343" y="172" on="1"/>
        <pt x="298" y="96" on="0"/>
        <pt x="187" y="-6" on="0"/>
        <pt x="152" y="-6" on="1"/>
        <pt x="148" y="-6" on="1"/>
        <pt x="132" y="-6" on="0"/>
        <pt x="62" y="41" on="0"/>
        <pt x="-3" y="121" on="0"/>
        <pt x="-30" y="211" on="0"/>
        <pt x="7" y="457" on="0"/>
        <pt x="156" y="872" on="0"/>
        <pt x="318" y="1036" on="0"/>
      </contour>
      <contour>
        <pt x="539" y="885" on="1"/>
        <pt x="437" y="942" on="0"/>
        <pt x="300" y="844" on="0"/>
        <pt x="163" y="473" on="0"/>
        <pt x="124" y="264" on="0"/>
        <pt x="130" y="190" on="0"/>
        <pt x="197" y="156" on="0"/>
        <pt x="355" y="336" on="0"/>
        <pt x="466" y="623" on="0"/>
        <pt x="533" y="866" on="1"/>
      </contour>
    </TTGlyph>
    <TTGlyph name="germandbls" xMin="-50" yMin="-33" xMax="941" yMax="1540">
      <contour>
        <pt x="50" y="0" on="1"/>
        <pt x="-1" y="0" on="1"/>
        <pt x="-26" y="0" on="0"/>
        <pt x="-50" y="27" on="0"/>
        <pt x="-46" y="47" on="1"/>
        <pt x="241" y="1126" on="1"/>
        <pt x="290" y="1313" on="0"/>
        <pt x="501" y="1540" on="0"/>
        <pt x="663" y="1540" on="1"/>
        <pt x="785" y="1540" on="0"/>
        <pt x="941" y="1364" on="0"/>
        <pt x="923" y="1096" on="0"/>
        <pt x="814" y="979" on="1"/>
        <pt x="718" y="883" on="0"/>
        <pt x="701" y="862" on="1"/>
        <pt x="652" y="797" on="0"/>
        <pt x="652" y="696" on="0"/>
        <pt x="718" y="618" on="0"/>
        <pt x="798" y="553" on="0"/>
        <pt x="863" y="430" on="0"/>
        <pt x="863" y="354" on="1"/>
        <pt x="863" y="195" on="0"/>
        <pt x="683" y="-33" on="0"/>
        <pt x="525" y="-33" on="1"/>
        <pt x="462" y="-33" on="0"/>
        <pt x="370" y="25" on="0"/>
        <pt x="349" y="72" on="1"/>
        <pt x="310" y="158" on="0"/>
        <pt x="310" y="303" on="0"/>
        <pt x="339" y="311" on="1"/>
        <pt x="394" y="328" on="1"/>
        <pt x="456" y="348" on="0"/>
        <pt x="454" y="307" on="1"/>
        <pt x="445" y="98" on="0"/>
        <pt x="552" y="98" on="1"/>
        <pt x="615" y="98" on="0"/>
        <pt x="708" y="233" on="0"/>
        <pt x="710" y="387" on="0"/>
        <pt x="665" y="469" on="0"/>
        <pt x="599" y="528" on="0"/>
        <pt x="566" y="557" on="1"/>
        <pt x="486" y="623" on="0"/>
        <pt x="490" y="707" on="1"/>
        <pt x="490" y="813" on="0"/>
        <pt x="558" y="901" on="1"/>
        <pt x="622" y="987" on="0"/>
        <pt x="689" y="1055" on="1"/>
        <pt x="761" y="1135" on="0"/>
        <pt x="785" y="1305" on="0"/>
        <pt x="712" y="1409" on="0"/>
        <pt x="572" y="1409" on="0"/>
        <pt x="433" y="1253" on="0"/>
        <pt x="396" y="1118" on="1"/>
        <pt x="110" y="45" on="1"/>
        <pt x="97" y="0" on="0"/>
      </contour>
    </TTGlyph>
    <TTGlyph name="grave" xMin="113" yMin="1167" xMax="439" yMax="1430">
      <contour>
        <pt x="248" y="1430" on="1"/>
        <pt x="289" y="1430" on="0"/>
        <pt x="312" y="1395" on="1"/>
        <pt x="428" y="1206" on="1"/>
        <pt x="439" y="1190" on="0"/>
        <pt x="420" y="1167" on="0"/>
        <pt x="402" y="1167" on="1"/>
        <pt x="369" y="1167" on="1"/>
        <pt x="338" y="1167" on="0"/>
        <pt x="310" y="1196" on="1"/>
        <pt x="127" y="1386" on="1"/>
        <pt x="113" y="1407" on="0"/>
        <pt x="123" y="1430" on="0"/>
        <pt x="140" y="1430" on="1"/>
      </contour>
    </TTGlyph>
    <TTGlyph name="greater" xMin="16" yMin="260" xMax="941" yMax="993">
      <contour>
        <pt x="741" y="627" on="1"/>
        <pt x="204" y="834" on="1"/>
        <pt x="155" y="852" on="0"/>
        <pt x="165" y="909" on="1"/>
        <pt x="173" y="948" on="1"/>
        <pt x="179" y="981" on="0"/>
        <pt x="208" y="993" on="0"/>
        <pt x="237" y="981" on="1"/>
        <pt x="892" y="705" on="1"/>
        <pt x="941" y="684" on="0"/>
        <pt x="931" y="633" on="1"/>
        <pt x="925" y="604" on="1"/>
        <pt x="917" y="559" on="0"/>
        <pt x="863" y="541" on="1"/>
        <pt x="79" y="272" on="1"/>
        <pt x="40" y="260" on="0"/>
        <pt x="16" y="295" on="0"/>
        <pt x="24" y="328" on="1"/>
        <pt x="32" y="362" on="1"/>
        <pt x="46" y="412" on="0"/>
        <pt x="85" y="424" on="1"/>
      </contour>
    </TTGlyph>
    <TTGlyph name="guillemotleft" xMin="167" yMin="166" xMax="899" yMax="963">
      <component glyphName="guilsinglleft" x="291" y="0" flags="0x1004"/>
      <component glyphName="guilsinglleft" x="-2" y="0" flags="0x1004"/>
    </TTGlyph>
    <TTGlyph name="guillemotright" xMin="15" yMin="166" xMax="768" yMax="963">
      <component glyphName="guilsinglright" x="299" y="0" flags="0x1004"/>
      <component glyphName="guilsinglright" x="-2" y="0" flags="0x1004"/>
    </TTGlyph>
    <TTGlyph name="guilsinglleft" xMin="169" yMin="166" xMax="608" yMax="963">
      <contour>
        <pt x="313" y="549" on="1"/>
        <pt x="421" y="215" on="1"/>
        <pt x="440" y="166" on="0"/>
        <pt x="393" y="166" on="1"/>
        <pt x="360" y="166" on="1"/>
        <pt x="317" y="166" on="0"/>
        <pt x="300" y="213" on="1"/>
        <pt x="186" y="535" on="1"/>
        <pt x="169" y="584" on="0"/>
        <pt x="202" y="623" on="1"/>
        <pt x="477" y="938" on="1"/>
        <pt x="497" y="963" on="0"/>
        <pt x="540" y="963" on="1"/>
        <pt x="573" y="963" on="1"/>
        <pt x="595" y="963" on="0"/>
        <pt x="608" y="938" on="0"/>
        <pt x="593" y="918" on="1"/>
      </contour>
    </TTGlyph>
    <TTGlyph name="guilsinglright" xMin="17" yMin="166" xMax="469" yMax="963">
      <contour>
        <pt x="326" y="580" on="1"/>
        <pt x="217" y="913" on="1"/>
        <pt x="199" y="963" on="0"/>
        <pt x="246" y="963" on="1"/>
        <pt x="279" y="963" on="1"/>
        <pt x="322" y="963" on="0"/>
        <pt x="338" y="915" on="1"/>
        <pt x="453" y="594" on="1"/>
        <pt x="469" y="545" on="0"/>
        <pt x="437" y="506" on="1"/>
        <pt x="162" y="190" on="1"/>
        <pt x="142" y="166" on="0"/>
        <pt x="99" y="166" on="1"/>
        <pt x="66" y="166" on="1"/>
        <pt x="17" y="166" on="0"/>
        <pt x="45" y="211" on="1"/>
      </contour>
    </TTGlyph>
    <TTGlyph name="h" xMin="-16" yMin="0" xMax="851" yMax="1554">
      <contour>
        <pt x="70" y="0" on="1"/>
        <pt x="13" y="0" on="1"/>
        <pt x="-1" y="0" on="0"/>
        <pt x="-16" y="33" on="0"/>
        <pt x="-9" y="53" on="1"/>
        <pt x="367" y="1509" on="1"/>
        <pt x="380" y="1554" on="0"/>
        <pt x="429" y="1554" on="1"/>
        <pt x="476" y="1554" on="1"/>
        <pt x="533" y="1554" on="0"/>
        <pt x="521" y="1507" on="1"/>
        <pt x="318" y="711" on="1"/>
        <pt x="242" y="465" on="1"/>
        <pt x="453" y="817" on="1"/>
        <pt x="521" y="928" on="0"/>
        <pt x="664" y="1040" on="0"/>
        <pt x="716" y="1040" on="1"/>
        <pt x="759" y="1040" on="1"/>
        <pt x="791" y="1040" on="0"/>
        <pt x="828" y="1018" on="0"/>
        <pt x="851" y="940" on="0"/>
        <pt x="828" y="864" on="1"/>
        <pt x="599" y="29" on="1"/>
        <pt x="593" y="0" on="0"/>
        <pt x="566" y="0" on="1"/>
        <pt x="460" y="0" on="1"/>
        <pt x="429" y="0" on="0"/>
        <pt x="443" y="49" on="1"/>
        <pt x="658" y="752" on="1"/>
        <pt x="673" y="807" on="0"/>
        <pt x="673" y="842" on="0"/>
        <pt x="646" y="842" on="0"/>
        <pt x="607" y="805" on="0"/>
        <pt x="574" y="756" on="1"/>
        <pt x="535" y="700" on="0"/>
        <pt x="427" y="522" on="0"/>
        <pt x="343" y="391" on="0"/>
        <pt x="185" y="150" on="0"/>
        <pt x="120" y="29" on="1"/>
        <pt x="103" y="0" on="0"/>
      </contour>
    </TTGlyph>
    <TTGlyph name="hungarumlaut" xMin="106" yMin="1219" xMax="642" yMax="1483">
      <contour>
        <pt x="608" y="1483" on="1"/>
        <pt x="630" y="1483" on="0"/>
        <pt x="642" y="1454" on="0"/>
        <pt x="622" y="1432" on="1"/>
        <pt x="462" y="1247" on="1"/>
        <pt x="433" y="1219" on="0"/>
        <pt x="401" y="1219" on="1"/>
        <pt x="376" y="1219" on="1"/>
        <pt x="356" y="1219" on="0"/>
        <pt x="347" y="1241" on="0"/>
        <pt x="356" y="1253" on="1"/>
        <pt x="487" y="1448" on="1"/>
        <pt x="509" y="1483" on="0"/>
        <pt x="550" y="1483" on="1"/>
      </contour>
      <contour>
        <pt x="356" y="1483" on="1"/>
        <pt x="405" y="1483" on="0"/>
        <pt x="370" y="1432" on="1"/>
        <pt x="218" y="1243" on="1"/>
        <pt x="194" y="1219" on="0"/>
        <pt x="161" y="1219" on="1"/>
        <pt x="134" y="1219" on="1"/>
        <pt x="114" y="1219" on="0"/>
        <pt x="106" y="1241" on="0"/>
        <pt x="114" y="1253" on="1"/>
        <pt x="235" y="1448" on="1"/>
        <pt x="257" y="1483" on="0"/>
        <pt x="298" y="1483" on="1"/>
      </contour>
    </TTGlyph>
    <TTGlyph name="hyphen" xMin="86" yMin="594" xMax="695" yMax="735">
      <contour>
        <pt x="144" y="735" on="1"/>
        <pt x="656" y="735" on="1"/>
        <pt x="674" y="735" on="0"/>
        <pt x="695" y="709" on="0"/>
        <pt x="691" y="688" on="1"/>
        <pt x="680" y="637" on="1"/>
        <pt x="672" y="594" on="0"/>
        <pt x="627" y="594" on="1"/>
        <pt x="136" y="594" on="1"/>
        <pt x="86" y="594" on="0"/>
        <pt x="99" y="641" on="1"/>
        <pt x="117" y="713" on="1"/>
        <pt x="123" y="735" on="0"/>
      </contour>
    </TTGlyph>
    <TTGlyph name="i" xMin="-49" yMin="0" xMax="451" yMax="1352">
      <contour>
        <pt x="340" y="1352" on="1"/>
        <pt x="359" y="1352" on="1"/>
        <pt x="393" y="1352" on="0"/>
        <pt x="451" y="1290" on="0"/>
        <pt x="451" y="1210" on="0"/>
        <pt x="391" y="1153" on="0"/>
        <pt x="346" y="1153" on="1"/>
        <pt x="330" y="1153" on="1"/>
        <pt x="295" y="1153" on="0"/>
        <pt x="240" y="1212" on="0"/>
        <pt x="240" y="1292" on="0"/>
        <pt x="297" y="1352" on="0"/>
      </contour>
      <contour>
        <pt x="377" y="997" on="1"/>
        <pt x="129" y="45" on="1"/>
        <pt x="117" y="0" on="0"/>
        <pt x="68" y="0" on="1"/>
        <pt x="8" y="0" on="1"/>
        <pt x="-49" y="0" on="0"/>
        <pt x="-37" y="47" on="1"/>
        <pt x="213" y="999" on="1"/>
        <pt x="223" y="1040" on="0"/>
        <pt x="270" y="1040" on="1"/>
        <pt x="338" y="1040" on="1"/>
        <pt x="365" y="1040" on="0"/>
        <pt x="383" y="1022" on="0"/>
      </contour>
    </TTGlyph>
    <TTGlyph name="iacute" xMin="-49" yMin="0" xMax="589" yMax="1420">
      <component glyphName="acute" x="141" y="-10" flags="0x1004"/>
      <component glyphName="dotlessi" x="0" y="0" flags="0x1004"/>
    </TTGlyph>
    <TTGlyph name="icircumflex" xMin="-49" yMin="0" xMax="546" yMax="1399">
      <component glyphName="circumflex" x="-61" y="-84" flags="0x1004"/>
      <component glyphName="dotlessi" x="0" y="0" flags="0x1004"/>
    </TTGlyph>
    <TTGlyph name="idieresis" xMin="-27" yMin="0" xMax="578" yMax="1386">
      <contour>
        <pt x="246" y="1386" on="1"/>
        <pt x="262" y="1386" on="1"/>
        <pt x="293" y="1386" on="0"/>
        <pt x="342" y="1325" on="0"/>
        <pt x="342" y="1245" on="0"/>
        <pt x="291" y="1188" on="0"/>
        <pt x="252" y="1188" on="1"/>
        <pt x="238" y="1188" on="1"/>
        <pt x="207" y="1188" on="0"/>
        <pt x="160" y="1247" on="0"/>
        <pt x="160" y="1327" on="0"/>
        <pt x="209" y="1386" on="0"/>
      </contour>
      <contour>
        <pt x="481" y="1386" on="1"/>
        <pt x="498" y="1386" on="1"/>
        <pt x="529" y="1386" on="0"/>
        <pt x="578" y="1325" on="0"/>
        <pt x="578" y="1245" on="0"/>
        <pt x="526" y="1188" on="0"/>
        <pt x="488" y="1188" on="1"/>
        <pt x="473" y="1188" on="1"/>
        <pt x="442" y="1188" on="0"/>
        <pt x="395" y="1247" on="0"/>
        <pt x="395" y="1327" on="0"/>
        <pt x="445" y="1386" on="0"/>
      </contour>
      <contour>
        <pt x="399" y="997" on="1"/>
        <pt x="152" y="45" on="1"/>
        <pt x="139" y="0" on="0"/>
        <pt x="90" y="0" on="1"/>
        <pt x="31" y="0" on="1"/>
        <pt x="-27" y="0" on="0"/>
        <pt x="-14" y="47" on="1"/>
        <pt x="236" y="999" on="1"/>
        <pt x="246" y="1040" on="0"/>
        <pt x="293" y="1040" on="1"/>
        <pt x="361" y="1040" on="1"/>
        <pt x="387" y="1040" on="0"/>
        <pt x="406" y="1022" on="0"/>
      </contour>
    </TTGlyph>
    <TTGlyph name="igrave" xMin="-37" yMin="0" xMax="449" yMax="1420">
      <component glyphName="dotlessi" x="12" y="0" flags="0x1204"/>
      <component glyphName="grave" x="10" y="-10" flags="0x1004"/>
    </TTGlyph>
    <TTGlyph name="j" xMin="-331" yMin="-387" xMax="478" yMax="1352">
      <contour>
        <pt x="300" y="1040" on="1"/>
        <pt x="363" y="1040" on="1"/>
        <pt x="413" y="1040" on="0"/>
        <pt x="402" y="997" on="1"/>
        <pt x="152" y="45" on="1"/>
        <pt x="103" y="-137" on="0"/>
        <pt x="-130" y="-344" on="0"/>
        <pt x="-237" y="-375" on="1"/>
        <pt x="-280" y="-387" on="0"/>
        <pt x="-300" y="-358" on="1"/>
        <pt x="-317" y="-334" on="1"/>
        <pt x="-331" y="-317" on="0"/>
        <pt x="-323" y="-274" on="0"/>
        <pt x="-300" y="-266" on="1"/>
        <pt x="-210" y="-231" on="0"/>
        <pt x="-34" y="-53" on="0"/>
        <pt x="3" y="84" on="1"/>
        <pt x="245" y="999" on="1"/>
        <pt x="255" y="1040" on="0"/>
      </contour>
      <contour>
        <pt x="368" y="1352" on="1"/>
        <pt x="386" y="1352" on="1"/>
        <pt x="421" y="1352" on="0"/>
        <pt x="478" y="1290" on="0"/>
        <pt x="478" y="1210" on="0"/>
        <pt x="419" y="1153" on="0"/>
        <pt x="374" y="1153" on="1"/>
        <pt x="357" y="1153" on="1"/>
        <pt x="322" y="1153" on="0"/>
        <pt x="267" y="1212" on="0"/>
        <pt x="267" y="1292" on="0"/>
        <pt x="324" y="1352" on="0"/>
      </contour>
    </TTGlyph>
    <TTGlyph name="k" xMin="-46" yMin="0" xMax="752" yMax="1554">
      <contour>
        <pt x="499" y="1507" on="1"/>
        <pt x="275" y="629" on="1"/>
        <pt x="585" y="1018" on="1"/>
        <pt x="601" y="1040" on="0"/>
        <pt x="640" y="1040" on="1"/>
        <pt x="716" y="1040" on="1"/>
        <pt x="748" y="1040" on="0"/>
        <pt x="752" y="995" on="0"/>
        <pt x="728" y="969" on="1"/>
        <pt x="376" y="555" on="1"/>
        <pt x="535" y="55" on="1"/>
        <pt x="554" y="0" on="0"/>
        <pt x="492" y="0" on="1"/>
        <pt x="437" y="0" on="1"/>
        <pt x="406" y="0" on="0"/>
        <pt x="384" y="16" on="0"/>
        <pt x="376" y="45" on="1"/>
        <pt x="243" y="502" on="1"/>
        <pt x="126" y="45" on="1"/>
        <pt x="114" y="0" on="0"/>
        <pt x="64" y="0" on="1"/>
        <pt x="30" y="0" on="1"/>
        <pt x="-46" y="0" on="0"/>
        <pt x="-30" y="66" on="1"/>
        <pt x="345" y="1509" on="1"/>
        <pt x="357" y="1554" on="0"/>
        <pt x="406" y="1554" on="1"/>
        <pt x="453" y="1554" on="1"/>
        <pt x="511" y="1554" on="0"/>
      </contour>
    </TTGlyph>
    <TTGlyph name="l" xMin="-46" yMin="0" xMax="511" yMax="1554">
      <contour>
        <pt x="499" y="1507" on="1"/>
        <pt x="126" y="45" on="1"/>
        <pt x="114" y="0" on="0"/>
        <pt x="64" y="0" on="1"/>
        <pt x="30" y="0" on="1"/>
        <pt x="-46" y="0" on="0"/>
        <pt x="-30" y="66" on="1"/>
        <pt x="345" y="1509" on="1"/>
        <pt x="357" y="1554" on="0"/>
        <pt x="406" y="1554" on="1"/>
        <pt x="453" y="1554" on="1"/>
        <pt x="511" y="1554" on="0"/>
      </contour>
    </TTGlyph>
    <TTGlyph name="less" xMin="6" yMin="258" xMax="932" yMax="991">
      <contour>
        <pt x="207" y="627" on="1"/>
        <pt x="743" y="420" on="1"/>
        <pt x="792" y="401" on="0"/>
        <pt x="782" y="344" on="1"/>
        <pt x="774" y="303" on="1"/>
        <pt x="768" y="270" on="0"/>
        <pt x="739" y="258" on="0"/>
        <pt x="710" y="270" on="1"/>
        <pt x="55" y="547" on="1"/>
        <pt x="6" y="567" on="0"/>
        <pt x="16" y="618" on="1"/>
        <pt x="22" y="647" on="1"/>
        <pt x="30" y="692" on="0"/>
        <pt x="84" y="711" on="1"/>
        <pt x="868" y="979" on="1"/>
        <pt x="907" y="991" on="0"/>
        <pt x="932" y="956" on="0"/>
        <pt x="923" y="924" on="1"/>
        <pt x="915" y="891" on="1"/>
        <pt x="901" y="840" on="0"/>
        <pt x="862" y="829" on="1"/>
      </contour>
    </TTGlyph>
    <TTGlyph name="logicalnot" xMin="216" yMin="397" xMax="1453" yMax="924">
      <contour>
        <pt x="1252" y="772" on="1"/>
        <pt x="276" y="772" on="1"/>
        <pt x="216" y="772" on="0"/>
        <pt x="237" y="846" on="1"/>
        <pt x="243" y="866" on="1"/>
        <pt x="253" y="903" on="0"/>
        <pt x="284" y="924" on="0"/>
        <pt x="319" y="924" on="1"/>
        <pt x="1371" y="924" on="1"/>
        <pt x="1453" y="924" on="0"/>
        <pt x="1429" y="836" on="1"/>
        <pt x="1322" y="442" on="1"/>
        <pt x="1310" y="397" on="0"/>
        <pt x="1261" y="397" on="1"/>
        <pt x="1209" y="397" on="1"/>
        <pt x="1152" y="397" on="0"/>
        <pt x="1164" y="444" on="1"/>
      </contour>
    </TTGlyph>
    <TTGlyph name="m" xMin="-16" yMin="0" xMax="1319" yMax="1040">
      <contour>
        <pt x="238" y="987" on="1"/>
        <pt x="248" y="1026" on="0"/>
        <pt x="265" y="1040" on="0"/>
        <pt x="279" y="1040" on="1"/>
        <pt x="363" y="1040" on="1"/>
        <pt x="414" y="1040" on="0"/>
        <pt x="396" y="981" on="1"/>
        <pt x="242" y="465" on="1"/>
        <pt x="455" y="817" on="1"/>
        <pt x="517" y="920" on="0"/>
        <pt x="668" y="1040" on="0"/>
        <pt x="717" y="1040" on="1"/>
        <pt x="760" y="1040" on="1"/>
        <pt x="793" y="1040" on="0"/>
        <pt x="830" y="1018" on="0"/>
        <pt x="853" y="940" on="0"/>
        <pt x="830" y="864" on="1"/>
        <pt x="726" y="481" on="1"/>
        <pt x="922" y="819" on="1"/>
        <pt x="986" y="930" on="0"/>
        <pt x="1133" y="1040" on="0"/>
        <pt x="1184" y="1040" on="1"/>
        <pt x="1227" y="1040" on="1"/>
        <pt x="1260" y="1040" on="0"/>
        <pt x="1297" y="1018" on="0"/>
        <pt x="1319" y="940" on="0"/>
        <pt x="1297" y="864" on="1"/>
        <pt x="1068" y="29" on="1"/>
        <pt x="1061" y="0" on="0"/>
        <pt x="1035" y="0" on="1"/>
        <pt x="928" y="0" on="1"/>
        <pt x="898" y="0" on="0"/>
        <pt x="912" y="49" on="1"/>
        <pt x="1127" y="752" on="1"/>
        <pt x="1143" y="807" on="0"/>
        <pt x="1143" y="842" on="0"/>
        <pt x="1115" y="842" on="0"/>
        <pt x="1076" y="805" on="0"/>
        <pt x="1043" y="756" on="1"/>
        <pt x="1004" y="700" on="0"/>
        <pt x="912" y="551" on="0"/>
        <pt x="762" y="317" on="0"/>
        <pt x="738" y="276" on="1"/>
        <pt x="646" y="127" on="0"/>
        <pt x="601" y="29" on="1"/>
        <pt x="588" y="0" on="0"/>
        <pt x="566" y="0" on="1"/>
        <pt x="461" y="0" on="1"/>
        <pt x="431" y="0" on="0"/>
        <pt x="445" y="49" on="1"/>
        <pt x="660" y="752" on="1"/>
        <pt x="676" y="807" on="0"/>
        <pt x="676" y="842" on="0"/>
        <pt x="648" y="842" on="0"/>
        <pt x="609" y="805" on="0"/>
        <pt x="576" y="756" on="1"/>
        <pt x="537" y="700" on="0"/>
        <pt x="427" y="522" on="0"/>
        <pt x="343" y="391" on="1"/>
        <pt x="185" y="150" on="0"/>
        <pt x="119" y="29" on="1"/>
        <pt x="103" y="0" on="0"/>
        <pt x="70" y="0" on="1"/>
        <pt x="13" y="0" on="1"/>
        <pt x="1" y="0" on="0"/>
        <pt x="-16" y="33" on="0"/>
        <pt x="-10" y="53" on="1"/>
      </contour>
    </TTGlyph>
    <TTGlyph name="macron" xMin="97" yMin="1602" xMax="899" yMax="1718">
      <contour>
        <pt x="150" y="1718" on="1"/>
        <pt x="869" y="1718" on="1"/>
        <pt x="899" y="1718" on="0"/>
        <pt x="865" y="1602" on="0"/>
        <pt x="838" y="1602" on="1"/>
        <pt x="133" y="1602" on="1"/>
        <pt x="101" y="1602" on="0"/>
        <pt x="97" y="1630" on="0"/>
        <pt x="109" y="1659" on="1"/>
        <pt x="119" y="1694" on="1"/>
        <pt x="127" y="1718" on="0"/>
      </contour>
    </TTGlyph>
    <TTGlyph name="minus" xMin="50" yMin="594" xMax="813" yMax="735">
      <contour>
        <pt x="746" y="594" on="1"/>
        <pt x="99" y="594" on="1"/>
        <pt x="50" y="594" on="0"/>
        <pt x="62" y="641" on="1"/>
        <pt x="76" y="700" on="1"/>
        <pt x="80" y="721" on="0"/>
        <pt x="103" y="735" on="0"/>
        <pt x="123" y="735" on="1"/>
        <pt x="775" y="735" on="1"/>
        <pt x="793" y="735" on="0"/>
        <pt x="813" y="711" on="0"/>
        <pt x="809" y="688" on="1"/>
        <pt x="799" y="637" on="1"/>
        <pt x="789" y="594" on="0"/>
      </contour>
    </TTGlyph>
    <TTGlyph name="mu" xMin="-132" yMin="-410" xMax="861" yMax="1040">
      <contour>
        <pt x="278" y="1040" on="1"/>
        <pt x="384" y="1040" on="1"/>
        <pt x="415" y="1040" on="0"/>
        <pt x="400" y="991" on="1"/>
        <pt x="194" y="281" on="1"/>
        <pt x="179" y="217" on="0"/>
        <pt x="189" y="199" on="1"/>
        <pt x="212" y="166" on="0"/>
        <pt x="370" y="403" on="0"/>
        <pt x="685" y="975" on="0"/>
        <pt x="722" y="1040" on="0"/>
        <pt x="755" y="1040" on="1"/>
        <pt x="833" y="1040" on="1"/>
        <pt x="845" y="1040" on="0"/>
        <pt x="861" y="1008" on="0"/>
        <pt x="855" y="987" on="1"/>
        <pt x="607" y="53" on="1"/>
        <pt x="597" y="0" on="0"/>
        <pt x="566" y="0" on="1"/>
        <pt x="482" y="0" on="1"/>
        <pt x="433" y="0" on="0"/>
        <pt x="450" y="59" on="1"/>
        <pt x="591" y="537" on="1"/>
        <pt x="366" y="133" on="0"/>
        <pt x="208" y="0" on="0"/>
        <pt x="153" y="0" on="1"/>
        <pt x="112" y="0" on="1"/>
        <pt x="110" y="-35" on="0"/>
        <pt x="91" y="-104" on="1"/>
        <pt x="17" y="-365" on="1"/>
        <pt x="5" y="-410" on="0"/>
        <pt x="-44" y="-410" on="1"/>
        <pt x="-71" y="-410" on="1"/>
        <pt x="-105" y="-410" on="0"/>
        <pt x="-132" y="-371" on="0"/>
        <pt x="-124" y="-344" on="1"/>
        <pt x="245" y="1012" on="1"/>
        <pt x="251" y="1040" on="0"/>
      </contour>
    </TTGlyph>
    <TTGlyph name="multiply" xMin="-51" yMin="6" xMax="917" yMax="1274">
      <contour>
        <pt x="508" y="618" on="1"/>
        <pt x="686" y="139" on="1"/>
        <pt x="696" y="111" on="0"/>
        <pt x="676" y="80" on="0"/>
        <pt x="643" y="61" on="1"/>
        <pt x="618" y="49" on="1"/>
        <pt x="543" y="6" on="0"/>
        <pt x="516" y="94" on="1"/>
        <pt x="395" y="477" on="1"/>
        <pt x="111" y="84" on="1"/>
        <pt x="80" y="35" on="0"/>
        <pt x="41" y="59" on="1"/>
        <pt x="-10" y="92" on="1"/>
        <pt x="-41" y="111" on="0"/>
        <pt x="-51" y="143" on="0"/>
        <pt x="-29" y="176" on="1"/>
        <pt x="336" y="639" on="1"/>
        <pt x="164" y="1118" on="1"/>
        <pt x="137" y="1186" on="0"/>
        <pt x="176" y="1208" on="1"/>
        <pt x="231" y="1243" on="1"/>
        <pt x="289" y="1274" on="0"/>
        <pt x="315" y="1190" on="1"/>
        <pt x="457" y="768" on="1"/>
        <pt x="768" y="1196" on="1"/>
        <pt x="801" y="1245" on="0"/>
        <pt x="838" y="1223" on="1"/>
        <pt x="879" y="1198" on="1"/>
        <pt x="913" y="1178" on="0"/>
        <pt x="917" y="1139" on="0"/>
        <pt x="895" y="1112" on="1"/>
      </contour>
    </TTGlyph>
    <TTGlyph name="n" xMin="-16" yMin="0" xMax="853" yMax="1040">
      <contour>
        <pt x="242" y="465" on="1"/>
        <pt x="455" y="817" on="1"/>
        <pt x="523" y="928" on="0"/>
        <pt x="666" y="1040" on="0"/>
        <pt x="717" y="1040" on="1"/>
        <pt x="760" y="1040" on="1"/>
        <pt x="793" y="1040" on="0"/>
        <pt x="830" y="1018" on="0"/>
        <pt x="853" y="940" on="0"/>
        <pt x="830" y="864" on="1"/>
        <pt x="601" y="29" on="1"/>
        <pt x="595" y="0" on="0"/>
        <pt x="568" y="0" on="1"/>
        <pt x="461" y="0" on="1"/>
        <pt x="431" y="0" on="0"/>
        <pt x="445" y="49" on="1"/>
        <pt x="660" y="752" on="1"/>
        <pt x="676" y="807" on="0"/>
        <pt x="676" y="842" on="0"/>
        <pt x="648" y="842" on="0"/>
        <pt x="609" y="805" on="0"/>
        <pt x="576" y="756" on="1"/>
        <pt x="537" y="700" on="0"/>
        <pt x="427" y="522" on="0"/>
        <pt x="343" y="391" on="1"/>
        <pt x="185" y="150" on="0"/>
        <pt x="119" y="29" on="1"/>
        <pt x="103" y="0" on="0"/>
        <pt x="70" y="0" on="1"/>
        <pt x="13" y="0" on="1"/>
        <pt x="1" y="0" on="0"/>
        <pt x="-16" y="33" on="0"/>
        <pt x="-10" y="53" on="1"/>
        <pt x="238" y="987" on="1"/>
        <pt x="248" y="1040" on="0"/>
        <pt x="279" y="1040" on="1"/>
        <pt x="363" y="1040" on="1"/>
        <pt x="412" y="1040" on="0"/>
        <pt x="396" y="981" on="1"/>
      </contour>
    </TTGlyph>
    <TTGlyph name="nine" xMin="6" yMin="-33" xMax="866" yMax="1407">
      <contour>
        <pt x="604" y="649" on="1"/>
        <pt x="723" y="1022" on="0"/>
        <pt x="690" y="1182" on="1"/>
        <pt x="670" y="1280" on="0"/>
        <pt x="594" y="1280" on="1"/>
        <pt x="528" y="1280" on="0"/>
        <pt x="399" y="1122" on="0"/>
        <pt x="319" y="879" on="0"/>
        <pt x="319" y="758" on="1"/>
        <pt x="319" y="580" on="0"/>
        <pt x="446" y="580" on="1"/>
        <pt x="475" y="580" on="0"/>
        <pt x="580" y="616" on="0"/>
      </contour>
      <contour>
        <pt x="551" y="498" on="1"/>
        <pt x="477" y="455" on="0"/>
        <pt x="401" y="455" on="1"/>
        <pt x="281" y="455" on="0"/>
        <pt x="162" y="612" on="0"/>
        <pt x="162" y="881" on="0"/>
        <pt x="274" y="1192" on="0"/>
        <pt x="487" y="1407" on="0"/>
        <pt x="614" y="1407" on="1"/>
        <pt x="774" y="1407" on="0"/>
        <pt x="836" y="1233" on="1"/>
        <pt x="866" y="1143" on="0"/>
        <pt x="825" y="811" on="0"/>
        <pt x="748" y="590" on="1"/>
        <pt x="528" y="-33" on="0"/>
        <pt x="205" y="-33" on="1"/>
        <pt x="6" y="-33" on="0"/>
        <pt x="6" y="274" on="1"/>
        <pt x="6" y="334" on="0"/>
        <pt x="47" y="346" on="1"/>
        <pt x="111" y="365" on="1"/>
        <pt x="135" y="373" on="0"/>
        <pt x="164" y="356" on="0"/>
        <pt x="164" y="309" on="0"/>
        <pt x="158" y="195" on="0"/>
        <pt x="186" y="104" on="0"/>
        <pt x="231" y="102" on="1"/>
        <pt x="334" y="102" on="0"/>
        <pt x="442" y="274" on="1"/>
        <pt x="500" y="362" on="0"/>
      </contour>
    </TTGlyph>
    <TTGlyph name="ntilde" xMin="-16" yMin="0" xMax="902" yMax="1366">
      <component glyphName="n" x="0" y="0" flags="0x1204"/>
      <component glyphName="tilde" x="4" y="70" flags="0x1004"/>
    </TTGlyph>
    <TTGlyph name="numbersign" xMin="61" yMin="0" xMax="1605" yMax="1554">
      <contour>
        <pt x="120" y="608" on="1"/>
        <pt x="433" y="608" on="1"/>
        <pt x="525" y="963" on="1"/>
        <pt x="245" y="963" on="1"/>
        <pt x="185" y="963" on="0"/>
        <pt x="206" y="1036" on="1"/>
        <pt x="212" y="1063" on="1"/>
        <pt x="218" y="1090" on="0"/>
        <pt x="231" y="1104" on="0"/>
        <pt x="245" y="1104" on="1"/>
        <pt x="562" y="1104" on="1"/>
        <pt x="667" y="1509" on="1"/>
        <pt x="679" y="1554" on="0"/>
        <pt x="728" y="1554" on="1"/>
        <pt x="775" y="1554" on="1"/>
        <pt x="833" y="1554" on="0"/>
        <pt x="820" y="1507" on="1"/>
        <pt x="716" y="1104" on="1"/>
        <pt x="1115" y="1104" on="1"/>
        <pt x="1220" y="1509" on="1"/>
        <pt x="1232" y="1554" on="0"/>
        <pt x="1281" y="1554" on="1"/>
        <pt x="1328" y="1554" on="1"/>
        <pt x="1386" y="1554" on="0"/>
        <pt x="1373" y="1507" on="1"/>
        <pt x="1269" y="1104" on="1"/>
        <pt x="1543" y="1104" on="1"/>
        <pt x="1605" y="1104" on="0"/>
        <pt x="1590" y="1038" on="1"/>
        <pt x="1582" y="993" on="0"/>
        <pt x="1539" y="963" on="0"/>
        <pt x="1517" y="963" on="1"/>
        <pt x="1234" y="963" on="1"/>
        <pt x="1144" y="608" on="1"/>
        <pt x="1418" y="608" on="1"/>
        <pt x="1480" y="608" on="0"/>
        <pt x="1465" y="543" on="1"/>
        <pt x="1457" y="498" on="0"/>
        <pt x="1414" y="467" on="0"/>
        <pt x="1392" y="467" on="1"/>
        <pt x="1107" y="467" on="1"/>
        <pt x="1001" y="45" on="1"/>
        <pt x="988" y="0" on="0"/>
        <pt x="939" y="0" on="1"/>
        <pt x="904" y="0" on="1"/>
        <pt x="829" y="0" on="0"/>
        <pt x="845" y="66" on="1"/>
        <pt x="949" y="467" on="1"/>
        <pt x="554" y="467" on="1"/>
        <pt x="448" y="45" on="1"/>
        <pt x="435" y="0" on="0"/>
        <pt x="386" y="0" on="1"/>
        <pt x="351" y="0" on="1"/>
        <pt x="276" y="0" on="0"/>
        <pt x="292" y="66" on="1"/>
        <pt x="396" y="467" on="1"/>
        <pt x="120" y="467" on="1"/>
        <pt x="61" y="467" on="0"/>
        <pt x="81" y="541" on="1"/>
        <pt x="87" y="567" on="1"/>
        <pt x="93" y="594" on="0"/>
        <pt x="106" y="608" on="0"/>
      </contour>
      <contour>
        <pt x="591" y="608" on="1"/>
        <pt x="986" y="608" on="1"/>
        <pt x="1078" y="963" on="1"/>
        <pt x="681" y="963" on="1"/>
      </contour>
    </TTGlyph>
    <TTGlyph name="o" xMin="-6" yMin="-23" xMax="666" yMax="1061">
      <contour>
        <pt x="0" y="297" on="1"/>
        <pt x="9" y="571" on="0"/>
        <pt x="265" y="1061" on="0"/>
        <pt x="463" y="1057" on="1"/>
        <pt x="566" y="1051" on="0"/>
        <pt x="623" y="954" on="1"/>
        <pt x="666" y="887" on="0"/>
        <pt x="658" y="727" on="1"/>
        <pt x="650" y="424" on="0"/>
        <pt x="492" y="166" on="1"/>
        <pt x="383" y="-23" on="0"/>
        <pt x="199" y="-16" on="1"/>
        <pt x="134" y="-14" on="0"/>
        <pt x="78" y="41" on="1"/>
        <pt x="-6" y="121" on="0"/>
      </contour>
      <contour>
        <pt x="349" y="215" on="1"/>
        <pt x="488" y="434" on="0"/>
        <pt x="496" y="705" on="1"/>
        <pt x="498" y="825" on="0"/>
        <pt x="469" y="907" on="0"/>
        <pt x="377" y="909" on="0"/>
        <pt x="301" y="821" on="0"/>
        <pt x="265" y="743" on="1"/>
        <pt x="174" y="561" on="0"/>
        <pt x="166" y="317" on="1"/>
        <pt x="162" y="133" on="0"/>
        <pt x="230" y="127" on="1"/>
        <pt x="289" y="125" on="0"/>
      </contour>
    </TTGlyph>
    <TTGlyph name="oacute" xMin="-6" yMin="-23" xMax="749" yMax="1420">
      <component glyphName="acute" x="301" y="-10" flags="0x1004"/>
      <component glyphName="o" x="0" y="0" flags="0x1004"/>
    </TTGlyph>
    <TTGlyph name="ocircumflex" xMin="-6" yMin="-23" xMax="695" yMax="1389">
      <component glyphName="circumflex" x="88" y="-94" flags="0x1004"/>
      <component glyphName="o" x="0" y="0" flags="0x1004"/>
    </TTGlyph>
    <TTGlyph name="odieresis" xMin="-6" yMin="-23" xMax="768" yMax="1389">
      <component glyphName="dieresis" x="-68" y="-45" flags="0x1004"/>
      <component glyphName="o" x="0" y="0" flags="0x1004"/>
    </TTGlyph>
    <TTGlyph name="ogonek" xMin="16" yMin="-360" xMax="360" yMax="59">
      <contour>
        <pt x="302" y="59" on="1"/>
        <pt x="327" y="33" on="1"/>
        <pt x="360" y="0" on="0"/>
        <pt x="321" y="-12" on="1"/>
        <pt x="235" y="-45" on="0"/>
        <pt x="143" y="-158" on="0"/>
        <pt x="177" y="-262" on="0"/>
        <pt x="272" y="-233" on="1"/>
        <pt x="298" y="-223" on="0"/>
        <pt x="310" y="-260" on="1"/>
        <pt x="319" y="-289" on="1"/>
        <pt x="331" y="-319" on="0"/>
        <pt x="292" y="-336" on="1"/>
        <pt x="227" y="-360" on="0"/>
        <pt x="104" y="-360" on="0"/>
        <pt x="16" y="-287" on="0"/>
        <pt x="22" y="-123" on="0"/>
        <pt x="181" y="27" on="0"/>
      </contour>
    </TTGlyph>
    <TTGlyph name="ograve" xMin="-6" yMin="-23" xMax="666" yMax="1420">
      <component glyphName="grave" x="80" y="-10" flags="0x1004"/>
      <component glyphName="o" x="0" y="0" flags="0x1004"/>
    </TTGlyph>
    <TTGlyph name="one" xMin="58" yMin="0" xMax="644" yMax="1395">
      <contour>
        <pt x="605" y="1393" on="1"/>
        <pt x="628" y="1395" on="0"/>
        <pt x="644" y="1360" on="0"/>
        <pt x="638" y="1337" on="1"/>
        <pt x="308" y="45" on="1"/>
        <pt x="296" y="0" on="0"/>
        <pt x="253" y="0" on="1"/>
        <pt x="193" y="0" on="1"/>
        <pt x="169" y="0" on="0"/>
        <pt x="146" y="37" on="0"/>
        <pt x="152" y="63" on="1"/>
        <pt x="433" y="1167" on="1"/>
        <pt x="257" y="987" on="1"/>
        <pt x="212" y="942" on="0"/>
        <pt x="173" y="942" on="1"/>
        <pt x="114" y="942" on="1"/>
        <pt x="77" y="942" on="0"/>
        <pt x="58" y="1008" on="0"/>
        <pt x="93" y="1040" on="1"/>
        <pt x="365" y="1278" on="1"/>
        <pt x="480" y="1393" on="0"/>
        <pt x="527" y="1393" on="1"/>
      </contour>
    </TTGlyph>
    <TTGlyph name="onehalf" xMin="30" yMin="-55" xMax="1771" yMax="1565">
      <component glyphName="fraction" x="195" y="0" flags="0x1004"/>
      <component glyphName="onesuperior" x="137" y="-35" flags="0x1004"/>
      <component glyphName="twosuperior" x="1034" y="-653" flags="0x1004"/>
    </TTGlyph>
    <TTGlyph name="onequarter" xMin="30" yMin="-55" xMax="1771" yMax="1565">
      <component glyphName="fraction" x="195" y="0" flags="0x1004"/>
      <component glyphName="onesuperior" x="137" y="-35" flags="0x1004"/>
      <component glyphName="foursuperior" x="946" y="-653" flags="0x1004"/>
    </TTGlyph>
    <TTGlyph name="onesuperior" xMin="101" yMin="655" xMax="535" yMax="1563">
      <contour>
        <pt x="498" y="1561" on="1"/>
        <pt x="535" y="1563" on="0"/>
        <pt x="521" y="1522" on="1"/>
        <pt x="273" y="686" on="1"/>
        <pt x="265" y="655" on="0"/>
        <pt x="236" y="655" on="1"/>
        <pt x="158" y="655" on="1"/>
        <pt x="121" y="655" on="0"/>
        <pt x="134" y="696" on="1"/>
        <pt x="341" y="1384" on="1"/>
        <pt x="250" y="1298" on="1"/>
        <pt x="222" y="1270" on="0"/>
        <pt x="195" y="1270" on="1"/>
        <pt x="134" y="1270" on="1"/>
        <pt x="109" y="1270" on="0"/>
        <pt x="101" y="1313" on="0"/>
        <pt x="124" y="1333" on="1"/>
        <pt x="308" y="1489" on="1"/>
        <pt x="347" y="1524" on="0"/>
        <pt x="394" y="1561" on="0"/>
        <pt x="416" y="1561" on="1"/>
      </contour>
    </TTGlyph>
    <TTGlyph name="ordfeminine" xMin="95" yMin="793" xMax="677" yMax="1575">
      <contour>
        <pt x="472" y="932" on="1"/>
        <pt x="550" y="975" on="0"/>
        <pt x="589" y="1042" on="1"/>
        <pt x="601" y="1065" on="0"/>
        <pt x="622" y="1055" on="1"/>
        <pt x="652" y="1040" on="1"/>
        <pt x="677" y="1028" on="0"/>
        <pt x="665" y="1010" on="1"/>
        <pt x="571" y="850" on="0"/>
        <pt x="437" y="819" on="1"/>
        <pt x="401" y="813" on="0"/>
        <pt x="390" y="831" on="1"/>
        <pt x="368" y="870" on="1"/>
        <pt x="280" y="793" on="0"/>
        <pt x="102" y="872" on="0"/>
        <pt x="95" y="1065" on="0"/>
        <pt x="212" y="1221" on="0"/>
        <pt x="388" y="1300" on="0"/>
        <pt x="476" y="1294" on="1"/>
        <pt x="515" y="1452" on="0"/>
        <pt x="474" y="1475" on="1"/>
        <pt x="413" y="1468" on="0"/>
        <pt x="315" y="1354" on="1"/>
        <pt x="298" y="1335" on="1"/>
        <pt x="286" y="1323" on="0"/>
        <pt x="272" y="1333" on="1"/>
        <pt x="235" y="1368" on="1"/>
        <pt x="216" y="1382" on="0"/>
        <pt x="222" y="1399" on="1"/>
        <pt x="247" y="1450" on="0"/>
        <pt x="413" y="1575" on="0"/>
        <pt x="513" y="1571" on="0"/>
        <pt x="601" y="1518" on="0"/>
        <pt x="622" y="1419" on="0"/>
        <pt x="603" y="1317" on="1"/>
        <pt x="560" y="1098" on="0"/>
      </contour>
      <contour>
        <pt x="452" y="1190" on="1"/>
        <pt x="358" y="1188" on="0"/>
        <pt x="245" y="1087" on="0"/>
        <pt x="220" y="948" on="0"/>
        <pt x="306" y="918" on="0"/>
        <pt x="384" y="1001" on="0"/>
        <pt x="439" y="1147" on="0"/>
      </contour>
    </TTGlyph>
    <TTGlyph name="ordmasculine" xMin="143" yMin="848" xMax="727" yMax="1567">
      <contour>
        <pt x="512" y="1567" on="1"/>
        <pt x="618" y="1567" on="0"/>
        <pt x="727" y="1417" on="0"/>
        <pt x="727" y="1212" on="0"/>
        <pt x="649" y="1004" on="0"/>
        <pt x="477" y="848" on="0"/>
        <pt x="268" y="848" on="0"/>
        <pt x="143" y="979" on="0"/>
        <pt x="143" y="1280" on="0"/>
        <pt x="342" y="1567" on="0"/>
      </contour>
      <contour>
        <pt x="377" y="971" on="1"/>
        <pt x="475" y="971" on="0"/>
        <pt x="580" y="1184" on="0"/>
        <pt x="584" y="1446" on="0"/>
        <pt x="395" y="1444" on="0"/>
        <pt x="291" y="1237" on="0"/>
        <pt x="291" y="971" on="0"/>
      </contour>
    </TTGlyph>
    <TTGlyph name="oslash" xMin="-90" yMin="-23" xMax="1030" yMax="1065">
      <contour>
        <pt x="998" y="938" on="1"/>
        <pt x="772" y="731" on="1"/>
        <pt x="772" y="727" on="1"/>
        <pt x="764" y="424" on="0"/>
        <pt x="606" y="166" on="1"/>
        <pt x="498" y="-23" on="0"/>
        <pt x="313" y="-16" on="1"/>
        <pt x="248" y="-14" on="0"/>
        <pt x="150" y="80" on="0"/>
        <pt x="131" y="145" on="1"/>
        <pt x="39" y="61" on="1"/>
        <pt x="-12" y="16" on="0"/>
        <pt x="-35" y="39" on="1"/>
        <pt x="-63" y="72" on="1"/>
        <pt x="-86" y="98" on="0"/>
        <pt x="-90" y="127" on="0"/>
        <pt x="-59" y="164" on="1"/>
        <pt x="115" y="324" on="1"/>
        <pt x="129" y="584" on="0"/>
        <pt x="250" y="815" on="1"/>
        <pt x="379" y="1061" on="0"/>
        <pt x="578" y="1057" on="1"/>
        <pt x="705" y="1051" on="0"/>
        <pt x="756" y="911" on="1"/>
        <pt x="883" y="1028" on="1"/>
        <pt x="922" y="1065" on="0"/>
        <pt x="957" y="1032" on="1"/>
        <pt x="983" y="1010" on="1"/>
        <pt x="1030" y="967" on="0"/>
      </contour>
      <contour>
        <pt x="463" y="215" on="1"/>
        <pt x="567" y="379" on="0"/>
        <pt x="598" y="571" on="1"/>
        <pt x="281" y="283" on="1"/>
        <pt x="283" y="131" on="0"/>
        <pt x="344" y="127" on="1"/>
        <pt x="404" y="125" on="0"/>
      </contour>
      <contour>
        <pt x="598" y="866" on="1"/>
        <pt x="584" y="907" on="0"/>
        <pt x="492" y="909" on="0"/>
        <pt x="416" y="821" on="0"/>
        <pt x="379" y="743" on="1"/>
        <pt x="322" y="629" on="0"/>
        <pt x="297" y="492" on="1"/>
        <pt x="610" y="778" on="1"/>
        <pt x="606" y="840" on="0"/>
      </contour>
    </TTGlyph>
    <TTGlyph name="otilde" xMin="-6" yMin="-23" xMax="779" yMax="1352">
      <component glyphName="o" x="0" y="0" flags="0x1204"/>
      <component glyphName="tildecomb" x="-131" y="0" flags="0x1004"/>
    </TTGlyph>
    <TTGlyph name="p" xMin="-129" yMin="-410" xMax="727" yMax="1040">
      <contour>
        <pt x="160" y="143" on="1"/>
        <pt x="260" y="86" on="0"/>
        <pt x="401" y="182" on="0"/>
        <pt x="536" y="555" on="0"/>
        <pt x="575" y="764" on="0"/>
        <pt x="569" y="838" on="0"/>
        <pt x="502" y="874" on="0"/>
        <pt x="344" y="692" on="0"/>
        <pt x="233" y="406" on="0"/>
        <pt x="166" y="162" on="1"/>
      </contour>
      <contour>
        <pt x="377" y="995" on="1"/>
        <pt x="330" y="813" on="1"/>
        <pt x="358" y="860" on="1"/>
        <pt x="401" y="932" on="0"/>
        <pt x="512" y="1034" on="0"/>
        <pt x="547" y="1034" on="1"/>
        <pt x="551" y="1034" on="1"/>
        <pt x="567" y="1034" on="0"/>
        <pt x="637" y="987" on="0"/>
        <pt x="700" y="907" on="0"/>
        <pt x="727" y="823" on="0"/>
        <pt x="696" y="567" on="0"/>
        <pt x="532" y="135" on="0"/>
        <pt x="377" y="-8" on="0"/>
        <pt x="258" y="-8" on="1"/>
        <pt x="190" y="-8" on="0"/>
        <pt x="129" y="29" on="1"/>
        <pt x="29" y="-365" on="1"/>
        <pt x="16" y="-410" on="0"/>
        <pt x="-33" y="-410" on="1"/>
        <pt x="-70" y="-410" on="1"/>
        <pt x="-103" y="-410" on="0"/>
        <pt x="-129" y="-373" on="0"/>
        <pt x="-123" y="-344" on="1"/>
        <pt x="221" y="997" on="1"/>
        <pt x="233" y="1040" on="0"/>
        <pt x="276" y="1040" on="1"/>
        <pt x="336" y="1040" on="1"/>
        <pt x="389" y="1040" on="0"/>
      </contour>
    </TTGlyph>
    <TTGlyph name="paragraph" xMin="235" yMin="-410" xMax="1513" yMax="1483">
      <contour>
        <pt x="894" y="1337" on="1"/>
        <pt x="462" y="-365" on="1"/>
        <pt x="450" y="-410" on="0"/>
        <pt x="401" y="-410" on="1"/>
        <pt x="351" y="-410" on="1"/>
        <pt x="319" y="-410" on="0"/>
        <pt x="292" y="-373" on="0"/>
        <pt x="298" y="-344" on="1"/>
        <pt x="569" y="717" on="1"/>
        <pt x="423" y="723" on="0"/>
        <pt x="235" y="897" on="0"/>
        <pt x="245" y="1233" on="0"/>
        <pt x="552" y="1483" on="0"/>
        <pt x="798" y="1483" on="1"/>
        <pt x="1466" y="1483" on="1"/>
        <pt x="1513" y="1483" on="0"/>
        <pt x="1500" y="1434" on="1"/>
        <pt x="1488" y="1378" on="1"/>
        <pt x="1480" y="1337" on="0"/>
        <pt x="1431" y="1337" on="1"/>
        <pt x="1279" y="1337" on="1"/>
        <pt x="847" y="-365" on="1"/>
        <pt x="835" y="-410" on="0"/>
        <pt x="786" y="-410" on="1"/>
        <pt x="737" y="-410" on="1"/>
        <pt x="704" y="-410" on="0"/>
        <pt x="677" y="-373" on="0"/>
        <pt x="683" y="-344" on="1"/>
        <pt x="1111" y="1337" on="1"/>
      </contour>
    </TTGlyph>
    <TTGlyph name="parenleft" xMin="201" yMin="-362" xMax="991" yMax="1702">
      <contour>
        <pt x="201" y="369" on="1"/>
        <pt x="201" y="731" on="0"/>
        <pt x="549" y="1413" on="0"/>
        <pt x="811" y="1661" on="1"/>
        <pt x="854" y="1702" on="0"/>
        <pt x="893" y="1698" on="1"/>
        <pt x="954" y="1692" on="1"/>
        <pt x="981" y="1690" on="0"/>
        <pt x="991" y="1647" on="0"/>
        <pt x="975" y="1634" on="1"/>
        <pt x="705" y="1397" on="0"/>
        <pt x="346" y="717" on="0"/>
        <pt x="346" y="389" on="1"/>
        <pt x="346" y="199" on="0"/>
        <pt x="430" y="-170" on="0"/>
        <pt x="506" y="-270" on="1"/>
        <pt x="516" y="-283" on="0"/>
        <pt x="510" y="-313" on="0"/>
        <pt x="494" y="-317" on="1"/>
        <pt x="403" y="-342" on="1"/>
        <pt x="367" y="-362" on="0"/>
        <pt x="346" y="-322" on="1"/>
        <pt x="201" y="-55" on="0"/>
      </contour>
    </TTGlyph>
    <TTGlyph name="parenright" xMin="-165" yMin="-356" xMax="628" yMax="1706">
      <contour>
        <pt x="480" y="1665" on="1"/>
        <pt x="628" y="1395" on="0"/>
        <pt x="628" y="610" on="0"/>
        <pt x="281" y="-70" on="0"/>
        <pt x="21" y="-317" on="1"/>
        <pt x="-7" y="-344" on="0"/>
        <pt x="-36" y="-356" on="0"/>
        <pt x="-63" y="-354" on="1"/>
        <pt x="-130" y="-348" on="1"/>
        <pt x="-165" y="-344" on="0"/>
        <pt x="-159" y="-313" on="1"/>
        <pt x="-155" y="-301" on="0"/>
        <pt x="-144" y="-293" on="1"/>
        <pt x="128" y="-55" on="0"/>
        <pt x="482" y="623" on="0"/>
        <pt x="482" y="1370" on="0"/>
        <pt x="322" y="1614" on="1"/>
        <pt x="310" y="1630" on="0"/>
        <pt x="320" y="1657" on="0"/>
        <pt x="337" y="1661" on="1"/>
        <pt x="423" y="1686" on="1"/>
        <pt x="460" y="1706" on="0"/>
      </contour>
    </TTGlyph>
    <TTGlyph name="percent" xMin="-95" yMin="-55" xMax="1646" yMax="1567">
      <component glyphName="fraction" x="70" y="0" flags="0x1004"/>
      <component glyphName="ordmasculine" x="0" y="0" flags="0x1004"/>
      <component glyphName="ordmasculine" x="774" y="-864" flags="0x1004"/>
    </TTGlyph>
    <TTGlyph name="period" xMin="51" yMin="-39" xMax="289" yMax="193">
      <contour>
        <pt x="164" y="193" on="1"/>
        <pt x="186" y="193" on="1"/>
        <pt x="225" y="193" on="0"/>
        <pt x="289" y="123" on="0"/>
        <pt x="289" y="27" on="0"/>
        <pt x="223" y="-39" on="0"/>
        <pt x="172" y="-39" on="1"/>
        <pt x="152" y="-39" on="1"/>
        <pt x="111" y="-39" on="0"/>
        <pt x="51" y="29" on="0"/>
        <pt x="51" y="125" on="0"/>
        <pt x="115" y="193" on="0"/>
      </contour>
    </TTGlyph>
    <TTGlyph name="periodcentered" xMin="178" yMin="580" xMax="424" yMax="811">
      <contour>
        <pt x="295" y="811" on="1"/>
        <pt x="317" y="811" on="1"/>
        <pt x="356" y="811" on="0"/>
        <pt x="424" y="739" on="0"/>
        <pt x="424" y="647" on="0"/>
        <pt x="354" y="580" on="0"/>
        <pt x="303" y="580" on="1"/>
        <pt x="283" y="580" on="1"/>
        <pt x="242" y="580" on="0"/>
        <pt x="178" y="649" on="0"/>
        <pt x="178" y="743" on="0"/>
        <pt x="246" y="811" on="0"/>
      </contour>
    </TTGlyph>
    <TTGlyph name="plus" xMin="50" yMin="285" xMax="813" yMax="1001">
      <contour>
        <pt x="746" y="594" on="1"/>
        <pt x="486" y="594" on="1"/>
        <pt x="416" y="330" on="1"/>
        <pt x="404" y="285" on="0"/>
        <pt x="355" y="285" on="1"/>
        <pt x="304" y="285" on="1"/>
        <pt x="246" y="285" on="0"/>
        <pt x="258" y="332" on="1"/>
        <pt x="326" y="594" on="1"/>
        <pt x="99" y="594" on="1"/>
        <pt x="50" y="594" on="0"/>
        <pt x="62" y="641" on="1"/>
        <pt x="76" y="700" on="1"/>
        <pt x="80" y="721" on="0"/>
        <pt x="103" y="735" on="0"/>
        <pt x="123" y="735" on="1"/>
        <pt x="363" y="735" on="1"/>
        <pt x="422" y="956" on="1"/>
        <pt x="435" y="1001" on="0"/>
        <pt x="484" y="1001" on="1"/>
        <pt x="535" y="1001" on="1"/>
        <pt x="592" y="1001" on="0"/>
        <pt x="580" y="954" on="1"/>
        <pt x="523" y="735" on="1"/>
        <pt x="775" y="735" on="1"/>
        <pt x="793" y="735" on="0"/>
        <pt x="813" y="711" on="0"/>
        <pt x="809" y="688" on="1"/>
        <pt x="799" y="637" on="1"/>
        <pt x="789" y="594" on="0"/>
      </contour>
    </TTGlyph>
    <TTGlyph name="plusminus" xMin="-9" yMin="57" xMax="832" yMax="969">
      <contour>
        <pt x="771" y="606" on="1"/>
        <pt x="499" y="606" on="1"/>
        <pt x="441" y="385" on="1"/>
        <pt x="429" y="342" on="0"/>
        <pt x="382" y="342" on="1"/>
        <pt x="341" y="342" on="1"/>
        <pt x="286" y="342" on="0"/>
        <pt x="298" y="387" on="1"/>
        <pt x="355" y="606" on="1"/>
        <pt x="105" y="606" on="1"/>
        <pt x="73" y="606" on="0"/>
        <pt x="79" y="637" on="1"/>
        <pt x="95" y="702" on="1"/>
        <pt x="103" y="733" on="0"/>
        <pt x="140" y="733" on="1"/>
        <pt x="388" y="733" on="1"/>
        <pt x="439" y="926" on="1"/>
        <pt x="451" y="969" on="0"/>
        <pt x="499" y="969" on="1"/>
        <pt x="540" y="969" on="1"/>
        <pt x="595" y="969" on="0"/>
        <pt x="583" y="924" on="1"/>
        <pt x="533" y="733" on="1"/>
        <pt x="798" y="733" on="1"/>
        <pt x="814" y="733" on="0"/>
        <pt x="832" y="715" on="0"/>
        <pt x="828" y="700" on="1"/>
        <pt x="814" y="639" on="1"/>
        <pt x="808" y="606" on="0"/>
      </contour>
      <contour>
        <pt x="30" y="184" on="1"/>
        <pt x="673" y="184" on="1"/>
        <pt x="710" y="184" on="0"/>
        <pt x="703" y="143" on="1"/>
        <pt x="695" y="94" on="1"/>
        <pt x="689" y="57" on="0"/>
        <pt x="654" y="57" on="1"/>
        <pt x="25" y="57" on="1"/>
        <pt x="-9" y="57" on="0"/>
        <pt x="-3" y="94" on="1"/>
        <pt x="9" y="162" on="1"/>
        <pt x="13" y="184" on="0"/>
      </contour>
    </TTGlyph>
    <TTGlyph name="q" xMin="-9" yMin="-410" xMax="755" yMax="1040">
      <contour>
        <pt x="558" y="885" on="1"/>
        <pt x="458" y="942" on="0"/>
        <pt x="316" y="846" on="0"/>
        <pt x="181" y="473" on="0"/>
        <pt x="142" y="264" on="0"/>
        <pt x="149" y="190" on="0"/>
        <pt x="216" y="154" on="0"/>
        <pt x="374" y="336" on="0"/>
        <pt x="484" y="623" on="0"/>
        <pt x="552" y="866" on="1"/>
      </contour>
      <contour>
        <pt x="589" y="999" on="1"/>
        <pt x="599" y="1040" on="0"/>
        <pt x="644" y="1040" on="1"/>
        <pt x="704" y="1040" on="1"/>
        <pt x="755" y="1040" on="0"/>
        <pt x="742" y="993" on="1"/>
        <pt x="394" y="-365" on="1"/>
        <pt x="382" y="-410" on="0"/>
        <pt x="333" y="-410" on="1"/>
        <pt x="296" y="-410" on="1"/>
        <pt x="263" y="-410" on="0"/>
        <pt x="237" y="-373" on="0"/>
        <pt x="243" y="-344" on="1"/>
        <pt x="386" y="213" on="1"/>
        <pt x="359" y="168" on="1"/>
        <pt x="316" y="96" on="0"/>
        <pt x="206" y="-6" on="0"/>
        <pt x="171" y="-6" on="1"/>
        <pt x="167" y="-6" on="1"/>
        <pt x="151" y="-6" on="0"/>
        <pt x="81" y="41" on="0"/>
        <pt x="17" y="121" on="0"/>
        <pt x="-9" y="205" on="0"/>
        <pt x="22" y="461" on="0"/>
        <pt x="185" y="893" on="0"/>
        <pt x="341" y="1036" on="0"/>
        <pt x="460" y="1036" on="1"/>
        <pt x="527" y="1036" on="0"/>
      </contour>
    </TTGlyph>
    <TTGlyph name="question" xMin="8" yMin="-39" xMax="715" yMax="1516">
      <contour>
        <pt x="121" y="193" on="1"/>
        <pt x="143" y="193" on="1"/>
        <pt x="182" y="193" on="0"/>
        <pt x="246" y="123" on="0"/>
        <pt x="246" y="27" on="0"/>
        <pt x="180" y="-39" on="0"/>
        <pt x="129" y="-39" on="1"/>
        <pt x="109" y="-39" on="1"/>
        <pt x="68" y="-39" on="0"/>
        <pt x="8" y="29" on="0"/>
        <pt x="8" y="125" on="0"/>
        <pt x="72" y="193" on="0"/>
      </contour>
      <contour>
        <pt x="242" y="371" on="1"/>
        <pt x="242" y="324" on="0"/>
        <pt x="180" y="330" on="1"/>
        <pt x="137" y="334" on="1"/>
        <pt x="90" y="338" on="0"/>
        <pt x="100" y="410" on="1"/>
        <pt x="137" y="645" on="0"/>
        <pt x="264" y="752" on="0"/>
        <pt x="403" y="770" on="0"/>
        <pt x="463" y="827" on="0"/>
        <pt x="516" y="938" on="0"/>
        <pt x="557" y="1200" on="0"/>
        <pt x="545" y="1313" on="0"/>
        <pt x="496" y="1352" on="0"/>
        <pt x="475" y="1354" on="1"/>
        <pt x="442" y="1346" on="0"/>
        <pt x="330" y="1233" on="1"/>
        <pt x="303" y="1208" on="0"/>
        <pt x="264" y="1229" on="1"/>
        <pt x="229" y="1251" on="1"/>
        <pt x="193" y="1278" on="0"/>
        <pt x="217" y="1317" on="1"/>
        <pt x="260" y="1378" on="0"/>
        <pt x="412" y="1497" on="0"/>
        <pt x="506" y="1516" on="0"/>
        <pt x="662" y="1440" on="0"/>
        <pt x="715" y="1311" on="0"/>
        <pt x="711" y="1188" on="1"/>
        <pt x="690" y="973" on="0"/>
        <pt x="553" y="662" on="0"/>
        <pt x="440" y="631" on="1"/>
        <pt x="410" y="623" on="0"/>
        <pt x="311" y="602" on="0"/>
        <pt x="295" y="598" on="1"/>
        <pt x="279" y="555" on="0"/>
        <pt x="242" y="393" on="0"/>
      </contour>
    </TTGlyph>
    <TTGlyph name="questiondown" xMin="-12" yMin="-31" xMax="702" yMax="1483">
      <contour>
        <pt x="473" y="1114" on="1"/>
        <pt x="473" y="1161" on="0"/>
        <pt x="535" y="1155" on="1"/>
        <pt x="582" y="1149" on="1"/>
        <pt x="627" y="1141" on="0"/>
        <pt x="625" y="1004" on="0"/>
        <pt x="543" y="807" on="0"/>
        <pt x="442" y="725" on="0"/>
        <pt x="291" y="721" on="0"/>
        <pt x="231" y="670" on="0"/>
        <pt x="182" y="530" on="0"/>
        <pt x="143" y="279" on="0"/>
        <pt x="152" y="180" on="0"/>
        <pt x="195" y="133" on="0"/>
        <pt x="227" y="127" on="1"/>
        <pt x="248" y="131" on="0"/>
        <pt x="334" y="217" on="0"/>
        <pt x="387" y="276" on="0"/>
        <pt x="426" y="250" on="1"/>
        <pt x="465" y="225" on="1"/>
        <pt x="500" y="201" on="0"/>
        <pt x="473" y="164" on="1"/>
        <pt x="422" y="100" on="0"/>
        <pt x="289" y="-12" on="0"/>
        <pt x="197" y="-31" on="0"/>
        <pt x="47" y="39" on="0"/>
        <pt x="-12" y="170" on="0"/>
        <pt x="10" y="498" on="0"/>
        <pt x="121" y="776" on="0"/>
        <pt x="242" y="866" on="0"/>
        <pt x="416" y="877" on="1"/>
        <pt x="440" y="909" on="0"/>
        <pt x="473" y="1077" on="0"/>
      </contour>
      <contour>
        <pt x="586" y="1251" on="1"/>
        <pt x="563" y="1251" on="1"/>
        <pt x="524" y="1251" on="0"/>
        <pt x="457" y="1323" on="0"/>
        <pt x="457" y="1415" on="0"/>
        <pt x="526" y="1483" on="0"/>
        <pt x="578" y="1483" on="1"/>
        <pt x="598" y="1483" on="1"/>
        <pt x="639" y="1483" on="0"/>
        <pt x="702" y="1413" on="0"/>
        <pt x="702" y="1319" on="0"/>
        <pt x="635" y="1251" on="0"/>
      </contour>
    </TTGlyph>
    <TTGlyph name="quotedbl" xMin="214" yMin="1073" xMax="789" yMax="1665">
      <component glyphName="quotesingle" x="307" y="0" flags="0x1004"/>
      <component glyphName="quotesingle" x="0" y="0" flags="0x1004"/>
    </TTGlyph>
    <TTGlyph name="quotedblbase" xMin="-52" yMin="-336" xMax="531" yMax="262">
      <component glyphName="comma" x="307" y="0" flags="0x1004"/>
      <component glyphName="comma" x="0" y="0" flags="0x1004"/>
    </TTGlyph>
    <TTGlyph name="quotedblleft" xMin="150" yMin="1042" xMax="729" yMax="1642">
      <component glyphName="quoteleft" x="295" y="0" flags="0x1004"/>
      <component glyphName="quoteleft" x="-10" y="0" flags="0x1004"/>
    </TTGlyph>
    <TTGlyph name="quotedblright" xMin="134" yMin="1098" xMax="718" yMax="1696">
      <component glyphName="comma" x="494" y="1434" flags="0x1004"/>
      <component glyphName="comma" x="186" y="1434" flags="0x1004"/>
    </TTGlyph>
    <TTGlyph name="quoteleft" xMin="160" yMin="1042" xMax="434" yMax="1642">
      <contour>
        <pt x="160" y="1094" on="1"/>
        <pt x="160" y="1305" on="0"/>
        <pt x="307" y="1554" on="1"/>
        <pt x="356" y="1642" on="0"/>
        <pt x="410" y="1642" on="1"/>
        <pt x="434" y="1642" on="0"/>
        <pt x="434" y="1583" on="0"/>
        <pt x="371" y="1415" on="0"/>
        <pt x="336" y="1200" on="0"/>
        <pt x="334" y="1116" on="1"/>
        <pt x="334" y="1081" on="0"/>
        <pt x="291" y="1071" on="1"/>
        <pt x="209" y="1053" on="1"/>
        <pt x="160" y="1042" on="0"/>
      </contour>
    </TTGlyph>
    <TTGlyph name="quoteright" xMin="184" yMin="1098" xMax="460" yMax="1696">
      <component glyphName="comma" x="236" y="1434" flags="0x1004"/>
    </TTGlyph>
    <TTGlyph name="quotesinglbase" xMin="-52" yMin="-336" xMax="224" yMax="262">
      <component glyphName="comma" x="0" y="0" flags="0x1004"/>
    </TTGlyph>
    <TTGlyph name="quotesingle" xMin="214" yMin="1073" xMax="482" yMax="1665">
      <contour>
        <pt x="482" y="1612" on="1"/>
        <pt x="482" y="1487" on="0"/>
        <pt x="433" y="1358" on="1"/>
        <pt x="321" y="1073" on="0"/>
        <pt x="237" y="1073" on="1"/>
        <pt x="214" y="1073" on="0"/>
        <pt x="216" y="1139" on="0"/>
        <pt x="292" y="1317" on="0"/>
        <pt x="323" y="1470" on="0"/>
        <pt x="323" y="1616" on="1"/>
        <pt x="323" y="1657" on="0"/>
        <pt x="374" y="1657" on="1"/>
        <pt x="433" y="1657" on="1"/>
        <pt x="482" y="1665" on="0"/>
      </contour>
    </TTGlyph>
    <TTGlyph name="r" xMin="-31" yMin="0" xMax="703" yMax="1047">
      <contour>
        <pt x="332" y="766" on="1"/>
        <pt x="397" y="872" on="0"/>
        <pt x="508" y="1012" on="0"/>
        <pt x="559" y="1047" on="0"/>
        <pt x="623" y="1047" on="1"/>
        <pt x="643" y="1047" on="1"/>
        <pt x="703" y="1047" on="0"/>
        <pt x="684" y="1001" on="1"/>
        <pt x="674" y="977" on="0"/>
        <pt x="594" y="905" on="0"/>
        <pt x="457" y="731" on="0"/>
        <pt x="457" y="705" on="1"/>
        <pt x="457" y="651" on="0"/>
        <pt x="508" y="604" on="1"/>
        <pt x="520" y="594" on="0"/>
        <pt x="510" y="571" on="0"/>
        <pt x="494" y="567" on="1"/>
        <pt x="416" y="553" on="1"/>
        <pt x="383" y="547" on="0"/>
        <pt x="348" y="573" on="0"/>
        <pt x="305" y="653" on="1"/>
        <pt x="148" y="45" on="1"/>
        <pt x="135" y="0" on="0"/>
        <pt x="86" y="0" on="1"/>
        <pt x="27" y="0" on="1"/>
        <pt x="-31" y="0" on="0"/>
        <pt x="-18" y="47" on="1"/>
        <pt x="232" y="999" on="1"/>
        <pt x="242" y="1040" on="0"/>
        <pt x="289" y="1040" on="1"/>
        <pt x="352" y="1040" on="1"/>
        <pt x="379" y="1040" on="0"/>
        <pt x="397" y="1022" on="0"/>
        <pt x="391" y="997" on="1"/>
      </contour>
    </TTGlyph>
    <TTGlyph name="r.alt1" xMin="39" yMin="0" xMax="807" yMax="1083">
      <contour>
        <pt x="524" y="874" on="1"/>
        <pt x="281" y="874" on="1"/>
        <pt x="197" y="573" on="1"/>
        <pt x="184" y="528" on="0"/>
        <pt x="135" y="528" on="1"/>
        <pt x="96" y="528" on="1"/>
        <pt x="39" y="528" on="0"/>
        <pt x="51" y="575" on="1"/>
        <pt x="131" y="874" on="1"/>
        <pt x="115" y="874" on="1"/>
        <pt x="43" y="874" on="0"/>
        <pt x="66" y="958" on="1"/>
        <pt x="92" y="1049" on="1"/>
        <pt x="103" y="1083" on="0"/>
        <pt x="152" y="1083" on="1"/>
        <pt x="287" y="1083" on="1"/>
        <pt x="338" y="1083" on="0"/>
        <pt x="326" y="1036" on="1"/>
        <pt x="320" y="1018" on="1"/>
        <pt x="643" y="1018" on="1"/>
        <pt x="680" y="1018" on="0"/>
        <pt x="721" y="967" on="0"/>
        <pt x="701" y="920" on="1"/>
        <pt x="598" y="672" on="0"/>
        <pt x="496" y="264" on="0"/>
        <pt x="526" y="143" on="0"/>
        <pt x="633" y="143" on="0"/>
        <pt x="737" y="147" on="0"/>
        <pt x="758" y="145" on="1"/>
        <pt x="807" y="141" on="0"/>
        <pt x="789" y="74" on="1"/>
        <pt x="785" y="53" on="1"/>
        <pt x="780" y="35" on="0"/>
        <pt x="774" y="27" on="1"/>
        <pt x="754" y="0" on="0"/>
        <pt x="690" y="0" on="1"/>
        <pt x="557" y="0" on="1"/>
        <pt x="473" y="0" on="0"/>
        <pt x="346" y="117" on="0"/>
        <pt x="354" y="317" on="0"/>
        <pt x="467" y="707" on="0"/>
      </contour>
    </TTGlyph>
    <TTGlyph name="r.alt2" xMin="6" yMin="-2" xMax="719" yMax="1083">
      <contour>
        <pt x="457" y="874" on="1"/>
        <pt x="254" y="874" on="1"/>
        <pt x="189" y="639" on="1"/>
        <pt x="176" y="594" on="0"/>
        <pt x="129" y="594" on="1"/>
        <pt x="88" y="594" on="1"/>
        <pt x="31" y="594" on="0"/>
        <pt x="43" y="641" on="1"/>
        <pt x="107" y="874" on="1"/>
        <pt x="66" y="874" on="1"/>
        <pt x="33" y="874" on="0"/>
        <pt x="6" y="924" on="0"/>
        <pt x="17" y="956" on="1"/>
        <pt x="43" y="1040" on="1"/>
        <pt x="47" y="1057" on="0"/>
        <pt x="76" y="1083" on="0"/>
        <pt x="88" y="1083" on="1"/>
        <pt x="254" y="1083" on="1"/>
        <pt x="312" y="1083" on="0"/>
        <pt x="299" y="1036" on="1"/>
        <pt x="293" y="1018" on="1"/>
        <pt x="578" y="1018" on="1"/>
        <pt x="615" y="1018" on="0"/>
        <pt x="654" y="967" on="0"/>
        <pt x="633" y="920" on="1"/>
        <pt x="537" y="690" on="0"/>
        <pt x="435" y="297" on="0"/>
        <pt x="432" y="225" on="1"/>
        <pt x="430" y="125" on="0"/>
        <pt x="510" y="180" on="1"/>
        <pt x="543" y="203" on="0"/>
        <pt x="650" y="287" on="0"/>
        <pt x="684" y="309" on="0"/>
        <pt x="719" y="297" on="0"/>
        <pt x="719" y="264" on="1"/>
        <pt x="719" y="219" on="1"/>
        <pt x="719" y="172" on="0"/>
        <pt x="666" y="133" on="1"/>
        <pt x="512" y="16" on="0"/>
        <pt x="467" y="-2" on="0"/>
        <pt x="418" y="-2" on="1"/>
        <pt x="265" y="-2" on="0"/>
        <pt x="283" y="242" on="1"/>
        <pt x="289" y="317" on="0"/>
        <pt x="400" y="707" on="0"/>
      </contour>
    </TTGlyph>
    <TTGlyph name="r.alt3" xMin="-2" yMin="0" xMax="864" yMax="1083">
      <contour>
        <pt x="846" y="76" on="1"/>
        <pt x="840" y="53" on="1"/>
        <pt x="836" y="35" on="0"/>
        <pt x="830" y="27" on="1"/>
        <pt x="809" y="0" on="0"/>
        <pt x="746" y="0" on="1"/>
        <pt x="690" y="0" on="1"/>
        <pt x="588" y="0" on="0"/>
        <pt x="432" y="137" on="0"/>
        <pt x="432" y="391" on="0"/>
        <pt x="551" y="762" on="0"/>
        <pt x="617" y="874" on="1"/>
        <pt x="377" y="874" on="1"/>
        <pt x="154" y="45" on="1"/>
        <pt x="141" y="0" on="0"/>
        <pt x="92" y="0" on="1"/>
        <pt x="55" y="0" on="1"/>
        <pt x="-2" y="0" on="0"/>
        <pt x="10" y="47" on="1"/>
        <pt x="229" y="874" on="1"/>
        <pt x="201" y="874" on="1"/>
        <pt x="168" y="874" on="0"/>
        <pt x="139" y="936" on="0"/>
        <pt x="156" y="993" on="1"/>
        <pt x="166" y="1026" on="1"/>
        <pt x="174" y="1053" on="0"/>
        <pt x="203" y="1079" on="0"/>
        <pt x="225" y="1083" on="0"/>
        <pt x="250" y="1083" on="1"/>
        <pt x="375" y="1083" on="1"/>
        <pt x="432" y="1083" on="0"/>
        <pt x="420" y="1036" on="1"/>
        <pt x="416" y="1018" on="1"/>
        <pt x="733" y="1018" on="1"/>
        <pt x="772" y="1018" on="0"/>
        <pt x="811" y="971" on="0"/>
        <pt x="791" y="920" on="1"/>
        <pt x="590" y="518" on="0"/>
        <pt x="572" y="139" on="0"/>
        <pt x="696" y="139" on="1"/>
        <pt x="815" y="147" on="1"/>
        <pt x="864" y="143" on="0"/>
      </contour>
    </TTGlyph>
    <TTGlyph name="registered" xMin="64" yMin="-16" xMax="1494" yMax="1495">
      <contour>
        <pt x="656" y="1092" on="1"/>
        <pt x="634" y="1087" on="0"/>
        <pt x="591" y="1079" on="0"/>
        <pt x="568" y="1104" on="0"/>
        <pt x="572" y="1120" on="1"/>
        <pt x="589" y="1180" on="1"/>
        <pt x="593" y="1198" on="0"/>
        <pt x="628" y="1208" on="1"/>
        <pt x="744" y="1237" on="0"/>
        <pt x="976" y="1200" on="0"/>
        <pt x="1105" y="1079" on="0"/>
        <pt x="1105" y="893" on="0"/>
        <pt x="1060" y="817" on="1"/>
        <pt x="994" y="705" on="0"/>
        <pt x="890" y="670" on="1"/>
        <pt x="966" y="340" on="1"/>
        <pt x="978" y="289" on="0"/>
        <pt x="937" y="289" on="1"/>
        <pt x="863" y="289" on="1"/>
        <pt x="834" y="289" on="0"/>
        <pt x="824" y="328" on="1"/>
        <pt x="761" y="651" on="1"/>
        <pt x="675" y="651" on="1"/>
        <pt x="587" y="322" on="1"/>
        <pt x="578" y="291" on="0"/>
        <pt x="537" y="291" on="1"/>
        <pt x="484" y="291" on="1"/>
        <pt x="466" y="291" on="0"/>
        <pt x="447" y="315" on="0"/>
        <pt x="451" y="334" on="1"/>
      </contour>
      <contour>
        <pt x="701" y="754" on="1"/>
        <pt x="765" y="756" on="1"/>
        <pt x="849" y="760" on="0"/>
        <pt x="884" y="788" on="1"/>
        <pt x="959" y="848" on="0"/>
        <pt x="966" y="965" on="1"/>
        <pt x="970" y="1036" on="0"/>
        <pt x="898" y="1075" on="1"/>
        <pt x="857" y="1098" on="0"/>
        <pt x="793" y="1100" on="1"/>
      </contour>
      <contour>
        <pt x="122" y="868" on="1"/>
        <pt x="195" y="1135" on="0"/>
        <pt x="613" y="1495" on="0"/>
        <pt x="1127" y="1489" on="0"/>
        <pt x="1418" y="1202" on="0"/>
        <pt x="1494" y="838" on="0"/>
        <pt x="1437" y="590" on="1"/>
        <pt x="1357" y="301" on="0"/>
        <pt x="963" y="-16" on="0"/>
        <pt x="417" y="-16" on="0"/>
        <pt x="234" y="166" on="1"/>
        <pt x="124" y="279" on="0"/>
        <pt x="64" y="670" on="0"/>
      </contour>
      <contour>
        <pt x="259" y="819" on="1"/>
        <pt x="181" y="516" on="0"/>
        <pt x="431" y="96" on="0"/>
        <pt x="703" y="96" on="1"/>
        <pt x="925" y="96" on="0"/>
        <pt x="1236" y="410" on="0"/>
        <pt x="1299" y="655" on="1"/>
        <pt x="1338" y="791" on="0"/>
        <pt x="1305" y="1051" on="0"/>
        <pt x="1205" y="1257" on="0"/>
        <pt x="1002" y="1384" on="0"/>
        <pt x="869" y="1384" on="1"/>
        <pt x="650" y="1384" on="0"/>
        <pt x="322" y="1063" on="0"/>
      </contour>
    </TTGlyph>
    <TTGlyph name="ring" xMin="500" yMin="1178" xMax="1049" yMax="1722">
      <contour>
        <pt x="720" y="1585" on="1"/>
        <pt x="658" y="1530" on="0"/>
        <pt x="638" y="1384" on="0"/>
        <pt x="683" y="1303" on="0"/>
        <pt x="783" y="1280" on="0"/>
        <pt x="879" y="1348" on="0"/>
        <pt x="922" y="1485" on="0"/>
        <pt x="877" y="1597" on="0"/>
        <pt x="771" y="1626" on="0"/>
      </contour>
      <contour>
        <pt x="1035" y="1458" on="1"/>
        <pt x="1015" y="1315" on="0"/>
        <pt x="840" y="1178" on="0"/>
        <pt x="623" y="1190" on="0"/>
        <pt x="500" y="1352" on="0"/>
        <pt x="535" y="1573" on="0"/>
        <pt x="693" y="1722" on="0"/>
        <pt x="912" y="1722" on="0"/>
        <pt x="1049" y="1563" on="0"/>
      </contour>
    </TTGlyph>
    <TTGlyph name="s" xMin="-66" yMin="-23" xMax="668" yMax="1053">
      <contour>
        <pt x="391" y="1053" on="1"/>
        <pt x="422" y="1053" on="1"/>
        <pt x="492" y="1053" on="0"/>
        <pt x="610" y="946" on="0"/>
        <pt x="647" y="868" on="1"/>
        <pt x="668" y="825" on="0"/>
        <pt x="633" y="803" on="1"/>
        <pt x="571" y="768" on="1"/>
        <pt x="528" y="737" on="0"/>
        <pt x="510" y="778" on="1"/>
        <pt x="508" y="782" on="0"/>
        <pt x="479" y="850" on="0"/>
        <pt x="461" y="879" on="0"/>
        <pt x="416" y="915" on="0"/>
        <pt x="387" y="920" on="1"/>
        <pt x="336" y="909" on="0"/>
        <pt x="246" y="795" on="0"/>
        <pt x="246" y="690" on="1"/>
        <pt x="246" y="645" on="0"/>
        <pt x="289" y="610" on="0"/>
        <pt x="344" y="598" on="1"/>
        <pt x="401" y="586" on="1"/>
        <pt x="526" y="559" on="0"/>
        <pt x="526" y="379" on="1"/>
        <pt x="526" y="272" on="0"/>
        <pt x="446" y="133" on="1"/>
        <pt x="408" y="68" on="0"/>
        <pt x="276" y="-23" on="0"/>
        <pt x="199" y="-23" on="1"/>
        <pt x="184" y="-23" on="1"/>
        <pt x="106" y="-23" on="0"/>
        <pt x="-16" y="86" on="0"/>
        <pt x="-66" y="199" on="0"/>
        <pt x="-41" y="227" on="1"/>
        <pt x="4" y="264" on="1"/>
        <pt x="25" y="285" on="0"/>
        <pt x="74" y="281" on="0"/>
        <pt x="92" y="213" on="0"/>
        <pt x="174" y="117" on="0"/>
        <pt x="209" y="115" on="1"/>
        <pt x="270" y="125" on="0"/>
        <pt x="360" y="250" on="0"/>
        <pt x="360" y="412" on="0"/>
        <pt x="330" y="457" on="0"/>
        <pt x="276" y="469" on="1"/>
        <pt x="231" y="479" on="1"/>
        <pt x="152" y="498" on="0"/>
        <pt x="86" y="592" on="0"/>
        <pt x="86" y="672" on="1"/>
        <pt x="86" y="805" on="0"/>
        <pt x="276" y="1053" on="0"/>
      </contour>
    </TTGlyph>
    <TTGlyph name="scaron" xMin="-66" yMin="-23" xMax="730" yMax="1460">
      <component glyphName="caron" x="119" y="0" flags="0x1004"/>
      <component glyphName="s" x="0" y="0" flags="0x1004"/>
    </TTGlyph>
    <TTGlyph name="section" xMin="-31" yMin="-172" xMax="907" yMax="1552">
      <contour>
        <pt x="537" y="365" on="1"/>
        <pt x="543" y="340" on="0"/>
        <pt x="543" y="311" on="1"/>
        <pt x="543" y="133" on="0"/>
        <pt x="334" y="-172" on="0"/>
        <pt x="168" y="-172" on="1"/>
        <pt x="-31" y="-172" on="0"/>
        <pt x="-31" y="160" on="1"/>
        <pt x="-31" y="217" on="0"/>
        <pt x="8" y="236" on="1"/>
        <pt x="68" y="266" on="1"/>
        <pt x="94" y="281" on="0"/>
        <pt x="127" y="260" on="0"/>
        <pt x="131" y="233" on="0"/>
        <pt x="123" y="137" on="0"/>
        <pt x="131" y="45" on="0"/>
        <pt x="160" y="-31" on="0"/>
        <pt x="256" y="-10" on="0"/>
        <pt x="369" y="131" on="0"/>
        <pt x="387" y="297" on="0"/>
        <pt x="346" y="375" on="0"/>
        <pt x="276" y="412" on="1"/>
        <pt x="115" y="496" on="0"/>
        <pt x="115" y="610" on="1"/>
        <pt x="115" y="750" on="0"/>
        <pt x="256" y="989" on="0"/>
        <pt x="348" y="1036" on="1"/>
        <pt x="332" y="1069" on="0"/>
        <pt x="332" y="1106" on="1"/>
        <pt x="332" y="1278" on="0"/>
        <pt x="539" y="1552" on="0"/>
        <pt x="762" y="1552" on="0"/>
        <pt x="907" y="1376" on="0"/>
        <pt x="895" y="1198" on="1"/>
        <pt x="891" y="1161" on="0"/>
        <pt x="856" y="1147" on="1"/>
        <pt x="784" y="1126" on="1"/>
        <pt x="762" y="1122" on="0"/>
        <pt x="739" y="1137" on="0"/>
        <pt x="741" y="1163" on="1"/>
        <pt x="756" y="1405" on="0"/>
        <pt x="651" y="1411" on="1"/>
        <pt x="594" y="1397" on="0"/>
        <pt x="500" y="1219" on="0"/>
        <pt x="496" y="1116" on="0"/>
        <pt x="555" y="1059" on="0"/>
        <pt x="760" y="936" on="0"/>
        <pt x="760" y="676" on="0"/>
        <pt x="641" y="424" on="0"/>
      </contour>
      <contour>
        <pt x="475" y="918" on="1"/>
        <pt x="389" y="924" on="0"/>
        <pt x="281" y="721" on="0"/>
        <pt x="281" y="618" on="0"/>
        <pt x="338" y="563" on="0"/>
        <pt x="438" y="504" on="0"/>
        <pt x="457" y="489" on="1"/>
        <pt x="512" y="520" on="0"/>
        <pt x="594" y="657" on="0"/>
        <pt x="604" y="852" on="0"/>
      </contour>
    </TTGlyph>
    <TTGlyph name="semicolon" xMin="-27" yMin="-336" xMax="475" yMax="1073">
      <contour>
        <pt x="350" y="1073" on="1"/>
        <pt x="373" y="1073" on="1"/>
        <pt x="412" y="1073" on="0"/>
        <pt x="475" y="1004" on="0"/>
        <pt x="475" y="907" on="0"/>
        <pt x="410" y="842" on="0"/>
        <pt x="358" y="842" on="1"/>
        <pt x="338" y="842" on="1"/>
        <pt x="297" y="842" on="0"/>
        <pt x="238" y="909" on="0"/>
        <pt x="238" y="1006" on="0"/>
        <pt x="301" y="1073" on="0"/>
      </contour>
      <contour>
        <pt x="248" y="213" on="1"/>
        <pt x="248" y="2" on="0"/>
        <pt x="100" y="-248" on="1"/>
        <pt x="49" y="-336" on="0"/>
        <pt x="-2" y="-336" on="1"/>
        <pt x="-27" y="-336" on="0"/>
        <pt x="-27" y="-283" on="0"/>
        <pt x="37" y="-104" on="0"/>
        <pt x="70" y="106" on="0"/>
        <pt x="74" y="190" on="1"/>
        <pt x="74" y="225" on="0"/>
        <pt x="117" y="236" on="1"/>
        <pt x="199" y="254" on="1"/>
        <pt x="248" y="262" on="0"/>
      </contour>
    </TTGlyph>
    <TTGlyph name="seven" xMin="87" yMin="-4" xMax="926" yMax="1393">
      <contour>
        <pt x="896" y="1272" on="1"/>
        <pt x="261" y="43" on="1"/>
        <pt x="238" y="-4" on="0"/>
        <pt x="193" y="2" on="1"/>
        <pt x="140" y="8" on="1"/>
        <pt x="103" y="10" on="0"/>
        <pt x="87" y="57" on="0"/>
        <pt x="103" y="84" on="1"/>
        <pt x="728" y="1245" on="1"/>
        <pt x="193" y="1241" on="1"/>
        <pt x="134" y="1241" on="0"/>
        <pt x="150" y="1298" on="1"/>
        <pt x="165" y="1352" on="1"/>
        <pt x="171" y="1378" on="0"/>
        <pt x="185" y="1393" on="0"/>
        <pt x="205" y="1393" on="1"/>
        <pt x="847" y="1393" on="1"/>
        <pt x="885" y="1393" on="0"/>
        <pt x="926" y="1333" on="0"/>
      </contour>
    </TTGlyph>
    <TTGlyph name="six" xMin="17" yMin="-27" xMax="961" yMax="1407">
      <contour>
        <pt x="283" y="764" on="1"/>
        <pt x="156" y="393" on="0"/>
        <pt x="201" y="207" on="1"/>
        <pt x="226" y="104" on="0"/>
        <pt x="293" y="104" on="1"/>
        <pt x="377" y="104" on="0"/>
        <pt x="543" y="416" on="0"/>
        <pt x="559" y="543" on="1"/>
        <pt x="592" y="809" on="0"/>
        <pt x="430" y="809" on="1"/>
        <pt x="359" y="809" on="0"/>
      </contour>
      <contour>
        <pt x="342" y="901" on="1"/>
        <pt x="420" y="940" on="0"/>
        <pt x="504" y="936" on="1"/>
        <pt x="742" y="924" on="0"/>
        <pt x="717" y="584" on="1"/>
        <pt x="709" y="463" on="0"/>
        <pt x="600" y="188" on="0"/>
        <pt x="398" y="-27" on="0"/>
        <pt x="281" y="-27" on="1"/>
        <pt x="103" y="-27" on="0"/>
        <pt x="45" y="172" on="1"/>
        <pt x="17" y="268" on="0"/>
        <pt x="58" y="588" on="0"/>
        <pt x="131" y="791" on="1"/>
        <pt x="236" y="1077" on="0"/>
        <pt x="598" y="1405" on="0"/>
        <pt x="729" y="1407" on="1"/>
        <pt x="922" y="1384" on="1"/>
        <pt x="940" y="1382" on="0"/>
        <pt x="961" y="1356" on="0"/>
        <pt x="940" y="1327" on="0"/>
        <pt x="838" y="1313" on="0"/>
        <pt x="695" y="1260" on="0"/>
        <pt x="617" y="1212" on="1"/>
        <pt x="449" y="1110" on="0"/>
      </contour>
    </TTGlyph>
    <TTGlyph name="slash" xMin="30" yMin="0" xMax="1001" yMax="1556">
      <contour>
        <pt x="874" y="1556" on="1"/>
        <pt x="943" y="1556" on="1"/>
        <pt x="1001" y="1556" on="0"/>
        <pt x="968" y="1493" on="1"/>
        <pt x="200" y="45" on="1"/>
        <pt x="173" y="0" on="0"/>
        <pt x="139" y="0" on="1"/>
        <pt x="69" y="0" on="1"/>
        <pt x="44" y="0" on="0"/>
        <pt x="30" y="41" on="0"/>
        <pt x="44" y="63" on="1"/>
        <pt x="812" y="1511" on="1"/>
        <pt x="835" y="1556" on="0"/>
      </contour>
    </TTGlyph>
</ttFont>
